SplineFontDB: 3.0
FontName: LibertinusSerif-SemiboldItalic
FullName: Libertinus Serif Semibold Italic
FamilyName: Libertinus Serif Semibold
Weight: Semibold
UComments: "2003-8-29: Created.+AAoA-2004-7-25: v(1.0) release candidate+AAoA-2005-12-28: v(1.1.0) stable+AAoA-2006-01-01: v(2.0.0) stable+AAoA-2006-09-05: v(2.2.0) stable"
Version: 5.1.2
ItalicAngle: -11.5
UnderlinePosition: -98
UnderlineWidth: 40
Ascent: 754
Descent: 246
InvalidEm: 0
LayerCount: 2
Layer: 0 0 "Back" 1
Layer: 1 0 "Fore" 0
XUID: [1021 326 89955977 9462563]
FSType: 0
OS2Version: 0
OS2_WeightWidthSlopeOnly: 0
OS2_UseTypoMetrics: 1
CreationTime: 1162161130
PfmFamily: 17
TTFWeight: 600
TTFWidth: 5
LineGap: 0
VLineGap: 0
OS2TypoAscent: 894
OS2TypoAOffset: 0
OS2TypoDescent: -246
OS2TypoDOffset: 0
OS2TypoLinegap: 0
OS2WinAscent: 894
OS2WinAOffset: 0
OS2WinDescent: 246
OS2WinDOffset: 0
HheadAscent: 894
HheadAOffset: 0
HheadDescent: -246
HheadDOffset: 0
OS2CapHeight: 645
OS2XHeight: 445
OS2FamilyClass: 261
OS2Vendor: 'QUE '
Lookup: 258 0 0 "'kern' Horizontales Kerning in Cyrillic lookup 0" { "'kern' Horizontales Kerning in Cyrillic lookup 0"  } ['kern' ('cyrl' <'dflt' > ) ]
Lookup: 258 0 0 "'kern' Horizontales Kerning in Latin lookup 1" { "'kern' Horizontales Kerning in Latin lookup 1" [150,15,0] } ['kern' ('latn' <'dflt' > ) ]
Lookup: 260 0 0 "'mark' Mark positioning" { "'mark' Right"  "'mark' Top Punkt"  "'mark' Komb OR"  "'mark' Above"  "'mark' Middle"  "'mark' Ogonek"  "'mark' Cedilla"  "'mark' Below"  } ['mark' ('DFLT' <'dflt' > 'cyrl' <'dflt' > 'grek' <'dflt' > 'hebr' <'dflt' > 'latn' <'AZE ' 'CRT ' 'TRK ' 'dflt' > ) ]
MarkAttachClasses: 1
DEI: 91125
LangName: 1033 "" "" "Italic" "" "" "" "" "" "Caleb Maclennan" "Philipp H. Poll, Khaled Hosny" "" "https://github.com/alerque/libertinus" "" "This Font Software is licensed under the SIL Open Font License, Version 1.1" "https://scripts.sil.org/OFL" "" "Libertinus Serif" "Semibold Italic"
Encoding: UnicodeFull
UnicodeInterp: none

StartChar: exclam
Encoding: 33 33 1
Width: 251
GlyphClass: 2
Flags: MW
LayerCount: 2
Fore
SplineSet
259 658 m 0
 292 658 323 640 323 601 c 0
 323 595 322 589 321 583 c 0
 313 548 300 510 287 477 c 0
 278 453 267 424 256 391 c 0
 230 311 215 257 209 230 c 0
 205 211 201 188 164 188 c 0
 138 188 132 196 132 210 c 0
 132 219 134 229 136 242 c 0
 143 280 149 338 154 391 c 0
 158 429 159 458 159 479 c 0
 159 504 161 544 168 583 c 1
 180 639 229 658 259 658 c 0
EndSplineSet
Refer: 14 46 N 1 0 0 1 5 0 2
EndChar

StartChar: numbersign
Encoding: 35 35 3
Width: 463
GlyphClass: 2
Flags: MW
LayerCount: 2
Fore
SplineSet
305 237 m 1
 341 337 l 1
 275 337 l 1
 262 302 251 272 238 237 c 1
 305 237 l 1
417 337 m 1
 380 237 l 1
 469 237 l 1
 450 181 l 1
 360 181 l 1
 340 125 319 67 299 13 c 1
 224 13 l 1
 284 181 l 1
 218 181 l 1
 198 125 177 67 157 13 c 1
 82 13 l 1
 142 181 l 1
 53 181 l 1
 73 237 l 1
 163 237 l 1
 175 272 186 302 199 337 c 1
 110 337 l 1
 130 394 l 1
 219 394 l 1
 239 448 260 507 280 561 c 1
 356 561 l 1
 294 394 l 1
 361 394 l 1
 381 448 401 507 421 561 c 1
 497 561 l 1
 436 394 l 1
 525 394 l 1
 506 337 l 1
 417 337 l 1
EndSplineSet
EndChar

StartChar: dollar
Encoding: 36 36 4
Width: 438
GlyphClass: 2
Flags: MW
LayerCount: 2
Fore
SplineSet
93 10 m 0
 77 10 77 -1 56 -1 c 1
 64 36 67 90 70 146 c 1
 115 149 l 1
 118.7 88.8 136.4 35.2 198.8 26.3 c 1
 246.2 259.1 l 1
 186.9 282.8 109 325.8 131 434 c 0
 148.2 519 242.2 563.1 309.6 570.8 c 1
 321 627 l 1
 361 627 l 1
 349.7 571.5 l 1
 397.6 569.3 436.4 560.5 462 564 c 1
 455 519 454 470 453 421 c 1
 409 417 l 1
 407 435 l 2
 400.7 499.7 392 530.5 342.5 536.1 c 1
 301.2 333.2 l 1
 358.1 314.5 453.9 256.3 434 156 c 0
 417.8 78.1 362.9 -3.5 231.2 -11.4 c 1
 217 -81 l 1
 177 -81 l 1
 191.2 -11.3 l 1
 139.5 -7.6 111.8 10 93 10 c 0
238.9 26.7 m 1
 275.6 32.7 320.9 56.3 335 127 c 0
 345.7 178.3 324.3 217.2 282.7 242.2 c 1
 238.9 26.7 l 1
302.3 535.2 m 1
 258.6 527.4 227.2 495 216 438 c 0
 208.4 402.4 235.3 367.9 264.4 348.9 c 1
 302.3 535.2 l 1
EndSplineSet
EndChar

StartChar: percent
Encoding: 37 37 5
Width: 664
GlyphClass: 2
Flags: MW
LayerCount: 2
Fore
SplineSet
226 391 m 0
 223 378 222 368 222 359 c 0
 222 336 229 330 236 330 c 0
 281 330 332 416 343 471 c 0
 345 481 346 489 346 497 c 0
 346 521 334 527 322 527 c 0
 286 527 237 447 226 391 c 0
480 80 m 1
 478 66 477 56 477 47 c 0
 477 25 484 18 491 18 c 0
 540 18 587 106 598 159 c 0
 600 169 601 178 601 185 c 0
 601 211 588 216 577 216 c 0
 540 216 492 135 480 80 c 1
389 94 m 0
 405 170 489 254 574 254 c 0
 618 254 664 240 664 185 c 0
 664 178 664 169 662 161 c 0
 648 93 574 -19 478 -19 c 0
 414 -19 387 23 387 69 c 0
 387 78 388 86 389 94 c 0
480 517 m 0
 516 517 577 528 628 573 c 1
 696 561 l 1
 163 -19 l 1
 96 -1 l 1
 540 480 l 1
 511 474 485 472 462 472 c 0
 446 472 426 476 409 480 c 1
 408 472 l 1
 395 407 321 293 223 293 c 0
 158 293 132 336 132 381 c 0
 132 389 133 397 135 405 c 0
 150 483 235 566 319 566 c 0
 356 566 388 552 396 541 c 1
 389 542 l 1
 436 517 466 517 480 517 c 0
EndSplineSet
EndChar

StartChar: ampersand
Encoding: 38 38 6
Width: 729
GlyphClass: 2
Flags: MW
LayerCount: 2
Fore
SplineSet
385 517 m 0
 385 513 384 508 384 503 c 0
 384 484 390 459 398 430 c 1
 449 464 489 504 496 537 c 0
 498 545 499 552 499 559 c 0
 499 587 483 604 461 604 c 0
 443 604 398 580 385 517 c 0
415 131 m 1
 379 196 334 286 318 322 c 1
 233 274 203 224 189 158 c 0
 186 142 185 127 185 115 c 0
 185 53 219 29 262 29 c 0
 316 29 354 65 415 131 c 1
447 72 m 1
 393 21 331 -12 247 -12 c 0
 142 -12 66 24 66 116 c 0
 66 129 67 143 71 158 c 0
 86 232 150 297 298 374 c 1
 280 421 272 457 272 486 c 0
 272 497 273 506 275 515 c 0
 288 575 362 645 475 645 c 0
 548 645 602 609 602 555 c 0
 602 549 601 543 600 537 c 0
 589 486 511 422 417 372 c 1
 418 370 419 367 419 365 c 0
 431 335 462 270 490 216 c 1
 562 300 598 355 603 380 c 0
 604 387 607 391 610 392 c 1
 582 392 l 1
 560 394 559 399 560 402 c 2
 562 416 l 1
 573 426 l 1
 573 426 639 423 672 423 c 0
 706 423 773 426 773 426 c 1
 781 416 l 1
 778 403 l 1
 775 395 760 392 745 392 c 2
 718 392 l 2
 704 392 684 365 636 301 c 1
 636 301 573 215 522 154 c 1
 542 113 576 49 591 49 c 0
 618 49 644 63 674 112 c 1
 707 95 l 1
 669 23 617 -12 572 -12 c 0
 532 -12 479 -2 447 72 c 1
EndSplineSet
EndChar

StartChar: quotesingle
Encoding: 39 39 7
Width: 232
GlyphClass: 2
Flags: MW
LayerCount: 2
Fore
SplineSet
197 421 m 1
 182 425 l 1
 182 425 188 585 188 591 c 1
 193 614 222 645 265 645 c 0
 296 645 304 634 304 621 c 0
 304 617 303 612 302 608 c 0
 299 593 232 427 232 427 c 1
 197 421 l 1
EndSplineSet
EndChar

StartChar: parenleft
Encoding: 40 40 8
Width: 337
GlyphClass: 2
Flags: MW
LayerCount: 2
Fore
SplineSet
87 253 m 0
 124 435 262 607 416 720 c 1
 443 686 l 1
 405 651 261 517 207 253 c 0
 195 193 190 140 190 93 c 0
 190 -66 247 -153 267 -181 c 1
 225 -213 l 1
 102 -84 77 57 77 151 c 0
 77 201 84 238 87 253 c 0
EndSplineSet
EndChar

StartChar: parenright
Encoding: 41 41 9
Width: 354
GlyphClass: 2
Flags: MW
LayerCount: 2
Fore
SplineSet
367 251 m 0
 330 69 192 -103 38 -216 c 1
 11 -182 l 1
 49 -147 193 -13 247 251 c 0
 259 311 264 364 264 411 c 0
 264 570 207 657 187 685 c 1
 229 717 l 1
 352 588 377 447 377 353 c 0
 377 303 370 266 367 251 c 0
EndSplineSet
EndChar

StartChar: asterisk
Encoding: 42 42 10
Width: 457
GlyphClass: 2
Flags: MW
LayerCount: 2
Fore
SplineSet
273 536 m 0
 282 542 292 547 309 563 c 1
 302 564 295 564 289 564 c 0
 239 564 206 571 206 598 c 0
 206 600 206 603 206 605 c 0
 209 621 227 639 262 639 c 0
 288 639 301 628 313 615 c 0
 315 614 316 612 318 610 c 1
 318 621 316 627 316 634 c 1
 314 645 313 655 313 664 c 0
 313 668 313 672 314 675 c 0
 319 698 343 718 370 718 c 0
 393 718 412 708 412 688 c 0
 412 685 411 682 411 679 c 0
 408 668 400 647 391 628 c 0
 384 612 386 623 382 609 c 1
 385 611 388 613 391 615 c 0
 408 627 424 638 451 638 c 0
 485 638 493 622 493 610 c 0
 493 608 493 606 493 605 c 0
 486 572 444 565 404 565 c 0
 395 565 383 564 373 563 c 1
 384 547 390 542 396 536 c 0
 416 519 432 504 432 485 c 0
 432 483 432 481 432 479 c 0
 427 459 402 446 379 446 c 0
 339 446 334 475 329 506 c 1
 311 475 292 446 254 446 c 0
 230 446 214 458 214 474 c 0
 214 475 215 477 215 478 c 0
 220 501 246 518 273 536 c 0
EndSplineSet
EndChar

StartChar: plus
Encoding: 43 43 11
Width: 551
GlyphClass: 2
Flags: MW
LayerCount: 2
Fore
SplineSet
373 261 m 1
 544 261 l 1
 532 203 l 1
 361 203 l 1
 326 32 l 1
 241 32 l 1
 275 203 l 1
 104 203 l 1
 116 261 l 1
 288 261 l 1
 322 433 l 1
 408 433 l 1
 373 261 l 1
EndSplineSet
EndChar

StartChar: comma
Encoding: 44 44 12
Width: 244
GlyphClass: 2
Flags: MW
LayerCount: 2
Fore
SplineSet
137 102 m 0
 176 102 192 69 192 32 c 0
 192 -74.8 98.9 -120 33 -131 c 1
 27.1 -121.6 28.6 -110.1 32 -98 c 1
 89 -84.5 118 -42.1 118 -17 c 0
 118 -4 110.9 -1.4 104 0 c 0
 84 4 71 23 71 50 c 0
 71 79.5 97 102 137 102 c 0
EndSplineSet
EndChar

StartChar: hyphen
Encoding: 45 45 13
Width: 374
GlyphClass: 2
Flags: MW
LayerCount: 2
Fore
SplineSet
350 233 m 2
 126 233 l 2
 104 233 94 242 94 251 c 0
 94 252 94 253 94 254 c 0
 98 271 126 294 148 294 c 2
 374 294 l 2
 398 294 406 286 406 277 c 0
 406 276 406 275 406 273 c 0
 403 260 373 233 350 233 c 2
EndSplineSet
EndChar

StartChar: period
Encoding: 46 46 14
Width: 244
GlyphClass: 2
Flags: MW
LayerCount: 2
Fore
SplineSet
139.697265625 108.0703125 m 0
 170.298828125 108.0703125 192.5546875 81.85546875 192.5546875 53.392578125 c 0
 192.5546875 27.712890625 166.875 -10.7001953125 126.642578125 -10.7001953125 c 0
 95.8271484375 -10.7001953125 73.25 10.5927734375 73.25 37.9853515625 c 0
 73.25 87.09765625 112.83984375 108.0703125 139.697265625 108.0703125 c 0
EndSplineSet
EndChar

StartChar: slash
Encoding: 47 47 15
Width: 316
GlyphClass: 2
Flags: MW
LayerCount: 2
Fore
SplineSet
440 682 m 1
 61 -21 l 1
 -2 -21 l 1
 378 682 l 1
 440 682 l 1
EndSplineSet
EndChar

StartChar: zero
Encoding: 48 48 16
Width: 470
GlyphClass: 2
Flags: MW
LayerCount: 2
Fore
SplineSet
223 -10 m 0
 121 -10 79 84 79 194 c 0
 79 356 155 498 230 558 c 0
 268 592 312 610 354 610 c 0
 443 610 500 539 500 416 c 0
 500 286 445 154 396 91 c 0
 340 18 272 -10 223 -10 c 0
346 572 m 0
 326 572 301 562 274 518 c 0
 239 464 173 272 173 130 c 0
 173 73 187 28 232 28 c 0
 253 28 295 43 330 126 c 0
 357 188 402 361 402 463 c 0
 402 512 393 542 379 557 c 0
 370 567 359 572 346 572 c 0
EndSplineSet
EndChar

StartChar: one
Encoding: 49 49 17
Width: 471
GlyphClass: 2
Flags: MW
LayerCount: 2
Fore
SplineSet
311 122 m 2
 294 39 326 34 386 32 c 1
 392 26 388 4 379 -2 c 1
 324 -1 282 0 240 0 c 0
 194 0 145 -1 90 -2 c 1
 84 4 88 26 97 32 c 1
 159 34 197 39 214 122 c 2
 278 442 l 2
 281 458 283 467 283 476 c 0
 283 490 278 496 270 496 c 0
 254 496 215 492 172 475 c 1
 164 484 161 497 162 511 c 1
 249 542 313 568 365 594 c 0
 382 602 395 609 405 609 c 0
 409 609 413 607 413 601 c 0
 413 599 393 520 387 492 c 2
 311 122 l 2
EndSplineSet
EndChar

StartChar: two
Encoding: 50 50 18
Width: 470
GlyphClass: 2
Flags: MW
LayerCount: 2
Fore
SplineSet
337 610 m 0
 409 610 488 571 488 487 c 0
 488 405 423 349 324 255 c 2
 243 178 l 2
 222 158 173 115 158 79 c 1
 309 79 l 2
 348 79 363 92 393 156 c 1
 409 156 420 153 429 148 c 1
 420 119 395 44 374 -1 c 1
 374 -1 322 0 308 0 c 2
 107 0 l 2
 92 0 39 -1 39 -1 c 1
 39 11 42 28 48 41 c 1
 72 75 115 121 200 203 c 2
 283 282 l 2
 342 339 384 397 384 475 c 0
 384 534 342 564 306 564 c 0
 247 564 222 537 216 514 c 1
 214 499 218 484 218 470 c 0
 218 439 189 422 164 422 c 0
 140 422 124 444 124 463 c 0
 127 537 237 610 337 610 c 0
EndSplineSet
EndChar

StartChar: three
Encoding: 51 51 19
Width: 470
GlyphClass: 2
Flags: MW
LayerCount: 2
Fore
SplineSet
318 564 m 0
 289 564 237 552 227 502 c 0
 222 476 206 442 174 442 c 0
 155 442 141 454 141 474 c 0
 141 496 159 523 189 548 c 0
 224 577 278 610 351 610 c 0
 438 610 480 549 480 506 c 0
 480 446 449 402 363 352 c 1
 424 334 463 297 463 222 c 0
 463 81 338 -10 195 -10 c 0
 153 -10 98 3 70 21 c 0
 57 29 49 39 49 52 c 0
 49 74 71 98 96 98 c 0
 126 98 137 76 149 59 c 0
 159 44 181 26 214 26 c 0
 290 26 363 106 363 198 c 0
 363 275 306 303 261 303 c 0
 247 303 233 302 215 300 c 1
 218 335 l 1
 248 339 279 349 308 366 c 0
 363 397 391 438 391 493 c 0
 391 536 357 564 318 564 c 0
EndSplineSet
EndChar

StartChar: four
Encoding: 52 52 20
Width: 470
GlyphClass: 2
Flags: MW
LayerCount: 2
Fore
SplineSet
353 502 m 1
 310 442 151 256 105 211 c 1
 293 211 l 1
 353 502 l 1
470 211 m 2
 478 211 482 207 482 200 c 0
 482 185 461 166 448 166 c 2
 376 166 l 1
 362 100 l 2
 349 34 377 33 425 30 c 1
 431 24 427 4 418 -2 c 1
 365 -1 333 0 296 0 c 0
 256 0 221 -1 168 -2 c 1
 162 4 166 24 174 30 c 1
 221 32 258 34 271 100 c 2
 284 166 l 1
 97 166 l 2
 80 166 75 169 71 174 c 0
 64 182 55 201 57 210 c 1
 117 268 333 514 393 602 c 1
 397 607 411 610 423 610 c 2
 467 610 l 1
 465 602 450 532 444 503 c 2
 385 211 l 1
 470 211 l 2
EndSplineSet
EndChar

StartChar: five
Encoding: 53 53 21
Width: 470
GlyphClass: 2
Flags: MW
LayerCount: 2
Fore
SplineSet
343 205 m 0
 343 268 312 312 266 319 c 0
 228 325 172 325 132 318 c 1
 128 323 l 1
 221 607 l 1
 264 604 294 600 331 600 c 0
 384 600 432 604 495 612 c 1
 506 604 l 1
 475 529 l 1
 426 524 401 522 370 522 c 0
 332 522 278 525 245 529 c 1
 198 391 l 1
 222 393 267 390 302 386 c 0
 399 374 444 298 444 224 c 0
 444 89 329 -10 192 -10 c 0
 149 -10 100 -1 71 19 c 0
 56 29 47 43 47 57 c 0
 47 80 66 103 94 103 c 0
 122 103 138 85 149 66 c 0
 160 46 179 28 205 28 c 0
 289 28 343 114 343 205 c 0
EndSplineSet
EndChar

StartChar: six
Encoding: 54 54 22
Width: 470
GlyphClass: 2
Flags: MW
LayerCount: 2
Fore
SplineSet
503 588 m 1
 436 572 371 546 310 495 c 0
 261 454 218 392 195 322 c 1
 231 346 278 365 310 365 c 0
 436 365 463 286 463 227 c 0
 463 106 362 -10 226 -10 c 0
 150 -10 68 38 68 174 c 0
 68 254 108 394 223 498 c 0
 303 567 393 609 497 624 c 1
 502 615 504 600 503 588 c 1
185 286 m 1
 174 254 165 197 165 148 c 0
 165 56 214 26 245 26 c 0
 319 26 362 134 362 214 c 0
 362 264 339 322 276 322 c 0
 255 322 230 316 185 286 c 1
EndSplineSet
EndChar

StartChar: seven
Encoding: 55 55 23
Width: 470
GlyphClass: 2
Flags: MW
LayerCount: 2
Fore
SplineSet
257 521 m 2
 216 521 202 504 173 439 c 1
 160 438 148 440 137 445 c 1
 151 499 166 562 177 609 c 1
 177 611 179 611 182 611 c 0
 199 611 193 600 228 600 c 2
 463 600 l 2
 481 600 529 604 538 606 c 1
 546 596 l 1
 377 323 293 164 202 -6 c 1
 118 -12 l 1
 113 -3 l 1
 213 146 347 354 448 521 c 1
 257 521 l 2
EndSplineSet
EndChar

StartChar: eight
Encoding: 56 56 24
Width: 470
GlyphClass: 2
Flags: MW
LayerCount: 2
Fore
SplineSet
232 25 m 0
 263 25 294 34 319 61 c 0
 342 85 361 127 361 175 c 0
 361 209 343 238 301 268 c 2
 263 296 l 1
 185 246 145 187 145 117 c 0
 145 56 192 25 232 25 c 0
441 397 m 0
 418 376 389 359 357 343 c 1
 400 313 l 2
 439 286 455 245 455 202 c 0
 455 135 427 83 377 42 c 0
 338 10 285 -10 222 -10 c 0
 132 -10 57 31 57 116 c 0
 57 168 84 210 119 242 c 0
 150 272 187 295 232 318 c 1
 213 332 l 2
 167 366 145 398 145 437 c 0
 145 487 171 531 212 564 c 0
 246 592 292 610 350 610 c 0
 441 610 493 556 493 498 c 0
 493 453 474 426 441 397 c 0
338 574 m 0
 311 574 291 567 276 554 c 0
 252 533 239 499 239 469 c 0
 239 442 247 414 292 386 c 2
 324 366 l 1
 390 414 410 455 410 496 c 0
 410 535 382 574 338 574 c 0
EndSplineSet
EndChar

StartChar: nine
Encoding: 57 57 25
Width: 470
GlyphClass: 2
Flags: MW
LayerCount: 2
Fore
SplineSet
64 12 m 1
 131 28 196 54 257 105 c 0
 306 146 349 208 372 278 c 1
 336 254 289 235 257 235 c 0
 131 235 104 314 104 373 c 0
 104 494 205 610 341 610 c 0
 417 610 499 562 499 426 c 0
 499 346 459 206 344 102 c 0
 264 33 174 -9 70 -24 c 1
 65 -15 63 0 64 12 c 1
382 314 m 1
 393 346 402 403 402 452 c 0
 402 544 353 574 322 574 c 0
 248 574 205 466 205 386 c 0
 205 336 228 278 291 278 c 0
 312 278 337 284 382 314 c 1
EndSplineSet
EndChar

StartChar: less
Encoding: 60 60 28
Width: 512
GlyphClass: 2
Flags: MW
LayerCount: 2
Fore
SplineSet
202 240 m 1
 496 124 l 1
 483 62 l 1
 86 218 l 1
 95 262 l 1
 556 418 l 1
 543 356 l 1
 202 240 l 1
EndSplineSet
EndChar

StartChar: equal
Encoding: 61 61 29
Width: 551
GlyphClass: 2
Flags: MW
LayerCount: 2
Fore
SplineSet
534 198 m 1
 522 142 l 1
 87 142 l 1
 99 198 l 1
 534 198 l 1
559 323 m 1
 547 266 l 1
 113 266 l 1
 124 323 l 1
 559 323 l 1
EndSplineSet
EndChar

StartChar: greater
Encoding: 62 62 30
Width: 512
GlyphClass: 2
Flags: MW
LayerCount: 2
Fore
SplineSet
408 238 m 1
 113 354 l 1
 126 416 l 1
 523 259 l 1
 515 215 l 1
 54 60 l 1
 66 122 l 1
 408 238 l 1
EndSplineSet
EndChar

StartChar: question
Encoding: 63 63 31
Width: 430
GlyphClass: 2
Flags: MW
LayerCount: 2
Fore
SplineSet
244 571 m 0
 241 557 244 549 246 544 c 0
 249 538 249 527 247 517 c 0
 242 492 210 478 180 478 c 0
 159 478 133 492 133 522 c 0
 133 526 133 530 134 534 c 0
 141 569 166 592 205 620 c 0
 241 645 289 659 350 659 c 0
 450 659 507 612 507 539 c 0
 507 528 506 518 504 506 c 0
 489 432 416 385 358 348 c 0
 327 328 288 301 274 229 c 1
 269 206 l 2
 265 184 258 172 227 172 c 0
 204 172 198 178 198 190 c 0
 198 195 199 200 200 206 c 2
 205 231 l 2
 214 272 227 329 312 394 c 0
 353 425 376 453 386 503 c 0
 388 515 390 526 390 537 c 0
 390 584 369 623 333 623 c 0
 289 623 249 599 244 571 c 0
225.7 101 m 0
 254.3 101 270 76.5 264.6 49.9 c 0
 259.7 25.9 228.4 -10 190.8 -10 c 0
 162 -10 145 9.9 150.2 35.5 c 0
 159.5 81.4 200.6 101 225.7 101 c 0
EndSplineSet
EndChar

StartChar: at
Encoding: 64 64 32
Width: 1042
GlyphClass: 2
Flags: MW
LayerCount: 2
Fore
SplineSet
667 407 m 0
 541 407 451 217 451 113 c 0
 451 76 464 46 506 46 c 0
 529 46 608 112 651 187 c 0
 670 221 712 317 712 350 c 0
 712 383 692 407 667 407 c 0
330 112 m 0
 330 261 508 445 670 445 c 0
 703 445 738 436 756 421 c 1
 822 439 l 1
 857 427 l 1
 736 126 l 2
 704 49 714 41 726 41 c 0
 859 41 927 285 927 370 c 0
 927 567 778 642 657 642 c 0
 433 642 221 435 221 159 c 0
 221 13 281 -178 522 -178 c 0
 612 -178 694 -145 779 -86 c 1
 800 -125 l 1
 716 -180 634 -224 492 -224 c 0
 247 -224 98 -64 98 146 c 0
 98 420 337 685 665 685 c 0
 899 685 1039 542 1039 355 c 0
 1039 213 960 -5 644 -5 c 0
 603 -5 593 13 593 31 c 1
 593 31 594 48 596 51 c 1
 541 7 491 -3 462 -3 c 0
 353 -3 330 62 330 112 c 0
EndSplineSet
EndChar

StartChar: A
Encoding: 65 65 33
Width: 719
GlyphClass: 2
Flags: MW
AnchorPoint: "below" 308 -110 basechar 0
AnchorPoint: "cedilla" 116 5 basechar 0
AnchorPoint: "above" 354 850 basechar 0
LayerCount: 2
Fore
SplineSet
316 288 m 2
 470 288 l 1
 454 371 446 409 429 494 c 1
 391 429 314 300 314 300 c 2
 309.8 292.9 309.8 288 316 288 c 2
633 91 m 2
 638.7 62.6 644.5 40.8 692 34 c 2
 706 32 l 2
 710 31.4 716 29 716 23 c 1
 712 0 l 1
 710 -2 l 1
 710 -2 673 0 634 0 c 0
 598 0 450 -2 450 -2 c 1
 448 0 l 1
 451 23 l 2
 451.8 29.5 453 31.3 458 32 c 2
 469 34 l 2
 493.4 38.4 515.8 47.9 511 73 c 2
 479 241 l 1
 290 241 l 2
 282 241 277.3 237.4 271 227 c 2
 178 73 l 2
 165 51 187.6 38.4 212 34 c 2
 223 32 l 2
 227.9 31.3 230 29 230 23 c 2
 227 0 l 1
 225 -2 l 1
 225 -2 137 0 101 0 c 0
 62 0 15 -2 15 -2 c 1
 13 0 l 1
 15 23 l 2
 15.5 29.1 21 31.4 25 32 c 2
 39 34 l 2
 86.5 40.8 108.8 69.7 123.7 94.5 c 2
 444 627 l 2
 458.2 650.6 480 658 491 658 c 0
 513.5 658 520.8 648 525 627 c 2
 633 91 l 2
EndSplineSet
EndChar

StartChar: B
Encoding: 66 66 34
Width: 593
GlyphClass: 2
Flags: MW
AnchorPoint: "below" 268 -110 basechar 0
AnchorPoint: "cedilla" 250 0 basechar 0
AnchorPoint: "middle" 146 185 basechar 0
AnchorPoint: "above" 267 850 basechar 0
AnchorPoint: "right" 509 732 basechar 0
LayerCount: 2
Fore
SplineSet
311 562 m 2
 278 376 l 1
 332 376 l 2
 447.2 376 476 463.4 476 520.6 c 0
 476 590.8 424.7 604 385 604 c 0
 323 604 316 591 311 562 c 2
271 334 m 1
 227 84 l 2
 225.8 78 224.9 72.6 224.9 67.8 c 0
 224.9 49.5 236.8 40 282 40 c 0
 430.8 40 468 159.4 468 219.6 c 0
 468 288 425 334 339 334 c 2
 271 334 l 1
269 645 m 0
 315 645 345 646 386 646 c 0
 552 646 590.8 582.7 590.8 521.2 c 0
 590.8 425.1 502.3 373.6 473 361 c 1
 473 359 l 1
 554.4 335.5 588.7 284.4 588.7 216.6 c 0
 588.7 110.8 514 0 293 0 c 2
 156 0 l 1
 156 0 58 -1 9 -2 c 1
 4 4 3 27 10 33 c 1
 81 36 101 39 116 122 c 2
 186 523 l 2
 189.3 541.1 191 555.5 191 567 c 0
 191 608 172.9 609.7 119 612 c 1
 114 618 112 641 119 647 c 1
 169 646 210 645 269 645 c 0
EndSplineSet
EndChar

StartChar: C
Encoding: 67 67 35
Width: 637
GlyphClass: 2
Flags: MW
AnchorPoint: "below" 363 -110 basechar 0
AnchorPoint: "cedilla" 356 -7 basechar 0
AnchorPoint: "middle" 346 315 basechar 0
AnchorPoint: "above" 340 850 basechar 0
AnchorPoint: "right" 609 732 basechar 0
LayerCount: 2
Fore
SplineSet
354 -10 m 0
 164.5 -10 82.1 112.7 82.1 250.1 c 0
 82.1 271.5 84.1 293.3 88 315 c 0
 122 512 295 658 472 658 c 0
 600 658 625 614 674 614 c 1
 668 556 665 500 665 445 c 1
 627 437 l 1
 614 532 588 617 465 617 c 0
 372 617 251 532 216 334 c 0
 211.2 306.5 208.6 278.4 208.6 251 c 0
 208.6 136.7 252.9 34 361 34 c 0
 438 34 514 66 603 153 c 1
 628 129 l 1
 547 39 455 -10 354 -10 c 0
EndSplineSet
EndChar

StartChar: D
Encoding: 68 68 36
Width: 688
GlyphClass: 2
Flags: MW
AnchorPoint: "below" 279 -110 basechar 0
AnchorPoint: "cedilla" 279 4 basechar 0
AnchorPoint: "middle" 346 315 basechar 0
AnchorPoint: "above" 306 850 basechar 0
AnchorPoint: "right" 619 732 basechar 0
LayerCount: 2
Fore
SplineSet
225 75 m 2
 224.2 70.6 223.7 66.6 223.7 63.2 c 0
 223.7 44.3 238.5 40 302 40 c 0
 425 40 542 88 577 284 c 0
 581.8 311.9 584.5 340.5 584.5 368.5 c 0
 584.5 492.3 532.1 606 378 606 c 0
 344 606 318 603 312 571 c 2
 225 75 l 2
23 0 m 1
 21 2 l 1
 25 24 l 2
 26 30 30 33 34 33 c 2
 48 33 l 2
 86 33 103 45 108 77 c 2
 195 569 l 2
 195.9 573.9 196.4 578.4 196.4 582.4 c 0
 196.4 604.4 182.1 613 150 613 c 2
 136 613 l 2
 133 613 129 616 130 621 c 2
 134 644 l 1
 137 646 l 1
 421 646 l 2
 595.4 646 713 524.4 713 366.4 c 0
 713 347.7 711.4 328.5 708 309 c 0
 664 63 467 0 324 0 c 2
 23 0 l 1
EndSplineSet
EndChar

StartChar: E
Encoding: 69 69 37
Width: 538
GlyphClass: 2
Flags: MW
AnchorPoint: "below" 279 -110 basechar 0
AnchorPoint: "cedilla" 279 4 basechar 0
AnchorPoint: "above" 273 850 basechar 0
AnchorPoint: "right" 519 732 basechar 0
LayerCount: 2
Fore
SplineSet
25 0 m 1
 23 2 l 1
 27 24 l 2
 28 30 32 33 36 33 c 2
 49 33 l 2
 88 33 104 45 110 77 c 2
 197 569 l 2
 197.7 573.5 198.1 577.6 198.1 581.4 c 0
 198.1 604.1 184.6 613 152 613 c 2
 138 613 l 2
 134 613 131 616 132 621 c 2
 136 644 l 1
 139 646 l 1
 587 646 l 1
 580 588 578 535 578 484 c 1
 538 475 l 1
 534 526 523 600 459 600 c 2
 334 600 l 2
 325 600 319 592 315 571 c 2
 279 365 l 1
 387 365 l 2
 411 365 421 396 434 436 c 1
 434 440 441 447 451 447 c 2
 471 447 l 1
 475 437 l 1
 470 421 458 381 452 344 c 0
 446 308 443 268 442 251 c 1
 435 242 l 1
 415 242 l 2
 405 242 400 248 401 252 c 0
 401.5 262.2 401.9 271.8 401.9 280.4 c 0
 401.9 306.1 398 323 380 323 c 2
 272 323 l 1
 228 75 l 2
 226.8 68.3 226.3 63 226.3 58.9 c 0
 226.3 49 229.6 46 236 46 c 2
 383 46 l 2
 436 46 481 105 510 179 c 1
 550 169 l 1
 531 116 510 54 494 0 c 1
 25 0 l 1
EndSplineSet
EndChar

StartChar: F
Encoding: 70 70 38
Width: 492
GlyphClass: 2
Flags: MW
AnchorPoint: "below" 201 -110 basechar 0
AnchorPoint: "cedilla" 145 -1 basechar 0
AnchorPoint: "above" 276 850 basechar 0
AnchorPoint: "right" 499 732 basechar 0
LayerCount: 2
Fore
SplineSet
227 77 m 2
 226.3 72.9 225.9 69 225.9 65.4 c 0
 225.9 44.6 238.8 33 272 33 c 2
 286 33 l 2
 290 33 293 30 292 24 c 2
 288 1 l 1
 285 -1 l 1
 285 -1 190 1 155 1 c 0
 118 1 24 -1 24 -1 c 1
 23 1 l 1
 27 24 l 2
 28 30 32 33 36 33 c 2
 49 33 l 2
 88 33 104 45 110 77 c 2
 197 569 l 2
 197.7 573.5 198.1 577.6 198.1 581.4 c 0
 198.1 604.1 184.6 613 152 613 c 2
 138 613 l 2
 134 613 131 616 132 621 c 2
 136 644 l 1
 139 646 l 1
 586 646 l 1
 579 588 577 535 577 484 c 1
 537 475 l 1
 533 526 522 600 458 600 c 2
 333 600 l 2
 324 600 318 592 314 571 c 2
 278 365 l 1
 386 365 l 2
 410 365 420 396 433 436 c 1
 433 440 440 447 450 447 c 2
 470 447 l 1
 474 437 l 1
 469 421 457 381 451 344 c 0
 445 308 442 268 441 251 c 1
 434 242 l 1
 414 242 l 2
 404 242 399 248 400 252 c 0
 400.5 262.2 400.9 271.8 400.9 280.4 c 0
 400.9 306.1 397 323 379 323 c 2
 271 323 l 1
 227 77 l 2
EndSplineSet
EndChar

StartChar: G
Encoding: 71 71 39
Width: 696
GlyphClass: 2
Flags: MW
AnchorPoint: "top_punkt" 490 730 basechar 0
AnchorPoint: "below" 367 -110 basechar 0
AnchorPoint: "cedilla" 367 2 basechar 0
AnchorPoint: "middle" 308 335 basechar 0
AnchorPoint: "above" 365 850 basechar 0
AnchorPoint: "right" 631 732 basechar 0
LayerCount: 2
Fore
SplineSet
663 229 m 2
 643 114 l 2
 640 99 643 92 649 85 c 1
 571 26 489 -10 368 -10 c 0
 186.4 -10 76.9 104.1 76.9 251.9 c 0
 76.9 270.1 78.6 288.9 82 308 c 0
 120 528 312 658 483 658 c 0
 613 658 637 614 686 614 c 1
 678 556 677 500 677 445 c 1
 638 437 l 1
 628 531 597 617 475 617 c 0
 359 617 240 498 210 327 c 0
 205.7 302.8 203.5 278.8 203.5 255.6 c 0
 203.5 134.1 263.7 34 393 34 c 0
 435 34 486 46 523 74 c 1
 551 229 l 2
 551.4 231.3 551.6 233.6 551.6 235.7 c 0
 551.6 261.7 524.1 272 489 272 c 2
 476 272 l 2
 472 272 468 275 469 281 c 2
 474 304 l 1
 476 306 l 1
 476 306 569 304 606 304 c 0
 641 304 731 306 731 306 c 1
 733 304 l 1
 729 281 l 2
 728 275 724 272 719 272 c 2
 714 272 l 2
 674 272 668 256 663 229 c 2
EndSplineSet
EndChar

StartChar: H
Encoding: 72 72 40
Width: 746
GlyphClass: 2
Flags: MW
AnchorPoint: "below" 360 -110 basechar 0
AnchorPoint: "cedilla" 150 0 basechar 0
AnchorPoint: "middle" 356 485 basechar 0
AnchorPoint: "above" 361 850 basechar 0
AnchorPoint: "right" 729 732 basechar 0
LayerCount: 2
Fore
SplineSet
629 569 m 2
 630 573 630 578 630 582 c 0
 630 604 616 613 582 613 c 2
 568 613 l 2
 563 613 560 616 561 621 c 2
 565 645 l 1
 567 646 l 1
 567 646 665 645 704 645 c 0
 739 645 840 646 840 646 c 1
 842 645 l 1
 838 621 l 2
 837 616 833 613 829 613 c 2
 814 613 l 2
 773 613 757 597 752 569 c 2
 666 77 l 2
 665 73 664 69 664 65 c 0
 664 44 677 33 712 33 c 2
 727 33 l 2
 731 33 734 30 733 24 c 2
 729 1 l 1
 727 -1 l 1
 727 -1 625 1 590 1 c 0
 551 1 454 -1 454 -1 c 1
 452 1 l 1
 456 24 l 2
 457 30 461 33 466 33 c 2
 480 33 l 2
 520 33 537 45 542 77 c 2
 585 321 l 1
 306 321 l 1
 263 77 l 2
 262 73 261 69 261 65 c 0
 261 44 274 33 310 33 c 2
 324 33 l 2
 329 33 331 30 330 24 c 2
 326 1 l 1
 324 -1 l 1
 324 -1 223 1 187 1 c 0
 148 1 51 -1 51 -1 c 1
 49 1 l 1
 53 24 l 2
 54 30 59 33 63 33 c 2
 77 33 l 2
 117 33 134 45 140 77 c 2
 226 569 l 2
 227 573 228 578 228 582 c 0
 228 604 213 613 179 613 c 2
 165 613 l 2
 161 613 158 615 158 621 c 1
 163 645 l 1
 165 646 l 1
 165 646 262 645 301 645 c 0
 336 645 438 646 438 646 c 1
 439 645 l 1
 435 621 l 2
 434 616 431 613 426 613 c 2
 412 613 l 2
 371 613 354 597 349 569 c 2
 314 367 l 1
 594 367 l 1
 629 569 l 2
EndSplineSet
EndChar

StartChar: I
Encoding: 73 73 41
Width: 343
GlyphClass: 2
Flags: MW
AnchorPoint: "below" 147 -110 basechar 0
AnchorPoint: "cedilla" 147 1 basechar 0
AnchorPoint: "middle" 148 325 basechar 0
AnchorPoint: "above" 150 850 basechar 0
LayerCount: 2
Fore
SplineSet
271 122 m 2
 267.6 103.3 265.8 88.6 265.8 77 c 0
 265.8 37 285.5 35.3 339 33 c 1
 344 27 345 4 338 -2 c 1
 288 -1 247 0 188 0 c 0
 131 0 90 -1 41 -2 c 1
 36 4 35 27 42 33 c 1
 113 36 133 39 148 122 c 2
 218 523 l 2
 221.3 541.1 223 555.5 223 567 c 0
 223 608 204.9 609.7 151 612 c 1
 146 618 144 641 151 647 c 1
 201 646 242 645 301 645 c 0
 358 645 399 646 448 647 c 1
 453 641 453 618 446 612 c 1
 375 609 356 606 341 523 c 2
 271 122 l 2
EndSplineSet
EndChar

StartChar: J
Encoding: 74 74 42
Width: 452
GlyphClass: 2
Flags: MW
AnchorPoint: "below" 109 -319 basechar 0
AnchorPoint: "middle" 186 315 basechar 0
AnchorPoint: "above" 432 850 basechar 0
LayerCount: 2
Fore
SplineSet
473 580 m 1
 465 537 446 386 446 360 c 0
 446 340 459 338 492 335 c 1
 488 307 l 1
 436 301 l 1
 427 244 417 187 407 130 c 0
 366 -118 213 -164 153 -164 c 0
 96 -164 46 -143 46 -109 c 0
 46 -92 62 -65 92 -65 c 0
 149 -65 147 -121 166 -121 c 0
 248 -121 294 59 313 300 c 1
 275 303 226 307 192 309 c 1
 192 333 l 1
 319 341 l 1
 335 450 360 512 383 562 c 1
 362 562 340 568 327 574 c 0
 292 588 245 615 217 615 c 0
 208 615 202 602 202 591 c 0
 202 584 204 582 206 581 c 0
 218 569 224 557 224 546 c 0
 224 523 208 507 174 507 c 0
 135 507 121 528 121 556 c 0
 121 597 162 663 274 663 c 0
 316 663 364 644 403 626 c 1
 413 650 433 679 473 679 c 0
 506 679 530 668 530 644 c 0
 530 624 502 600 473 580 c 1
EndSplineSet
EndChar

StartChar: K
Encoding: 75 75 43
Width: 693
GlyphClass: 2
Flags: MW
AnchorPoint: "below" 342 -110 basechar 0
AnchorPoint: "cedilla" 148 -1 basechar 0
AnchorPoint: "above" 336 850 basechar 0
AnchorPoint: "right" 649 732 basechar 0
LayerCount: 2
Fore
SplineSet
578 574 m 2
 591 584 599 610 574 612 c 2
 553 614 l 2
 548 615 546 618 546 624 c 2
 549 646 l 1
 551 648 l 1
 551 648 666 646 702 646 c 0
 741 646 788 648 788 648 c 1
 790 646 l 1
 788 624 l 2
 788 617 782 615 778 614 c 2
 764 612 l 2
 717 606 672.7 588.2 629.5 552 c 2
 422 378 l 2
 399.8 359.4 399.3 350.5 414 331 c 2
 605 78 l 2
 625.2 51.2 642.7 38.7 659 34 c 2
 666 32 l 2
 679.5 28.1 685 26 685 22 c 2
 682 0 l 1
 678 -2 l 1
 678 -2 592 0 553 0 c 1
 494 -2 l 1
 492 0 l 1
 492 21 l 2
 492 40 468.1 70.4 450.3 97 c 2
 331 276 l 2
 323 287 315 294 301 294 c 1
 263 77 l 2
 258 46 288 37 312 34 c 2
 326 32 l 2
 331 31 333 29 333 23 c 2
 330 0 l 1
 328 -2 l 1
 328 -2 227 0 191 0 c 0
 152 0 55 -2 55 -2 c 1
 53 0 l 1
 55 23 l 2
 56 29 61 31 65 32 c 2
 79 34 l 2
 116 39 134 45 140 77 c 2
 227 570 l 2
 233 604 217 607 181 612 c 2
 167 614 l 2
 163 615 160 617 160 622 c 2
 163 646 l 1
 165 647 l 1
 165 647 262 646 301 646 c 0
 336 646 438 647 438 647 c 1
 440 646 l 1
 438 622 l 2
 437 617 433 615 428 614 c 2
 414 612 l 2
 374 606 355 597 350 570 c 2
 314 368 l 1
 322 368 331 371 348 385 c 2
 578 574 l 2
EndSplineSet
EndChar

StartChar: L
Encoding: 76 76 44
Width: 575
GlyphClass: 2
Flags: MW
AnchorPoint: "below" 260 -110 basechar 0
AnchorPoint: "cedilla" 260 1 basechar 0
AnchorPoint: "middle" 286 315 basechar 0
AnchorPoint: "above" 149 850 basechar 0
AnchorPoint: "right" 469 732 basechar 0
LayerCount: 2
Fore
SplineSet
236 569 m 2
 237 573 237 578 237 582 c 0
 237 604 223 613 189 613 c 2
 175 613 l 2
 170 613 168 616 168 621 c 2
 172 645 l 1
 174 646 l 1
 174 646 271 645 311 645 c 0
 346 645 447 646 447 646 c 1
 449 645 l 1
 445 621 l 2
 444 616 440 613 436 613 c 2
 421 613 l 2
 380 613 364 597 359 569 c 2
 275 92 l 2
 274 86 273 81 273 75 c 0
 273 57 280 46 292 46 c 2
 402 46 l 2
 453 46 500 102 529 175 c 1
 575 167 l 1
 525 0 l 1
 274 0 l 1
 197 1 l 2
 185 1 57 -1 57 -1 c 1
 49 8 l 1
 51 23 l 2
 53 31 67 35 83 35 c 2
 113 35 l 2
 137 35 144 43 149 75 c 2
 236 569 l 2
EndSplineSet
EndChar

StartChar: M
Encoding: 77 77 45
Width: 837
GlyphClass: 2
Flags: MW
AnchorPoint: "below" 393 -110 basechar 0
AnchorPoint: "cedilla" 107 2 basechar 0
AnchorPoint: "middle" 426 445 basechar 0
AnchorPoint: "above" 431 850 basechar 0
LayerCount: 2
Fore
SplineSet
644 89 m 2
 676 446 l 1
 591 300 420 7 420 7 c 2
 414 -3 404 -12 387 -12 c 0
 379 -12 364 -6 361 7 c 2
 361 7 297 266 255 437 c 1
 227 320 198 205 168 88 c 0
 167 84 167 80 166 77 c 0
 164 66 163 58 163 51 c 0
 163 41 166 35 171 35 c 2
 197 35 l 2
 211 35 228 31 226 23 c 2
 224 9 l 1
 216 -1 l 1
 216 -1 146 1 108 1 c 0
 73 1 21 -1 21 -1 c 1
 15 8 l 1
 17 23 l 2
 19 31 30 35 51 35 c 2
 77 35 l 2
 90 35 99 65 106 89 c 0
 145 244 188 417 227 572 c 0
 227 573 228 574 228 576 c 2
 229 581 l 2
 230 586 230 590 230 594 c 0
 230 606 226 611 218 611 c 2
 188 611 l 1
 167 612 160 617 160 622 c 1
 163 636 l 1
 175 647 l 1
 335 647 l 1
 453 168 l 1
 543 325 642 493 732 647 c 1
 881 647 l 1
 884 637 l 1
 882 622 l 1
 879 612 857 611 848 611 c 2
 821 611 l 2
 810 611 802 602 799 582 c 2
 797 572 l 1
 755 90 l 2
 754 82 753 73 753 65 c 0
 753 47 756 35 767 35 c 2
 792 35 l 2
 815 35 825 31 823 23 c 2
 821 8 l 1
 809 -1 l 1
 809 -1 730 1 691 1 c 0
 656 1 570 -1 570 -1 c 1
 562 8 l 1
 564 23 l 2
 566 32 582 35 598 35 c 2
 624 35 l 2
 633 35 639 57 643 77 c 0
 643 81 644 85 644 89 c 2
EndSplineSet
EndChar

StartChar: N
Encoding: 78 78 46
Width: 742
GlyphClass: 2
Flags: MW
AnchorPoint: "below" 348 -110 basechar 0
AnchorPoint: "cedilla" 125 -4 basechar 0
AnchorPoint: "middle" 356 320 basechar 0
AnchorPoint: "above" 346 850 basechar 0
LayerCount: 2
Fore
SplineSet
223 547 m 1
 213 573 195.5 604.2 148 611 c 2
 134 613 l 2
 130 613.6 124.5 615.9 124 622 c 2
 122 645 l 1
 124 647 l 1
 124 647 278 646 317 646 c 1
 617 171 l 1
 619 171 l 1
 690 569 l 2
 696.1 603 679.5 605.9 644 611 c 2
 630 613 l 2
 626 613.6 623 616 623 621 c 2
 626 645 l 1
 628 646 l 1
 628 646 692 645 731 645 c 0
 766 645 850 646 850 646 c 1
 852 645 l 1
 850 621 l 2
 849 616 845 613.7 840 613 c 2
 826 611 l 2
 786.3 605.3 766.8 596.4 762 569 c 2
 667 25 l 2
 663.2 3 646 -12 617 -12 c 0
 586 -12 573 4 566 15 c 2
 303 443 l 2
 300 448 292.5 459.5 287 459.5 c 0
 281 459.5 277.6 446.9 276 438 c 2
 212 77 l 2
 206.6 46.3 237.3 37.4 261 34 c 2
 275 32 l 2
 280 31.3 282 29 282 23 c 2
 279 0 l 1
 277 -2 l 1
 277 -2 191 0 155 0 c 0
 116 0 55 -2 55 -2 c 1
 53 0 l 1
 55 23 l 2
 55.5 29.1 61 31.4 65 32 c 2
 79 34 l 2
 116.4 39.3 134.3 44.9 140 77 c 2
 223 547 l 1
EndSplineSet
EndChar

StartChar: O
Encoding: 79 79 47
Width: 734
GlyphClass: 2
Flags: MW
AnchorPoint: "below" 350 -110 basechar 0
AnchorPoint: "cedilla" 350 0 basechar 0
AnchorPoint: "middle" 346 322 basechar 0
AnchorPoint: "above" 335 850 basechar 0
AnchorPoint: "komb_OR" 620 606 basechar 0
LayerCount: 2
Fore
SplineSet
473 617 m 0
 328 617 232 414 232 245 c 0
 232 107 303 29 402 29 c 0
 544 29 639 227 639 402 c 0
 639 544 567 617 473 617 c 0
375 -12 m 0
 213 -12 97 86 97 247 c 0
 97 442 260 658 493 658 c 0
 650 658 773 555 773 391 c 0
 773 193 619 -12 375 -12 c 0
EndSplineSet
EndChar

StartChar: P
Encoding: 80 80 48
Width: 522
GlyphClass: 2
Flags: MW
AnchorPoint: "below" 240 -110 basechar 0
AnchorPoint: "cedilla" 150 -3 basechar 0
AnchorPoint: "middle" 286 464 basechar 0
AnchorPoint: "above" 316 850 basechar 0
AnchorPoint: "right" 509 732 basechar 0
LayerCount: 2
Fore
SplineSet
319 604 m 1
 269 322 l 1
 283 320 302 319 316 319 c 0
 395 319 449 363 467 467 c 0
 488 589 433 613 377 613 c 0
 366 613 339 609 319 604 c 1
108 77 m 2
 195 572 l 2
 202 607 191 618 171 618 c 2
 140 618 l 2
 133 618 130 622 131 626 c 2
 134 645 l 1
 139 646 l 1
 196 646 315 654 392 654 c 0
 585 654 602 544 592 484 c 0
 577 399 503 279 314 279 c 0
 291 279 275 280 262 282 c 1
 225 77 l 2
 221 50 231 33 270 33 c 2
 284 33 l 2
 289 33 291 30 290 24 c 2
 286 1 l 1
 284 -1 l 1
 284 -1 187 1 152 1 c 0
 115 1 22 -1 22 -1 c 1
 21 1 l 1
 25 24 l 2
 26 30 30 33 34 33 c 2
 48 33 l 2
 86 33 103 45 108 77 c 2
EndSplineSet
EndChar

StartChar: Q
Encoding: 81 81 49
Width: 734
GlyphClass: 2
Flags: MW
AnchorPoint: "middle" 336 324 basechar 0
AnchorPoint: "above" 348 850 basechar 0
AnchorPoint: "komb_OR" 620 606 basechar 0
AnchorPoint: "right" 619 732 basechar 0
LayerCount: 2
Fore
SplineSet
473 617 m 0
 328 617 232 414 232 245 c 0
 232 107 303 29 402 29 c 0
 544 29 639 227 639 402 c 0
 639 544 567 617 473 617 c 0
133.7 -130 m 0
 177.9 -86.4 242.9 -38.4 310.2 -6.4 c 1
 183 16.5 97 108.4 97 247 c 0
 97 442 260 658 493 658 c 0
 650 658 773 555 773 391 c 0
 773 196.9 625 -4 389.2 -11.8 c 1
 358.5 -23.1 318.3 -42.5 275.9 -70.4 c 1
 279.4 -70.1 282.8 -70 286 -70 c 0
 396 -70 462 -152 550 -152 c 0
 579 -152 617 -142 644 -115 c 1
 657 -137 l 1
 608 -193 561 -219 498 -219 c 0
 368 -219 322 -124 229 -124 c 0
 221.1 -124 206.4 -127.6 190.1 -137.6 c 1
 175 -151.6 160.2 -166.8 146 -183 c 1
 112 -153 l 1
 118.3 -144.7 125.6 -137.1 133.7 -130 c 0
EndSplineSet
EndChar

StartChar: R
Encoding: 82 82 50
Width: 584
GlyphClass: 2
Flags: MW
AnchorPoint: "below" 258 -110 basechar 0
AnchorPoint: "cedilla" 148 -1 basechar 0
AnchorPoint: "middle" 278 468 basechar 0
AnchorPoint: "above" 269 850 basechar 0
AnchorPoint: "right" 519 732 basechar 0
LayerCount: 2
Fore
SplineSet
478 468 m 0
 495 567 455 613 398 613 c 0
 363 613 342 610 318 605 c 1
 268 322 l 1
 316 322 l 2
 409 322 460 368 478 468 c 0
595 482 m 0
 577 381 528 332 453 294 c 1
 517 98 l 1
 530 54 557 35 596 40 c 1
 594 5 l 1
 564 -4 527 -6 513 -6 c 0
 456 -6 420 32 403 79 c 2
 346 247 l 2
 337 272 310 276 260 276 c 1
 225 77 l 2
 220 46 232 33 270 33 c 2
 284 33 l 2
 288 33 291 30 290 24 c 2
 286 1 l 1
 284 -1 l 1
 284 -1 213 1 175 1 c 0
 141 1 22 -1 22 -1 c 1
 21 1 l 1
 25 24 l 2
 26 30 29 33 34 33 c 2
 48 33 l 2
 87 33 103 49 108 77 c 2
 193 559 l 2
 198 587 197 604 172 604 c 0
 169 604 168 604.1 166 604 c 2
 136 602 l 2
 131 602 129 605 130 609 c 2
 136 642 l 1
 157 647 288 654 400 654 c 0
 515 654 617 604 595 482 c 0
EndSplineSet
EndChar

StartChar: S
Encoding: 83 83 51
Width: 454
GlyphClass: 2
Flags: MW
AnchorPoint: "below" 234 -110 basechar 0
AnchorPoint: "cedilla" 223.5 2 basechar 0
AnchorPoint: "middle" 236.1 345 basechar 0
AnchorPoint: "above" 231.9 850 basechar 0
AnchorPoint: "right" 480.8 732 basechar 0
LayerCount: 2
Fore
SplineSet
477 631 m 1
 472 578 471 528 471 479 c 1
 431 474 l 1
 426 540 408 619 326 619 c 0
 263 619 232 573 222 517 c 0
 211 453 278 403 315 388 c 0
 391 358 476 305 455 184 c 0
 432 51 338 -10 229 -10 c 0
 135 -10 118 5 95 5 c 0
 76 5 67 0 50 0 c 1
 57 51 59 99 63 175 c 1
 102 178 l 1
 105 87 152 31 216 31 c 0
 289 31 332 71 346 145 c 0
 356 203 336 254 282 278 c 0
 217 306 105 368 125 485 c 0
 146 605 252 658 334 658 c 0
 424 658 426 639 477 631 c 1
EndSplineSet
EndChar

StartChar: T
Encoding: 84 84 52
Width: 572
GlyphClass: 2
Flags: MW
AnchorPoint: "below" 300 -110 basechar 0
AnchorPoint: "cedilla" 308 10 basechar 0
AnchorPoint: "middle" 307 285 basechar 0
AnchorPoint: "above" 307 850 basechar 0
AnchorPoint: "right" 619 732 basechar 0
LayerCount: 2
Fore
SplineSet
197 646 m 2
 603 646 l 2
 624 646 627 663 629 669 c 1
 664 673 l 1
 659 624 657 572 658 519 c 1
 618 514 l 1
 613 594 602 599 549 599 c 2
 497 599 l 2
 463 599 449 590 444 557 c 2
 359 77 l 2
 354 46 366 33 404 33 c 2
 429 33 l 2
 433 33 436 30 435 24 c 2
 431 1 l 1
 429 -1 l 1
 429 -1 315 1 277 1 c 0
 243 1 145 -1 145 -1 c 1
 143 1 l 1
 147 24 l 2
 148 30 152 33 156 33 c 2
 181 33 l 2
 221 33 237 49 242 77 c 2
 327 560 l 2
 332 590 322 599 287 599 c 2
 236 599 l 2
 183 599 169 594 136 514 c 1
 99 519 l 1
 119 572 135 624 147 673 c 1
 181 669 l 1
 180 663 177 646 197 646 c 2
EndSplineSet
EndChar

StartChar: U
Encoding: 85 85 53
Width: 683
GlyphClass: 2
Flags: MW
AnchorPoint: "below" 328 -110 basechar 0
AnchorPoint: "cedilla" 328 4 basechar 0
AnchorPoint: "middle" 336 321 basechar 0
AnchorPoint: "above" 346 850 basechar 0
LayerCount: 2
Fore
SplineSet
638 569 m 2
 639 573 640 578 640 582 c 0
 640 604 625 613 591 613 c 2
 577 613 l 2
 573 613 570 616 570 621 c 1
 575 645 l 1
 577 646 l 1
 577 646 652 645 691 645 c 0
 727 645 805 646 805 646 c 1
 807 645 l 1
 803 621 l 2
 802 616 798 613 793 613 c 2
 779 613 l 2
 738 613 722 597 717 569 c 2
 668 293 l 2
 637 115 571 -12 350 -12 c 0
 263 -12 137 21 137 175 c 0
 137 193 139 213 143 235 c 2
 201 569 l 2
 202 573 203 578 203 582 c 0
 203 604 188 613 154 613 c 2
 140 613 l 2
 136 613 133 615 133 621 c 1
 138 645 l 1
 140 646 l 1
 140 646 237 645 276 645 c 0
 312 645 413 646 413 646 c 1
 415 645 l 1
 410 621 l 2
 409 616 406 613 401 613 c 2
 387 613 l 2
 346 613 329 597 324 569 c 2
 271 268 l 2
 266 236 260 203 260 171 c 0
 260 63 344 36 379 36 c 0
 526 36 568 168 587 276 c 2
 638 569 l 2
EndSplineSet
EndChar

StartChar: V
Encoding: 86 86 54
Width: 610
GlyphClass: 2
Flags: MW
AnchorPoint: "below" 318 -110 basechar 0
AnchorPoint: "cedilla" 318 3 basechar 0
AnchorPoint: "middle" 334 474 basechar 0
AnchorPoint: "above" 336 850 basechar 0
AnchorPoint: "right" 679 732 basechar 0
LayerCount: 2
Fore
SplineSet
518 613 m 0
 514 613 511 616 512 621 c 2
 516 645 l 1
 518 646 l 1
 518 646 601 645 639 645 c 0
 673 645 724 646 724 646 c 1
 725 645 l 1
 721 621 l 2
 720 616 717 613 712 613 c 0
 658 613 650 602 621 549 c 2
 333 11 l 2
 325 -4 306 -12 296 -12 c 0
 286 -12 271 -4 269 11 c 2
 182 554 l 2
 174 600 165 613 116 613 c 0
 112 613 109 616 109 621 c 1
 114 645 l 1
 116 646 l 1
 116 646 209 645 246 645 c 0
 281 645 385 646 385 646 c 1
 386 645 l 1
 382 621 l 2
 381 616 378 613 373 613 c 0
 318.8 613 297.3 604.9 297.3 580.5 c 0
 297.3 577.9 297.5 575 298 572 c 2
 355 216 l 1
 360 185 l 1
 376 213 l 1
 563 562 l 2
 570.9 576.4 575.3 586.9 575.3 594.5 c 0
 575.3 609.1 558.8 613 518 613 c 0
EndSplineSet
EndChar

StartChar: W
Encoding: 87 87 55
Width: 957
GlyphClass: 2
Flags: MW
AnchorPoint: "below" 479 -110 basechar 0
AnchorPoint: "cedilla" 295 0 basechar 0
AnchorPoint: "above" 450 850 basechar 0
AnchorPoint: "right" 979 732 basechar 0
LayerCount: 2
Fore
SplineSet
297 -12 m 0
 266 -12 255 5 250 35 c 2
 176 562 l 2
 172 587 159 613 132 613 c 2
 120 613 l 2
 113 613 109 616 109 621 c 1
 114 644 l 1
 116 646 l 1
 116 646 186 645 222 645 c 0
 271 645 358 646 358 646 c 1
 360 644 l 1
 356 622 l 2
 355 616 351 613 346 613 c 0
 309 613 291 609 297 572 c 2
 347 218 l 1
 356 146 l 1
 390 216 l 1
 501 442 l 2
 507 454 512 467 515 480 c 1
 516 489 517 498 515 508 c 2
 506 572 l 2
 503 599 488 613 451 613 c 2
 448 613 l 2
 441 613 437 616 438 621 c 2
 442 644 l 1
 444 646 l 1
 444 646 498 645 536 645 c 0
 583 645 700 646 700 646 c 1
 701 644 l 1
 697 620 l 2
 696 615 691 613 688 613 c 0
 653 613 620 611 629 554 c 1
 677 207 l 1
 685 139 l 1
 723 215 l 1
 899 569 l 2
 917 605 897 613 851 613 c 0
 847 613 844 617 845 620 c 2
 849 644 l 1
 852 646 l 1
 852 646 930 645 970 645 c 0
 1001 645 1051 646 1051 646 c 1
 1053 645 l 1
 1048 621 l 2
 1047 613 1036 613 1035 613 c 2
 1025 613 l 2
 987 613 975 601 954 560 c 2
 699 44 l 2
 679 4 661 -12 634 -12 c 0
 594 -12 585 7 581 39 c 2
 534 367 l 2
 533 376 533 380 531 380 c 0
 530 380 527 375 525 370 c 2
 359 33 l 2
 345 4 321 -12 297 -12 c 0
EndSplineSet
EndChar

StartChar: X
Encoding: 88 88 56
Width: 679
GlyphClass: 2
Flags: MW
AnchorPoint: "below" 307 -110 basechar 0
AnchorPoint: "cedilla" 102 0 basechar 0
AnchorPoint: "middle" 326 325 basechar 0
AnchorPoint: "above" 332 850 basechar 0
AnchorPoint: "right" 689 732 basechar 0
LayerCount: 2
Fore
SplineSet
132 620 m 2
 137 645 l 1
 142 646 l 1
 167 646 228 645 238 645 c 0
 243 645 363 646 393 646 c 1
 393 646 396 645 397 645 c 2
 392 620 l 2
 392 615 389 613 386 613 c 0
 337 613 330 603 344 572 c 2
 418 414 l 1
 428 396 430 397 445 412 c 0
 492 461 552 524 587 572 c 1
 612 609 580 613 558 613 c 0
 555 613 552 615 553 620 c 2
 557 645 l 1
 559 646 l 1
 580 646 664 645 674 645 c 0
 679 645 751 646 769 646 c 1
 770 645 l 1
 766 620 l 2
 765 617 765 613 756 613 c 0
 707 613 673 586 640 552 c 2
 472 383 l 2
 451 362 451 358 475 312 c 2
 585 102 l 2
 605 63 633 33 675 33 c 0
 680 33 681 29 680 25 c 2
 676 1 l 1
 675 -1 l 1
 648 0 585 1 573 1 c 0
 567 1 413 -1 413 -1 c 1
 411 1 l 1
 415 26 l 2
 416 30 419 33 422 33 c 0
 480 33 479 38 461 73 c 2
 374 246 l 1
 360 277 357 277 340 258 c 0
 288 201 234 136 189 77 c 0
 158 35 193 33 215 33 c 0
 219 33 220 29 219 25 c 2
 215 1 l 1
 212 -1 l 1
 212 -1 100 1 86 1 c 0
 82 1 5 -1 5 -1 c 1
 5 1 l 1
 9 26 l 2
 10 31 15 33 21 33 c 0
 78 33 107 65 144 104 c 2
 317 291 l 1
 337 311 337 316 323 344 c 2
 221 549 l 2
 193 605 158 613 142 613 c 0
 135 613 131 615 132 620 c 2
EndSplineSet
EndChar

StartChar: Y
Encoding: 89 89 57
Width: 592
GlyphClass: 2
Flags: MW
AnchorPoint: "below" 295 -110 basechar 0
AnchorPoint: "cedilla" 293 1 basechar 0
AnchorPoint: "above" 295 850 basechar 0
LayerCount: 2
Fore
SplineSet
257 72 m 2
 293 281 l 1
 191 553 l 1
 168 610 156 613 130 613 c 2
 119 613 l 2
 113 613 108 615 109 620 c 2
 114 645 l 1
 116 646 l 1
 116 646 225 645 238 645 c 0
 243 645 347 646 347 646 c 1
 349 645 l 1
 345 621 l 2
 344 617 341 613 337 613 c 0
 288 613 277 609 291 576 c 1
 381 334 l 1
 547 576 l 2
 561 596 547 613 512 613 c 0
 507 613 507 617 508 620 c 2
 512 645 l 1
 514 646 l 1
 514 646 590 645 601 645 c 0
 610 645 704 646 704 646 c 1
 706 645 l 1
 702 621 l 2
 701 615 697 613 691 613 c 2
 671 613 l 2
 642 613 627 606 605 574 c 2
 413 293 l 1
 374 72 l 2
 368 41 382 33 420 33 c 2
 445 33 l 2
 449 33 453 30 452 24 c 2
 448 1 l 1
 445 -1 l 1
 445 -1 341 1 304 1 c 0
 269 1 160 -1 160 -1 c 1
 160 1 l 1
 164 24 l 2
 165 30 167 33 172 33 c 2
 198 33 l 2
 237 33 252 44 257 72 c 2
EndSplineSet
EndChar

StartChar: Z
Encoding: 90 90 58
Width: 598
GlyphClass: 2
Flags: MW
AnchorPoint: "below" 287 -110 basechar 0
AnchorPoint: "cedilla" 287 4 basechar 0
AnchorPoint: "middle" 305 321 basechar 0
AnchorPoint: "above" 320 850 basechar 0
AnchorPoint: "right" 619 732 basechar 0
LayerCount: 2
Fore
SplineSet
549 0 m 1
 37 0 l 2
 24 0 20 5 21 15 c 1
 23 22 26 30 33 38 c 2
 502 579 l 2
 510 589 521 602 504 602 c 2
 298 602 l 2
 226 602 200 555 167 486 c 1
 130 491 l 1
 145 532 168 604 181 658 c 1
 216 655 211 646 257 646 c 2
 599 646 l 1
 630 649 648 650 660 650 c 0
 679 650 681 647 680 640 c 0
 678 629 672 619 648 591 c 2
 198 72 l 2
 182 53 178 44 208 44 c 2
 422 44 l 2
 495 44 532 98 564 170 c 1
 603 165 l 1
 583 113 562 56 549 0 c 1
EndSplineSet
EndChar

StartChar: bracketleft
Encoding: 91 91 59
Width: 375
GlyphClass: 2
Flags: MW
LayerCount: 2
Fore
SplineSet
484 689 m 1
 474 638 l 1
 329 638 l 1
 169 -147 l 1
 314 -147 l 1
 304 -198 l 1
 48 -198 l 1
 228 689 l 1
 484 689 l 1
EndSplineSet
EndChar

StartChar: backslash
Encoding: 92 92 60
Width: 318
GlyphClass: 2
Flags: MW
LayerCount: 2
Fore
SplineSet
229 698 m 1
 306 -48 l 1
 231 -48 l 1
 153 698 l 1
 229 698 l 1
EndSplineSet
EndChar

StartChar: bracketright
Encoding: 93 93 61
Width: 375
GlyphClass: 2
Flags: MW
LayerCount: 2
Fore
SplineSet
-9 -200 m 1
 1 -149 l 1
 146 -149 l 1
 306 636 l 1
 161 636 l 1
 171 687 l 1
 427 687 l 1
 247 -200 l 1
 -9 -200 l 1
EndSplineSet
EndChar

StartChar: asciicircum
Encoding: 94 94 62
Width: 542
GlyphClass: 2
Flags: MW
LayerCount: 2
Fore
SplineSet
381 541 m 1
 259 343 l 1
 178 343 l 1
 369 650 l 1
 439 650 l 1
 504 343 l 1
 423 343 l 1
 381 541 l 1
EndSplineSet
EndChar

StartChar: underscore
Encoding: 95 95 63
Width: 511
GlyphClass: 2
Flags: MW
LayerCount: 2
Fore
SplineSet
493 -102 m 1
 482 -153 l 1
 -33 -153 l 1
 -22 -102 l 1
 493 -102 l 1
EndSplineSet
EndChar

StartChar: grave
Encoding: 96 96 64
Width: 392
GlyphClass: 2
Flags: MW
LayerCount: 2
Fore
SplineSet
323 691 m 1
 369 572 l 2
 372 563 373 558 373 555 c 0
 373 554 372 550 372 546 c 1
 370 540 352 532 334 532 c 0
 315 532 306 538 292 553 c 2
 195 665 l 1
 197 671 l 1
 199 672 202 674 214 680 c 1
 212 680 l 1
 224 687 246 701 287 701 c 0
 297 701 312 698 323 691 c 1
EndSplineSet
EndChar

StartChar: a
Encoding: 97 97 65
Width: 540
GlyphClass: 2
Flags: MW
AnchorPoint: "below" 196 -110 basechar 0
AnchorPoint: "cedilla" 167 -3 basechar 0
AnchorPoint: "ogonek" 410 16 basechar 0
AnchorPoint: "above" 379 645 basechar 0
LayerCount: 2
Fore
SplineSet
373 195 m 0
 393 248 404 315 404 331 c 0
 404 370 386 405 357 405 c 0
 277 405 200 254 200 151 c 0
 200 97 206 40 250 40 c 0
 278 40 340 112 373 195 c 0
340 39 m 0
 340 43 340 52.3 341 58 c 1
 339 59 l 1
 277 0 255.5 -10 216 -10 c 0
 111.5 -10 78 76 78 132 c 0
 78 289 239 444 354 444 c 0
 406 444 428 422 438 392 c 1
 461.1 408 479.2 425.6 495 444 c 1
 550 447 l 2
 551.8 447 552 445.8 552 443.8 c 2
 552 443.8 529.7 359.9 520.3 321 c 2
 473 125 l 2
 468.4 105.9 466 92 466 83 c 0
 466 71 470 67 475 67 c 0
 486 67 503.5 79.5 532 105 c 1
 557 82 l 1
 486 12 454 -10 402 -10 c 0
 351 -10 340 21 340 39 c 0
EndSplineSet
EndChar

StartChar: b
Encoding: 98 98 66
Width: 517
GlyphClass: 2
Flags: MW
AnchorPoint: "below" 234 -110 basechar 0
AnchorPoint: "middle" 236 215 basechar 0
AnchorPoint: "right" 420 580 basechar 0
LayerCount: 2
Fore
SplineSet
420 286 m 0
 420 343 399 393 360 393 c 0
 343 393 314 391 267 358 c 1
 196 50 l 1
 209 30 226 25 243 25 c 0
 359 25 420 197 420 286 c 0
320 583 m 2
 281 417 l 1
 312 433 353 444 391 444 c 0
 490 444 542 371 542 296 c 0
 542 223 490 90 354 15 c 0
 325 -1 286 -10 242 -10 c 0
 201 -10 172 2 140 35 c 1
 127.5 16.5 106 -9 96 -17 c 1
 64 -3 l 1
 71 17 75.7 34.1 85 74 c 2
 197 557 l 2
 202 578.8 204 596 204 607 c 0
 204 629 196 635 183 635 c 2
 152 637 l 2
 148 637 147 639 147 642 c 2
 151 672 l 1
 192 675 306 688 333 698 c 1
 342 698 345 695 345 688 c 1
 345 688 335.2 647.5 320 583 c 2
EndSplineSet
EndChar

StartChar: c
Encoding: 99 99 67
Width: 444
GlyphClass: 2
Flags: MW
AnchorPoint: "below" 236 -110 basechar 0
AnchorPoint: "cedilla" 242 -2 basechar 0
AnchorPoint: "ogonek" 361 42 basechar 0
AnchorPoint: "middle" 236 215 basechar 0
AnchorPoint: "above" 242 645 basechar 0
LayerCount: 2
Fore
SplineSet
238 -10 m 0
 138 -10 72 88 72 152 c 0
 72 318 212 444 337 444 c 0
 447 444 483 387 483 337 c 0
 483 300 436 287 421 287 c 0
 377 287 367 306 367 323 c 0
 367 342 371 340 371 370 c 0
 371 399 348 405 340 405 c 0
 274 405 196 318 196 173 c 0
 196 59 243 41 269 41 c 0
 292 41 352 70 392 116 c 1
 432 82 l 1
 384 33 330 -10 238 -10 c 0
EndSplineSet
EndChar

StartChar: d
Encoding: 100 100 68
Width: 556
GlyphClass: 2
Flags: MW
AnchorPoint: "below" 221 -110 basechar 0
AnchorPoint: "ogonek" 312 20 basechar 0
AnchorPoint: "middle" 236 215 basechar 0
AnchorPoint: "above" 218 645 basechar 0
AnchorPoint: "komb_OR" 500 466 basechar 0
AnchorPoint: "right" 490 580 basechar 0
LayerCount: 2
Fore
SplineSet
402 332 m 0
 402 372 382 405 353 405 c 0
 262 405 193 271 193 154 c 0
 193 101 197 39 250 39 c 0
 273 39 336 107 367 180 c 1
 387 233 402 317 402 332 c 0
577 583 m 2
 470 125 l 2
 465.5 105.9 463 92 463 83 c 0
 463 71 467 67 472 67 c 0
 483 67 501 82 523 109 c 1
 554 82 l 1
 492 19 444 -10 392 -10 c 0
 341 -10 337 21 337 39 c 0
 337 43 338 55 339 60 c 1
 337 61 l 1
 284.5 2 242.3 -10 215 -10 c 0
 80 -10 70 97 70 144 c 0
 70 316 243 444 350 444 c 0
 376 444 404 437 425 425 c 1
 436 475 454 557 454 557 c 2
 458.8 578.8 461 596 461 607 c 0
 461 629 453 635 440 635 c 2
 409 637 l 2
 405 637 404 639 404 642 c 2
 408 672 l 1
 449 675 563 688 590 698 c 1
 599 698 602 695 602 688 c 1
 602 688 592.1 647.6 577 583 c 2
EndSplineSet
EndChar

StartChar: e
Encoding: 101 101 69
Width: 474
GlyphClass: 2
Flags: MW
AnchorPoint: "below" 234.2 -110 basechar 0
AnchorPoint: "cedilla" 241 -3 basechar 0
AnchorPoint: "ogonek" 384.3 41 basechar 0
AnchorPoint: "middle" 236 215 basechar 0
AnchorPoint: "above" 242.6 645 basechar 0
AnchorPoint: "komb_OR" 420 396 basechar 0
LayerCount: 2
Fore
SplineSet
364 365 m 0
 364 390 348 400 325 400 c 0
 286 400 245 364 210 224 c 1
 284 236 364 268 364 365 c 0
475 369 m 0
 475 332 465 224 205 186 c 1
 197 93 248 66 277 66 c 0
 313 66 368 75 428 139 c 1
 442 139 456 126 454 110 c 1
 397 31 316 -10 225 -10 c 0
 109 -10 79 78 79 165 c 0
 79 278 175 444 358 444 c 0
 454 444 475 405 475 369 c 0
EndSplineSet
EndChar

StartChar: f
Encoding: 102 102 70
Width: 370
GlyphClass: 2
Flags: MW
AnchorPoint: "below" 132 -110 basechar 0
AnchorPoint: "middle" 136 215 basechar 0
AnchorPoint: "right" 410 750 basechar 0
LayerCount: 2
Fore
SplineSet
177 387 m 1
 129 387 l 2
 111 387 103 389 103 394 c 1
 103 394 106 407 107 412 c 0
 109 420 122 434 155 434 c 2
 186 434 l 1
 241 682 366 698 413 698 c 0
 499 698 531 667 531 622 c 0
 531 597 516 582 484 582 c 0
 456 582 424 607 422 634 c 0
 421 651 416 662 405 662 c 0
 370 662 341.7 609.3 314 490 c 2
 314 490 306 455 301 434 c 1
 388 434 l 2
 407 434 416 431 416 425 c 1
 411 403 l 2
 408 392 381 387 363 387 c 2
 290 387 l 1
 272.9 318.4 217.3 -27.5 119 -171 c 0
 91 -211 49 -238 0 -238 c 0
 -71 -238 -93 -202 -93 -185 c 0
 -93 -170 -82 -149 -49 -149 c 0
 12 -149 12 -191 26 -191 c 0
 79 -191 104 -66 121 78 c 0
 130 149 147.9 251.8 154 280 c 2
 177 387 l 1
EndSplineSet
EndChar

StartChar: g
Encoding: 103 103 71
Width: 477
GlyphClass: 2
Flags: MW
AnchorPoint: "top_punkt" 310 560 basechar 0
AnchorPoint: "below" 199 -319 basechar 0
AnchorPoint: "middle" 267 284 basechar 0
AnchorPoint: "above" 291 645 basechar 0
AnchorPoint: "right" 552 580 basechar 0
LayerCount: 2
Fore
SplineSet
161 -23 m 1
 136 -41 94 -65 94 -113 c 0
 94 -168 128 -195 240 -195 c 0
 328 -195 352 -165 352 -127 c 0
 352 -92 338 -80 282 -54 c 0
 249 -39 179 -27 161 -23 c 1
435 291 m 0
 435 198 343 132 263 132 c 0
 235 132 195 135 179 145 c 1
 150 90.2 235.4 69.4 325 44 c 0
 406 21 447 -35 447 -100 c 0
 447 -199 336 -238 199 -238 c 0
 118 -238 7 -217 7 -136 c 0
 7 -76 89 -31 142 -2 c 1
 100 12 86 38 86 56 c 0
 86 87 111 124 154 161 c 1
 112 183 104 239 104 283 c 0
 104 363 182 439 280 439 c 0
 324.3 439 376 427 398 401 c 1
 433 433 457.7 445.5 485.5 445.5 c 0
 517.6 445.5 532.5 424.1 532.5 404.8 c 0
 532.5 384.4 513.3 369.5 494 369.5 c 0
 476.7 369.5 472 381 467 389 c 0
 464 394 461 399 452 399 c 0
 445 399 430 392 415 378 c 1
 429 359 435 318 435 291 c 0
321 291 m 0
 321 359 322 399 279 399 c 0
 242 399 218 346 218 282 c 0
 218 234 217 172 264 172 c 0
 296.2 172 321 229 321 291 c 0
EndSplineSet
EndChar

StartChar: h
Encoding: 104 104 72
Width: 600
GlyphClass: 2
Flags: MW
AnchorPoint: "below" 259 -110 basechar 0
AnchorPoint: "ogonek" 423 10 basechar 0
AnchorPoint: "middle" 324 215 basechar 0
AnchorPoint: "above" 469 645 basechar 0
AnchorPoint: "right" 539 580 basechar 0
LayerCount: 2
Fore
SplineSet
95.8 72 m 2
 207.8 563 l 2
 223 629.5 219.5 638 156.4 638 c 1
 153.4 647 155.3 660 161 672 c 1
 232 683.5 298.2 693.9 344.7 698 c 0
 353.7 698 359.9 694 357.9 685 c 2
 357.9 685 347.4 648.4 332.2 583 c 2
 269.5 312.2 l 1
 355.2 410.4 408.8 439 504 439 c 0
 565 439 557 353.5 540 283 c 2
 504 134 l 2
 500.3 118.8 494.7 97.4 494.7 82.7 c 0
 494.7 72.8 497.3 66 505 66 c 0
 515 66 543.5 80.5 568 100 c 1
 582 100 591.5 88 594 74 c 1
 527.5 19 478.5 -10 416 -10 c 0
 382 -10 371.1 13.3 371.1 46.2 c 0
 371.1 69.3 376.5 97.1 383 125 c 2
 418 275 l 2
 429.4 324 445 374 406 374 c 0
 384 374 332 335 283 262 c 0
 251.9 215.7 232.3 151 215.8 80.4 c 2
 213.9 72 l 2
 205.9 37.5 209.2 -10 140 -10 c 0
 88 -10 83.1 0.5 83.1 17.2 c 0
 83.1 27 91.2 51.9 95.8 72 c 2
EndSplineSet
EndChar

StartChar: k
Encoding: 107 107 75
Width: 570
GlyphClass: 2
Flags: MW
AnchorPoint: "below" 290.1 -214.4 basechar 0
AnchorPoint: "cedilla" 107.9 -57.3 basechar 0
AnchorPoint: "above" 305.9 783.5 basechar 0
AnchorPoint: "right" 535.6 696.4 basechar 0
LayerCount: 2
Fore
SplineSet
95.8 72 m 2
 207.8 563 l 2
 223 629.5 219.5 638 156.4 638 c 1
 153.4 647 155.3 660 161 672 c 1
 232 683.5 298.2 693.9 344.7 698 c 0
 353.7 698 359.9 694 357.9 685 c 2
 357.9 685 347.4 648.4 332.2 583 c 2
 260.7 274.1 l 1
 277 278.9 292.7 291.2 306 302.7 c 2
 346 337 l 1
 418 401 489 439 521 439 c 0
 569 439 596.3 417 596.3 395 c 0
 596.3 358.3 569 336 539 336 c 0
 505 336 509 364 483 364 c 0
 463 364 441 360 392 316 c 2
 340 270 l 1
 340 266 l 1
 373 257 389.3 233.4 405 202 c 0
 419 174 428 146 446 90 c 0
 453 68.2 462.9 62 482 62 c 0
 493 62 510 65 530 94 c 1
 541 94 553 85 560 77 c 1
 528 21 480 -10 429 -10 c 0
 388 -10 363 21 330.4 93 c 0
 310 138.2 299 189 281 221 c 0
 276 230 269 237.3 261.4 237.3 c 0
 258.2 237.3 255.2 237.2 252.1 236.9 c 1
 213.9 72 l 2
 205.9 37.5 209.2 -10 140 -10 c 0
 88 -10 83.1 0.5 83.1 17.2 c 0
 83.1 27 91.2 51.9 95.8 72 c 2
EndSplineSet
EndChar

StartChar: l
Encoding: 108 108 76
Width: 326
GlyphClass: 2
Flags: MW
AnchorPoint: "below" 135 -110 basechar 0
AnchorPoint: "cedilla" 131 10 basechar 0
AnchorPoint: "middle" 136 215 basechar 0
AnchorPoint: "above" 125 835 basechar 0
AnchorPoint: "right" 249 732 basechar 0
LayerCount: 2
Fore
SplineSet
207.8 563 m 2
 223.6 631.5 218.3 633 156.4 638 c 1
 153.4 647 155.3 660 161 672 c 1
 232.7 675 305 686 344.7 698 c 1
 353.7 698 359.9 694 357.9 685 c 2
 357.9 685 347.3 647.9 332.2 583 c 2
 228 134 l 2
 224.5 118.8 218.7 97.4 218.7 82.7 c 0
 218.7 72.8 221.3 66 229 66 c 0
 239.1 66 267.5 80.5 292 100 c 1
 306 100 315.5 88 318 74 c 1
 251.5 19 202.5 -10 140 -10 c 0
 106 -10 95.1 13.3 95.1 46.2 c 0
 95.1 69.3 100.6 97 107 125 c 2
 207.8 563 l 2
EndSplineSet
EndChar

StartChar: m
Encoding: 109 109 77
Width: 851
GlyphClass: 2
Flags: MW
AnchorPoint: "below" 400 -110 basechar 0
AnchorPoint: "cedilla" 137 9 basechar 0
AnchorPoint: "middle" 278 215 basechar 0
AnchorPoint: "above" 392 645 basechar 0
LayerCount: 2
Fore
SplineSet
425.3 322.1 m 0
 430.2 351.6 428.1 374 402 374 c 0
 380 374 338 335 289 262 c 0
 256.7 213.9 236.8 145.9 219.9 72 c 0
 212 37.5 215.2 -10 146 -10 c 0
 94 -10 89.1 0.5 89.1 17.2 c 0
 89.1 27 97 52 101.8 72 c 2
 158 321 l 2
 163.4 345.1 164 357.9 164 367 c 0
 164 377 161 386 149 387 c 2
 109 390 l 1
 103 399 101.3 415 108 423 c 1
 155 429 239 436 271 436 c 0
 284.2 436 291.5 428.6 291.5 414.9 c 0
 291.5 397.8 279.9 358.7 269.3 320.2 c 2
 264 301 l 1
 265 300 l 1
 357 408 401 439 500 439 c 0
 552.8 439 553.9 374.9 542.2 311.9 c 1
 627.4 410.3 671.7 439 767 439 c 0
 828 439 820 353.5 803 283 c 2
 767 134 l 2
 763.3 118.8 757.7 97.4 757.7 82.7 c 0
 757.7 72.8 760.3 66 768 66 c 0
 778 66 806.5 80.5 831 100 c 1
 845 100 854.5 88 857 74 c 1
 790.5 19 741.5 -10 679 -10 c 0
 645 -10 634.1 13.3 634.1 46.2 c 0
 634.1 69.3 639.5 97.1 646 125 c 2
 681 275 l 2
 692.4 324 708 374 669 374 c 0
 647 374 605 335 556 262 c 0
 523.7 213.9 503.8 145.9 486.9 72 c 0
 479 37.5 482.2 -10 413 -10 c 0
 361 -10 356.1 0.5 356.1 17.2 c 0
 356.1 27 364 52 368.8 72 c 2
 425 321 l 2
 425.1 321.4 425.2 321.8 425.3 322.1 c 0
EndSplineSet
EndChar

StartChar: n
Encoding: 110 110 78
Width: 606
GlyphClass: 2
Flags: MW
AnchorPoint: "below" 265 -110 basechar 0
AnchorPoint: "cedilla" 128 9 basechar 0
AnchorPoint: "middle" 264 215 basechar 0
AnchorPoint: "above" 264 646 basechar 0
LayerCount: 2
Fore
SplineSet
389 125 m 2
 424 275 l 2
 435.4 324 451 374 412 374 c 0
 390 374 338 335 289 262 c 0
 256.7 213.9 236.8 145.9 219.9 72 c 0
 212 37.5 215.2 -10 146 -10 c 0
 94 -10 89.1 0.5 89.1 17.2 c 0
 89.1 27 97 52 101.8 72 c 2
 158 321 l 2
 163.4 345.1 164 357.9 164 367 c 0
 164 377 161 386 149 387 c 2
 109 390 l 1
 103 399 101.3 415 108 423 c 1
 155 429 239 436 271 436 c 0
 284.2 436 291.5 428.6 291.5 414.9 c 0
 291.5 397.8 279.9 358.7 269.3 320.2 c 2
 264 301 l 1
 265 300 l 1
 357 408 411 439 510 439 c 0
 571 439 563 353.5 546 283 c 2
 510 134 l 2
 506.3 118.8 500.7 97.4 500.7 82.7 c 0
 500.7 72.8 503.3 66 511 66 c 0
 521 66 549.5 80.5 574 100 c 1
 588 100 597.5 88 600 74 c 1
 533.5 19 484.5 -10 422 -10 c 0
 388 -10 377.1 13.3 377.1 46.2 c 0
 377.1 69.3 382.5 97.1 389 125 c 2
EndSplineSet
EndChar

StartChar: o
Encoding: 111 111 79
Width: 507
GlyphClass: 2
Flags: MW
AnchorPoint: "below" 243 -110 basechar 0
AnchorPoint: "cedilla" 241 -3 basechar 0
AnchorPoint: "ogonek" 372 44 basechar 0
AnchorPoint: "middle" 236 215 basechar 0
AnchorPoint: "above" 238 645 basechar 0
AnchorPoint: "komb_OR" 420 396 basechar 0
LayerCount: 2
Fore
SplineSet
198 173 m 0
 198 50 248 32 271 32 c 0
 368 32 393 208 393 272 c 0
 393 333 379 402 323 402 c 0
 226 402 198 260 198 173 c 0
72 165 m 0
 72 285 162 444 342 444 c 0
 480 444 517 351 517 279 c 0
 517 121 383 -10 246 -10 c 0
 103 -10 72 111 72 165 c 0
EndSplineSet
EndChar

StartChar: p
Encoding: 112 112 80
Width: 537
GlyphClass: 2
Flags: MW
AnchorPoint: "below" 179 -319 basechar 0
AnchorPoint: "above" 271 646 basechar 0
AnchorPoint: "right" 429 580 basechar 0
LayerCount: 2
Fore
SplineSet
430 274 m 0
 430 342.1 416 390 367 390 c 0
 342 390 312 385 289 370 c 1
 219 67 l 1
 238 43 258 32 274 32 c 0
 320.9 32 360.5 66.7 386 111 c 0
 418.1 166.8 430 237.8 430 274 c 0
62 -110 m 2
 148 271 l 1
 133 256 114 235 102 218 c 1
 66 249 l 1
 90 282 126 314 165 344 c 1
 189 449 l 1
 312 470 l 1
 302 423 l 1
 328 433 360 444 399 444 c 0
 519 444 554 394 554 290 c 0
 554 233.7 521.1 149.7 464 86 c 0
 413.5 29.7 343.3 -10 272 -10 c 0
 246 -10 223 -7 204 1 c 1
 179.9 -106.7 l 2
 175.8 -125.1 173.8 -143.4 173.8 -155 c 0
 173.8 -195 194 -198.3 237 -201 c 1
 242 -207 243 -228 236 -234 c 1
 186 -233 133.7 -232 96 -232 c 0
 65 -232 14 -233 -35 -234 c 1
 -40 -228 -41 -207 -34 -201 c 1
 26.7 -198 43.4 -192.3 62 -110 c 2
EndSplineSet
EndChar

StartChar: q
Encoding: 113 113 81
Width: 572
GlyphClass: 2
Flags: MW
AnchorPoint: "below" 348 -319 basechar 0
AnchorPoint: "middle" 236 215 basechar 0
AnchorPoint: "above" 238 645 basechar 0
AnchorPoint: "right" 469 732 basechar 0
LayerCount: 2
Fore
SplineSet
410 332 m 0
 410 371 393 405 364 405 c 0
 275 405 200 281 200 141 c 0
 200 68.9 209.5 39 248 39 c 0
 293 39 354 120 376 183 c 0
 395 238 410 316 410 332 c 0
309 -110 m 2
 345 41 l 1
 304 4 270 -10 217 -10 c 0
 117 -10 76 61 76 130 c 0
 76 311.5 248 444 361 444 c 0
 403 444 436 432 459 408 c 1
 476.1 425.1 509.5 458 532 458 c 0
 544 458 550 449 550 435 c 0
 550 431 549.4 424.9 548 419 c 2
 426.9 -106.7 l 2
 422.7 -125 420.8 -143.4 420.8 -155 c 0
 420.8 -195 441 -198.3 484 -201 c 1
 489 -207 490 -228 483 -234 c 1
 433 -233 380.7 -232 343 -232 c 0
 312 -232 261 -233 212 -234 c 1
 207 -228 206 -207 213 -201 c 1
 273.7 -198 289.4 -192 309 -110 c 2
EndSplineSet
EndChar

StartChar: r
Encoding: 114 114 82
Width: 444
GlyphClass: 2
Flags: MW
AnchorPoint: "below" 135 -110 basechar 0
AnchorPoint: "cedilla" 134 7 basechar 0
AnchorPoint: "middle" 136 185 basechar 0
AnchorPoint: "above" 191 646 basechar 0
AnchorPoint: "right" 349 580 basechar 0
LayerCount: 2
Fore
SplineSet
266 285 m 1
 270 284 l 1
 314 377 380 436 440 436 c 0
 484 436 502 405 502 380 c 0
 502 348 480 317 448 317 c 0
 431 317 415.7 322.7 404.7 335 c 0
 397.6 342.9 391 369 381 369 c 0
 361.3 369 292 266 244 179 c 1
 217.9 72 l 2
 208.4 32.9 206 -10 142 -10 c 0
 94 -10 89.1 0.5 89.1 17.2 c 0
 89.1 33 97 50.5 101.8 72 c 2
 156 316 l 2
 163 344 164 357.9 164 367 c 0
 164 377 158 386 146 387 c 2
 106 390 l 1
 100 399 98.3 415 105 423 c 1
 152 429 238 436 270 436 c 0
 283.2 436 291.5 426.3 291.5 410.9 c 0
 291.5 393.8 283 359 274.3 320.2 c 2
 266 285 l 1
EndSplineSet
EndChar

StartChar: s
Encoding: 115 115 83
Width: 417
GlyphClass: 2
Flags: MW
AnchorPoint: "below" 196 -110 basechar 0
AnchorPoint: "cedilla" 194 1 basechar 0
AnchorPoint: "ogonek" 290 13 basechar 0
AnchorPoint: "above" 326 645 basechar 0
AnchorPoint: "right" 446 580 basechar 0
LayerCount: 2
Fore
SplineSet
426.3 359 m 0
 429.8 326.5 403.5 307.9 389 304 c 0
 367 298 340.3 304.4 336 326 c 0
 328.9 361.6 313.1 405.8 270.2 405.8 c 0
 231 405.8 218 383.1 218 355 c 0
 218 304 266.3 273.6 292 260 c 0
 366 221 407.3 176 407.3 129 c 0
 407.3 58.4 353.1 -12 227.4 -12 c 0
 147.6 -12 65 20 65 88 c 0
 65 120 92 139 108.5 139 c 0
 139 139 156.6 115.8 172 81 c 0
 187 47 217.1 28.6 248.4 28.6 c 0
 279 28.6 303.3 40.2 303.3 78 c 0
 303.3 125 277.9 158.9 236 183 c 0
 170 221 130.5 271 130.5 314 c 0
 130.5 419.6 210.3 444 307 444 c 0
 369.5 444 421 408 426.3 359 c 0
EndSplineSet
EndChar

StartChar: t
Encoding: 116 116 84
Width: 367
GlyphClass: 2
Flags: MW
AnchorPoint: "below" 133 -107 basechar 0
AnchorPoint: "cedilla" 170 -3 basechar 0
AnchorPoint: "ogonek" 227 15 basechar 0
LayerCount: 2
Fore
SplineSet
123 118 m 2
 184 382 l 1
 109 382 l 2
 106 382 103 382 103 384 c 0
 103 386 107 406 108 409 c 0
 110 417 117 425 136 426 c 2
 194 429 l 1
 207 479 l 2
 216.9 517.2 216.2 551.9 251 561 c 0
 281.5 569 332 581 332 564 c 0
 332 552 316 491.8 312 474 c 2
 302 429 l 1
 411 429 l 1
 422 421 412 387 400 382 c 1
 292 382 l 1
 232 127 l 2
 228.8 113.2 225.4 96.6 225.4 84.2 c 0
 225.4 73.5 228 66 236 66 c 0
 246.1 66 280 83 306 113 c 1
 320 113 332 94 335 85 c 1
 285 30 233.5 -10 164 -10 c 0
 128.1 -10 113.3 12.7 113.3 47.1 c 0
 113.3 67.7 117.8 95.4 123 118 c 2
EndSplineSet
EndChar

StartChar: u
Encoding: 117 117 85
Width: 561
GlyphClass: 2
Flags: MW
AnchorPoint: "below" 239 -110 basechar 0
AnchorPoint: "cedilla" 213 0 basechar 0
AnchorPoint: "ogonek" 293 7 basechar 0
AnchorPoint: "middle" 252 215 basechar 0
AnchorPoint: "above" 255 645 basechar 0
LayerCount: 2
Fore
SplineSet
486 125 m 2
 481 106 479 92 479 83 c 0
 479 71 484 67 489 67 c 0
 500 67 524 84.7 545 106 c 1
 557.9 101.8 565 93 570 82 c 1
 508 19 469 -10 417 -10 c 0
 366 -10 354 21 354 39 c 0
 354 43 356.3 70.7 369.3 92 c 0
 370.3 93.3 368.2 94.1 366.3 92 c 0
 310.1 30.9 250.3 -10 200 -10 c 0
 138.3 -10 108 24 108 64 c 0
 108 82 112.2 114.3 119 141 c 2
 162 309 l 2
 166.9 328 169 342 169 351 c 0
 169 362 165 367 161 367 c 0
 149 367 129 353 107 325 c 1
 94.7 331.3 86 340.3 79 352 c 1
 148.5 424.5 187 444 239 444 c 0
 291 444 294 413 294 395 c 0
 294 378 287.9 345 280 315 c 2
 238 153 l 2
 232.1 130.1 228 98 228 82 c 0
 228 63 233 49 249 49 c 0
 278 49 370 105 399 236 c 2
 427.099609375 362 l 2
 436 401 439 444 503 444 c 0
 551 444 555.900390625 433.5 555.900390625 416.799804688 c 0
 555.900390625 401 486 125 486 125 c 2
EndSplineSet
EndChar

StartChar: v
Encoding: 118 118 86
Width: 477
GlyphClass: 2
Flags: MW
AnchorPoint: "below" 241 -110 basechar 0
AnchorPoint: "middle" 247 267 basechar 0
AnchorPoint: "above" 256 646 basechar 0
AnchorPoint: "right" 460 580 basechar 0
LayerCount: 2
Fore
SplineSet
318.3 131 m 1
 320.3 130 l 1
 414 265 l 2
 433.1 292.5 440 303 440 317 c 0
 440 340 421.5 351 421.5 395.5 c 0
 421.5 421.5 448.5 444 479 444 c 0
 519 444 529.5 415.5 529.5 380.5 c 0
 529.5 354.5 508.2 313.8 461 244 c 2
 304 12 l 2
 294 -2.7 282 -12 266 -12 c 0
 239 -12 228.1 0 226 16 c 2
 183 341 l 2
 181 356.4 174.3 362 168 362 c 0
 154 362 130 339 117 319.5 c 1
 102.7 328.7 96.7 336.3 92 350 c 1
 142 410 175 444 236 444 c 0
 285 444 291.5 399.2 297 344 c 2
 318.3 131 l 1
EndSplineSet
EndChar

StartChar: w
Encoding: 119 119 87
Width: 702
GlyphClass: 2
Flags: MW
AnchorPoint: "below" 352 -110 basechar 0
AnchorPoint: "above" 345 646 basechar 0
AnchorPoint: "right" 719 580 basechar 0
LayerCount: 2
Fore
SplineSet
102 350 m 1
 152 410 185 444 246 444 c 0
 295 444 300.3 400.1 303 344 c 2
 312 158.5 l 1
 314 157.5 l 1
 410 328 l 2
 420.4 346.4 442.5 381.5 460 381.5 c 0
 489.5 381.5 502.2 344.6 506 324 c 2
 506 324 532.5 181.5 544 120.5 c 1
 546 119.5 l 1
 626 265 l 2
 641.9 293.9 645 303 645 317 c 0
 645 340 626.5 351 626.5 395.5 c 0
 626.5 421.5 653.5 444 684 444 c 0
 724 444 734.5 415.5 734.5 380.5 c 0
 734.5 354.5 716 318 673 244 c 2
 536 12 l 2
 527 -3 514 -12 498 -12 c 0
 478 -12 470 -1 467 12 c 2
 420 210 l 2
 418.4 216.9 415.3 221.7 411.3 221.7 c 0
 408 221.7 404.1 218.4 400 210 c 2
 287 16 l 2
 275.5 -3.7 266 -12 247 -12 c 0
 227 -12 216.2 0.9 215 16 c 2
 189 341 l 2
 188 356 184.3 362 178 362 c 0
 164 362 140 339 127 319.5 c 1
 112.7 328.7 106.7 336.3 102 350 c 1
EndSplineSet
EndChar

StartChar: x
Encoding: 120 120 88
Width: 517
GlyphClass: 2
Flags: MW
LayerCount: 2
Fore
SplineSet
201.7 340 m 2
 196.7 351.9 180.5 352.5 167.5 352.5 c 0
 154.2 352.5 124 339.5 112 333.8 c 1
 104 341.5 96.4 361.6 95 372.5 c 1
 131 393.5 222 439 257 439 c 0
 282 439 284.1 420.7 300.2 368.3 c 2
 325.5 286.1 l 1
 333.5 297.6 360.5 332.7 360.5 332.7 c 2
 401.2 386.9 439.2 437.5 498.5 437.5 c 0
 532.1 437.5 567.8 421.9 567.8 389.5 c 0
 567.8 359.5 547.8 330.7 521.6 330.7 c 0
 506.9 330.7 485.9 339.1 476.4 345.1 c 0
 468 349.9 455.4 353.5 451.2 353.5 c 0
 447 353.5 436.2 350.9 425 335.7 c 2
 339.5 220.5 l 1
 395.2 85.3 l 2
 400.5 72.5 411.2 65.7 424 65.7 c 0
 439 65.7 463.5 68.5 487.5 92.5 c 1
 512 67.2 l 1
 451.2 0 406 -9.8 364 -9.9 c 0
 322.5 -10 311.7 32.1 295.2 82.3 c 2
 276.2 140.3 l 1
 258.4 113.8 230.4 76.3 216.5 60.5 c 0
 162.2 -1 145.5 -10.4 97.2 -10.4 c 0
 64.7 -10.4 26.5 8.7 26.5 43.5 c 0
 26.5 72.3 37.7 92.5 74.5 92.5 c 0
 111.5 92.5 134.8 65.5 149.5 65.5 c 0
 155.8 65.5 168.5 73 182.5 91.5 c 0
 206.8 123.6 239.2 167.5 258.7 202.5 c 1
 240.7 255.3 201.7 340 201.7 340 c 2
EndSplineSet
EndChar

StartChar: y
Encoding: 121 121 89
Width: 510
GlyphClass: 2
Flags: MW
AnchorPoint: "below" 242 -319 basechar 0
AnchorPoint: "above" 262 645 basechar 0
LayerCount: 2
Fore
SplineSet
295 344 m 2
 338 90 l 1
 340 89 l 1
 441 265 l 2
 458.2 295 460 303 460 317 c 0
 460 340 441.5 351 441.5 395.5 c 0
 441.5 421.5 468.5 444 499 444 c 0
 539 444 549.5 415.5 549.5 380.5 c 0
 549.5 354.5 534 319.8 488 244 c 2
 299 -67 l 2
 238.4 -166.7 144 -232 83 -232 c 0
 60 -232 15 -223 15 -188 c 0
 15 -170 21 -138 80 -138 c 0
 102 -138 116 -153 135 -153 c 0
 153 -153 195 -136 236 -68 c 1
 262 -27 l 1
 238 101 181 341 181 341 c 2
 177.7 356.1 172.3 362 166 362 c 0
 152 362 128 339 115 319.5 c 1
 100.7 328.7 94.7 336.3 90 350 c 1
 140 410 173 444 234 444 c 0
 278 444 285.8 398.4 295 344 c 2
EndSplineSet
EndChar

StartChar: z
Encoding: 122 122 90
Width: 457
GlyphClass: 2
Flags: MW
AnchorPoint: "below" 207 -110 basechar 0
AnchorPoint: "cedilla" 208 4 basechar 0
AnchorPoint: "middle" 207 215 basechar 0
AnchorPoint: "above" 220 646 basechar 0
AnchorPoint: "right" 399 580 basechar 0
LayerCount: 2
Fore
SplineSet
441 457 m 1
 489 436 l 1
 443.2 367.3 252.6 178.3 193 111 c 1
 222 110 246 104 259 98 c 1
 283 84 313 75 326 75 c 0
 343 75 388.5 75 426 139 c 1
 461 124 l 1
 415 15 355 -10 300 -10 c 0
 266 -10 229 -2 204 13 c 0
 173 32 150 40 140 40 c 0
 137 40 123 24 100 -15 c 1
 80.3 -12 51.3 1.4 46 12 c 1
 49 21 89 70 112 96 c 0
 172 166 281 270 358 358 c 1
 351 359 316 352 307 352 c 0
 277 352 263 360 214 360 c 0
 185 360 137 336 126 308 c 1
 94 319 l 1
 111 378 164 444 210 444 c 0
 246 444 318 434 367 421 c 0
 381 417 390 415 395 415 c 0
 401 415 411 423 441 457 c 1
EndSplineSet
EndChar

StartChar: braceleft
Encoding: 123 123 91
Width: 307
GlyphClass: 2
Flags: MW
LayerCount: 2
Fore
SplineSet
322.2 552 m 2
 294.5 386 l 2
 279.6 297 234 268.2 166.7 249 c 1
 165.8 245 l 1
 223.5 216.8 254.3 177.3 232.6 95 c 2
 193.4 -54 l 2
 171.3 -138 198.8 -188 240.2 -188 c 1
 244.6 -194 242 -206 235.1 -212 c 1
 140.2 -212 66.3 -179 98.6 -49 c 2
 140.4 121 l 2
 155.2 182 138.9 222 71.7 231 c 1
 65.9 239 68.1 254 78.5 263 c 1
 149.5 270 182.7 320 193.3 370 c 1
 226.8 554 l 2
 247.1 667 345.8 707 430.4 707 c 1
 434.8 701 432.2 689 425.3 683 c 1
 387.2 672 339.4 654.9 322.2 552 c 2
EndSplineSet
EndChar

StartChar: bar
Encoding: 124 124 92
Width: 220
GlyphClass: 2
Flags: MW
LayerCount: 2
Fore
SplineSet
125.8 -233 m 1
 69.4 -233 l 1
 200.2 698 l 1
 256.6 698 l 1
 125.8 -233 l 1
EndSplineSet
EndChar

StartChar: braceright
Encoding: 125 125 93
Width: 307
GlyphClass: 2
Flags: MW
LayerCount: 2
Fore
SplineSet
89.8 -56 m 2
 117.5 110 l 2
 132.4 199 178 227.8 245.3 247 c 1
 246.2 251 l 1
 188.5 279.2 157.7 318.7 179.4 401 c 2
 218.6 550 l 2
 240.7 634 213.2 684 171.8 684 c 1
 167.4 690 170 702 176.9 708 c 1
 271.8 708 345.7 675 313.4 545 c 2
 271.6 375 l 2
 256.8 314 273.1 274 340.3 265 c 1
 346.1 257 343.9 242 333.5 233 c 1
 262.5 226 229.3 176 218.7 126 c 1
 185.2 -58 l 2
 164.9 -171 66.2 -211 -18.4 -211 c 1
 -22.8 -205 -20.2 -193 -13.3 -187 c 1
 24.8 -176 72.6 -158.9 89.8 -56 c 2
EndSplineSet
EndChar

StartChar: asciitilde
Encoding: 126 126 94
Width: 449
GlyphClass: 2
Flags: MW
LayerCount: 2
Fore
SplineSet
63 209 m 1
 87 274 153 352 213 352 c 0
 259 352 304 287 349 287 c 0
 377 287 419 289 450 339 c 1
 461.3 340.7 468.7 339.3 476 333 c 1
 426 226 359 198 335 198 c 0
 282 198 249 263 197 263 c 0
 162 263 116 250 85 206 c 1
 76 202.3 67.3 204.3 63 209 c 1
EndSplineSet
EndChar

StartChar: exclamdown
Encoding: 161 161 96
Width: 251
GlyphClass: 2
Flags: MW
LayerCount: 2
Fore
SplineSet
79 -228 m 0
 46 -228 15 -210 15 -171 c 0
 15 -165 16 -159 17 -153 c 0
 25 -118 38 -80 51 -47 c 0
 60 -23 71 6 82 39 c 0
 108 119 123 173 129 200 c 0
 133 219 137 242 174 242 c 0
 200 242 206 234 206 220 c 0
 206 211 204 201 202 188 c 0
 195 150 189 92 184 39 c 0
 180 1 179 -28 179 -49 c 0
 179 -74 177 -114 170 -153 c 1
 158 -209 109 -228 79 -228 c 0
195.9 329 m 0
 167.3 329 146.5 353.5 146.5 380.1 c 0
 146.5 404.1 170.5 440 208.1 440 c 0
 236.9 440 258 420.1 258 394.5 c 0
 258 348.6 221 329 195.9 329 c 0
EndSplineSet
EndChar

StartChar: cent
Encoding: 162 162 97
Width: 440
GlyphClass: 2
Flags: MW
LayerCount: 2
Fore
SplineSet
418 525 m 1
 458 520 l 1
 415.4 432.5 l 1
 468 413.3 487 373.3 487 337 c 0
 487 300 440 287 425 287 c 0
 381 287 371 306 371 323 c 0
 371 334.9 372.5 338.5 373.7 347 c 1
 232.8 57.6 l 1
 246.5 44.4 261.7 41 273 41 c 0
 296 41 356 70 396 116 c 1
 436 82 l 1
 388 33 334 -10 242 -10 c 0
 228.1 -10 214.9 -8.1 202.4 -4.7 c 1
 156 -100 l 1
 116 -92 l 1
 166.2 10.5 l 1
 110 42.7 76 106.1 76 152 c 0
 76 318 216 444 341 444 c 0
 354.1 444 366.1 443.2 377.2 441.7 c 1
 418 525 l 1
209.4 98.7 m 1
 357.5 401.5 l 1
 352.2 404.2 347 405 344 405 c 0
 278 405 200 318 200 173 c 0
 200 141.4 203.6 117.2 209.4 98.7 c 1
EndSplineSet
EndChar

StartChar: sterling
Encoding: 163 163 98
Width: 468
GlyphClass: 2
Flags: MW
LayerCount: 2
Fore
SplineSet
304 288 m 1
 282 180 243 124 197 91 c 1
 256 90 278 76 296 64 c 1
 295 64 l 1
 309 53 321 45 337 45 c 0
 358 45 407 55 453 103 c 1
 476 73 l 1
 448 24 392 -12 308 -12 c 0
 263 -12 235 4 210 20 c 0
 189 33 169 46 153 46 c 0
 138 46 130 32 129 23 c 0
 123 -5 85 -17 60 -17 c 0
 37 -17 17 -4 17 8 c 0
 17 9 17 10 17 11 c 0
 21 31 53 52 89 68 c 1
 84 68 l 2
 85 68 90 73 101 83 c 0
 150 125 171 202 184 267 c 1
 188 289 l 1
 124 289 l 1
 133 335 l 1
 198 335 l 1
 199 340 l 2
 215 417 249 469 316 524 c 0
 356 558 407 576 467 576 c 0
 494 576 554 566 554 534 c 0
 554 533 554 531 554 529 c 0
 549 503 520 488 485 488 c 0
 458 488 450 497 441 506 c 0
 431 517 421 527 413 527 c 0
 381 527 340 466 324 388 c 2
 313 335 l 1
 442 335 l 1
 433 289 l 1
 304 289 l 1
 304 288 l 1
EndSplineSet
EndChar

StartChar: currency
Encoding: 164 164 99
Width: 482
GlyphClass: 2
Flags: MW
LayerCount: 2
Fore
SplineSet
208 300 m 0
 206 288 204 275 204 263 c 0
 204 211 229 172 276 172 c 0
 333 172 381 231 395 299 c 0
 397 312 398 323 398 334 c 0
 398 389 371 427 330 427 c 0
 273 427 222 369 208 300 c 0
266 122 m 0
 228 122 195 130 170 146 c 1
 152 128 127 103 113 89 c 1
 64 148 l 1
 125 190 l 1
 109 216 102 242 102 269 c 0
 102 279 103 289 105 299 c 0
 113 338 134 375 170 410 c 1
 156 422 140 437 127 450 c 1
 193 507 l 1
 232 453 l 1
 265 469 299 477 338 477 c 0
 377 477 409 468 435 452 c 1
 454 471 482 498 497 512 c 1
 542 451 l 1
 480 407 l 1
 495 383 502 358 502 332 c 0
 502 321 500 310 499 299 c 1
 491 263 470 227 437 192 c 1
 450 179 467 162 479 149 c 1
 413 91 l 1
 375 148 l 1
 342 131 305 122 266 122 c 0
EndSplineSet
EndChar

StartChar: yen
Encoding: 165 165 100
Width: 524
GlyphClass: 2
Flags: MW
LayerCount: 2
Fore
SplineSet
494 172 m 1
 484 125 l 1
 348 125 l 1
 337 75 l 2
 336 68 335 63 335 59 c 0
 335 42 343 35 362 35 c 2
 388 35 l 2
 405 35 417 31 416 23 c 2
 413 8 l 1
 401 -1 l 1
 401 -1 301 1 263 1 c 0
 227 1 121 -1 121 -1 c 1
 113 8 l 1
 116 23 l 2
 118 31 130 35 148 35 c 2
 174 35 l 2
 199 35 209 50 214 75 c 2
 225 125 l 1
 88 125 l 1
 98 172 l 1
 234 172 l 1
 246 227 l 1
 109 227 l 1
 119 273 l 1
 249 273 l 1
 228 349 207 422 186 499 c 0
 179 528 174 542 163 542 c 2
 152 542 l 1
 144 543 125 546 126 552 c 2
 130 571 l 1
 133 580 l 1
 157 576 232 574 244 574 c 0
 250 574 319 575 343 578 c 1
 352 567 l 1
 349 553 l 2
 348 547 338 542 318 542 c 2
 305 542 l 2
 302 542 300 539 299 532 c 0
 299 530 298 528 298 525 c 0
 298 517 301 507 306 496 c 1
 349 336 l 1
 385 392 420 447 457 503 c 0
 465 515 470 526 471 532 c 0
 473 540 473 542 470 542 c 2
 452 542 l 1
 432 544 428 548 429 553 c 2
 432 567 l 1
 444 577 l 1
 451 577 521 573 534 573 c 0
 542 573 608 577 628 578 c 1
 627 571 l 1
 624 553 l 2
 623 547 622 542 591 542 c 2
 584 542 l 2
 570.2 542 558.5 529.3 536 499 c 1
 486 421 440 350 390 273 c 1
 514 273 l 1
 505 227 l 1
 369 227 l 1
 357 172 l 1
 494 172 l 1
EndSplineSet
EndChar

StartChar: brokenbar
Encoding: 166 166 101
Width: 229
GlyphClass: 2
Flags: MW
LayerCount: 2
Fore
SplineSet
197 167 m 1
 123 -199 l 1
 31 -199 l 1
 105 167 l 1
 197 167 l 1
300 675 m 1
 226 309 l 1
 134 309 l 1
 208 675 l 1
 300 675 l 1
EndSplineSet
EndChar

StartChar: section
Encoding: 167 167 102
Width: 474
GlyphClass: 2
Flags: MW
LayerCount: 2
Fore
SplineSet
274 161 m 0
 298 148 329 132 363 112 c 1
 377 126 387 147 392 173 c 0
 394 182 395 191 395 199 c 0
 395 295 284 355 220 386 c 1
 206 372 195 351 189 325 c 1
 188 316 187 309 187 300 c 0
 187 241 229 186 274 161 c 0
385 658 m 0
 460 658 523 614 523 551 c 0
 523 544 523 538 521 531 c 0
 517 508 485 489 455 489 c 0
 408 489 401 513 401 526 c 0
 401 529 401 531 401 532 c 0
 403 543 411 553 419 561 c 1
 417 561 l 1
 419 562 421 570 421 574 c 0
 421 584 417 621 381 621 c 0
 337 621 295 572 285 522 c 0
 284 514 283 506 283 500 c 0
 283 467 302 454 331 439 c 0
 398 405 493 351 493 254 c 0
 493 243 492 232 489 221 c 0
 479 167 447 122 397 86 c 1
 414 67 419 47 419 25 c 0
 419 14 418 3 416 -9 c 0
 402 -75 299 -167 195 -167 c 0
 121 -167 57 -123 57 -59 c 0
 57 -53 58 -46 60 -39 c 0
 64 -14 98 2 126 2 c 0
 172 2 180 -22 180 -36 c 0
 180 -38 180 -39 180 -41 c 0
 178 -48 169 -62 165 -68 c 0
 162 -71 161 -71 160 -80 c 0
 159 -81 159 -82 159 -83 c 0
 159 -94 165 -129 202 -129 c 0
 236 -129 283 -95 295 -30 c 0
 297 -22 298 -14 298 -7 c 0
 298 20 288 41 271 50 c 0
 141 121 89 172 89 242 c 0
 89 253 90 265 92 277 c 0
 103 329 132 373 181 408 c 1
 171 426 167 444 167 462 c 0
 167 477 169 490 172 503 c 0
 186 569 277 658 385 658 c 0
EndSplineSet
EndChar

StartChar: copyright
Encoding: 169 169 104
Width: 616
GlyphClass: 2
Flags: MW
LayerCount: 2
Fore
SplineSet
461 217 m 1
 436 186 391 153 338 153 c 0
 257.5 153 212.2 209.6 212.2 277.4 c 0
 212.2 287.1 213.1 297 215 307 c 0
 230 380 304 456 394 456 c 0
 461 456 463 442 495 442 c 1
 491 364 l 1
 460 360 l 1
 460.1 364.7 460.2 369.3 460.2 373.6 c 0
 460.2 409.9 453.5 433 391 433 c 0
 355 433 300 410 279 305 c 0
 276.2 290.7 274.7 276.9 274.7 264 c 0
 274.7 216.6 295.1 182 347 182 c 0
 396 182 429 216 443 232 c 1
 461 217 l 1
308 23 m 0
 175.6 23 85.5 121.4 85.5 250.1 c 0
 85.5 268.2 87.3 286.9 91 306 c 0
 122 462 268 588 418 588 c 0
 549.5 588 639.5 491.2 639.5 362.2 c 0
 639.5 344 637.7 325.2 634 306 c 0
 604 150 458 23 308 23 c 0
411 550 m 0
 282 550 157 439 131 306 c 0
 127.7 289.3 126.2 272.9 126.2 257 c 0
 126.2 146.8 202.4 62 316 62 c 0
 443 62 568 172 594 306 c 0
 597.4 323.1 599.1 339.8 599.1 355.9 c 0
 599.1 466.2 521.8 550 411 550 c 0
EndSplineSet
EndChar

StartChar: ordfeminine
Encoding: 170 170 105
Width: 402
GlyphClass: 2
Flags: MW
LayerCount: 2
Fore
SplineSet
337.2 503.7 m 0
 350.4 538.7 357.6 582.9 357.6 593.5 c 0
 357.6 619.2 345.7 642.3 326.6 642.3 c 0
 273.8 642.3 223 542.7 223 474.7 c 0
 223 439.1 227 401.4 256 401.4 c 0
 274.5 401.4 315.4 448.9 337.2 503.7 c 0
315.4 400.7 m 0
 315.4 403.3 315.4 409.6 316.1 413.3 c 1
 314.7 413.9 l 1
 273.8 375 259.7 368.4 233.6 368.4 c 0
 164.6 368.4 142.5 425.1 142.5 462.1 c 0
 142.5 565.7 248.7 668 324.6 668 c 0
 358.9 668 373.5 653.5 380.1 633.7 c 1
 395.4 644.2 407.2 655.9 417.7 668 c 1
 454 670 l 2
 455.2 670 455.3 669.2 455.3 667.9 c 2
 455.3 667.9 440.6 612.6 434.4 586.9 c 2
 403.2 457.5 l 2
 400.2 444.9 398.6 435.7 398.6 429.8 c 0
 398.6 421.9 401.2 419.2 404.5 419.2 c 0
 411.8 419.2 423.3 427.5 442.1 444.3 c 1
 458.6 429.1 l 1
 411.7 382.9 390.6 368.4 356.3 368.4 c 0
 322.6 368.4 315.4 388.8 315.4 400.7 c 0
EndSplineSet
EndChar

StartChar: guillemotleft
Encoding: 171 171 106
Width: 560
GlyphClass: 2
Flags: MW
LayerCount: 2
Fore
SplineSet
596 471 m 1
 578 382 l 1
 521 317 461 261 397 216 c 1
 440 176 480 119 511 52 c 1
 492 -42 l 1
 410 83 339 164 281 200 c 1
 288 233 l 1
 369 283 472 362 596 471 c 1
417 471 m 1
 399 382 l 1
 342 317 282 261 218 216 c 1
 261 176 301 119 332 52 c 1
 313 -42 l 1
 231 83 161 164 102 200 c 1
 108 233 l 1
 190 283 293 362 417 471 c 1
EndSplineSet
EndChar

StartChar: logicalnot
Encoding: 172 172 107
Width: 584
GlyphClass: 2
Flags: MW
LayerCount: 2
Fore
SplineSet
499 131 m 1
 543 353 l 1
 89 353 l 1
 100 404 l 1
 650 404 l 1
 595 131 l 1
 499 131 l 1
EndSplineSet
EndChar

StartChar: registered
Encoding: 174 174 109
Width: 616
GlyphClass: 2
Flags: MW
LayerCount: 2
Fore
SplineSet
478 372 m 0
 468 320 408 296 408 296 c 1
 438 214 l 2
 447 192 455 183 471 183 c 1
 468 170 l 1
 458 167 450 166 445 166 c 0
 418 166 394 178 387 204 c 1
 357 282 l 1
 353 284 336 285 331 285 c 1
 314 194 l 2
 313 189 312 187 319 187 c 2
 330 187 l 2
 338 187 341 185 340 181 c 2
 337 167 l 1
 337 167 286 169 272 169 c 2
 218 167 l 1
 221 181 l 2
 222 185 226 187 232 187 c 2
 244 187 l 2
 250 187 252 188 253 195 c 2
 296 413 l 2
 297 418 297 424 294 424 c 2
 278 423 l 2
 272 423 269 425 270 429 c 2
 272 442 l 1
 293 445 330 447 401 447 c 0
 462.3 447 479.4 414.3 479.4 386.1 c 0
 479.4 381.2 478.9 376.4 478 372 c 0
418 372 m 0
 419.6 379.8 420.5 386.9 420.5 393.2 c 0
 420.5 414.5 410.7 427 386 427 c 0
 375 427 363 426 358 424 c 1
 336 309 l 1
 366 309 406 310 418 372 c 0
308 23 m 0
 175.6 23 85.5 121.4 85.5 250.1 c 0
 85.5 268.2 87.3 286.9 91 306 c 0
 122 462 268 588 418 588 c 0
 549.5 588 639.5 491.2 639.5 362.2 c 0
 639.5 344 637.7 325.2 634 306 c 0
 604 150 458 23 308 23 c 0
411 550 m 0
 282 550 157 439 131 306 c 0
 127.7 289.3 126.2 272.9 126.2 257 c 0
 126.2 146.8 202.4 62 316 62 c 0
 443 62 568 172 594 306 c 0
 597.4 323.1 599.1 339.8 599.1 355.9 c 0
 599.1 466.2 521.8 550 411 550 c 0
EndSplineSet
EndChar

StartChar: macron
Encoding: 175 175 110
Width: 421
GlyphClass: 2
Flags: MW
LayerCount: 2
Fore
SplineSet
433 523 m 2
 191 523 l 2
 169 523 161 531 161 540 c 0
 161 541 161 541 161 542 c 0
 164 555 188 575 211 575 c 2
 453 575 l 2
 476 575 484 566 484 559 c 0
 484 558 484 557 484 556 c 0
 481 543 457 523 433 523 c 2
EndSplineSet
EndChar

StartChar: degree
Encoding: 176 176 111
Width: 254
GlyphClass: 2
Flags: MW
LayerCount: 2
Fore
SplineSet
222 458 m 0
 264.2 458 292.7 496.6 292.7 534.7 c 0
 292.7 563.1 278.2 593 241 593 c 0
 198.5 593 170.1 550.2 170.1 512.8 c 0
 170.1 483.9 187.4 458 222 458 c 0
134.9 510.2 m 0
 134.9 570 186.5 625 246 625 c 0
 294 625 328.1 588.9 328.1 540.4 c 0
 328.1 479.3 276.6 426 218 426 c 0
 169.9 426 134.9 462.3 134.9 510.2 c 0
EndSplineSet
EndChar

StartChar: uni00B2
Encoding: 178 178 113
Width: 332
GlyphClass: 2
Flags: MW
LayerCount: 2
Fore
SplineSet
203 573 m 0
 182 573 170 588 170 603 c 0
 170 604 171 606 171 608 c 0
 177 635 212 687 306 687 c 0
 360 687 415 672 415 620 c 0
 415 615 415 609 413 603 c 0
 406 568 375 537 333 507 c 1
 241 445 219 425 211 399 c 1
 318 399 l 1
 328 414 333 424 344 449 c 1
 388 439 l 1
 356 360 l 1
 110 360 l 1
 120 409 152 433 260 512 c 0
 297 539 315 565 323 601 c 0
 324 607 325 613 325 618 c 0
 325 648 305 657 296 657 c 0
 271 657 255 643 252 632 c 0
 251 626 251 624 252 621 c 1
 252 616 252 606 252 604 c 0
 248 585 219 573 203 573 c 0
EndSplineSet
EndChar

StartChar: uni00B3
Encoding: 179 179 114
Width: 332
GlyphClass: 2
Flags: MW
LayerCount: 2
Fore
SplineSet
312 621 m 0
 312 625 312 629 312 633 c 0
 312 651 302 657 294 657 c 0
 282 657 253 647 248 626 c 0
 244 613 234 589 200 589 c 0
 173 589 170 604 170 612 c 0
 170 613 170 614 170 615 c 0
 174 633 209 688 312 688 c 0
 371 688 406 668 406 636 c 0
 406 633 406 630 405 626 c 0
 400 602 372 578 338 560 c 1
 370 551 402 528 402 488 c 0
 402 483 401 477 400 471 c 0
 386 401 300 354 210 354 c 0
 166 354 115 366 115 387 c 0
 115 388 115 389 116 390 c 0
 119 406 132 422 149 422 c 0
 177 422 184 410 188 401 c 0
 193 391 209 384 227 384 c 0
 240 384 293 399 306 464 c 0
 308 470 308 475 308 480 c 0
 308 519 272 528 256 528 c 0
 254 528 244 527 214 521 c 1
 217 548 l 1
 262 554 303 581 312 621 c 0
EndSplineSet
EndChar

StartChar: acute
Encoding: 180 180 115
Width: 366
GlyphClass: 2
Flags: MW
LayerCount: 2
Fore
SplineSet
311 701 m 1
 321 702 l 1
 325 704 336 705 345 705 c 0
 386 705 397 694 404 686 c 1
 403 686 l 1
 405 684 414 675 416 674 c 1
 417 671 l 1
 273 557 l 2
 254 542 244 537 226 537 c 0
 208 537 192 543 192 551 c 0
 192 556 197 565 207 577 c 0
 241 618 277 660 311 701 c 1
EndSplineSet
EndChar

StartChar: mu
Encoding: 181 181 116
Width: 519
GlyphClass: 2
Flags: MW
LayerCount: 2
Fore
SplineSet
61 -232 m 0
 43 -232 8 -211 8 -176 c 0
 8 -172 8 -167 9 -163 c 0
 14 -142 22 -118 32 -92 c 0
 42 -66 55 -40 63 -4 c 0
 66 10 68 26 71 46 c 0
 75 72 71 104 79 137 c 2
 122 323 l 2
 127 348 136 434 136 434 c 1
 264 447 l 1
 264 447 251 375 244 343 c 2
 199 150 l 2
 193 125 190 103 190 85 c 0
 190 58 198 41 220 41 c 0
 260 41 308 68 336 98 c 1
 414 434 l 1
 535 448 l 1
 460 126 l 2
 452 90 447 66 447 54 c 0
 447 46 449 42 453 42 c 0
 467 42 479 51 500 83 c 1
 530 70 l 1
 499 19 468 -12 399 -12 c 0
 364 -12 346 11 339 43 c 1
 291 10 244 -12 189 -12 c 0
 173 -12 158 -9 145 -3 c 1
 140 -35 136 -67 136 -96 c 1
 135 -122 135 -151 131 -168 c 0
 121 -211 92 -232 61 -232 c 0
EndSplineSet
EndChar

StartChar: paragraph
Encoding: 182 182 117
Width: 626
GlyphClass: 2
Flags: MW
LayerCount: 2
Fore
SplineSet
481 -144 m 2
 478 -161 476 -172 476 -181 c 0
 476 -202 486 -205 508 -206 c 1
 538 -206 l 2
 541 -206 542 -209 542 -213 c 2
 537 -234 l 1
 208 -234 l 1
 213 -213 l 2
 214 -208 216 -206 220 -206 c 2
 250 -206 l 1
 283 -205 291 -195 301 -143 c 2
 377 227 l 1
 361 220 329 215 297 215 c 0
 225 215 122 250 122 379 c 0
 122 397 124 417 128 439 c 0
 153 562 241 646 374 646 c 0
 449 646 509 641 536 641 c 0
 570 641 605 644 605 644 c 1
 716 646 l 1
 712 625 l 2
 711 621 709 618 706 618 c 2
 676 618 l 2
 641 618 633 602 624 556 c 2
 481 -144 l 2
377 -207 m 0
 406 -207 414 -187 422 -145 c 2
 565 556 l 2
 568 571 569 583 569 591 c 0
 569 614 559 615 548 616 c 1
 516 616 508 584 502 553 c 2
 360 -143 l 2
 358 -154 356 -166 356 -177 c 0
 356 -193 361 -207 377 -207 c 0
EndSplineSet
EndChar

StartChar: periodcentered
Encoding: 183 183 118
Width: 274
GlyphClass: 2
Flags: MW
LayerCount: 2
Fore
SplineSet
179 204 m 0
 150 204 134 224 134 247 c 0
 134 251 135 254 136 258 c 0
 141 286 171 312 201 312 c 0
 225 312 245 293 245 268 c 0
 245 265 245 262 244 258 c 0
 238 229 209 204 179 204 c 0
EndSplineSet
EndChar

StartChar: cedilla
Encoding: 184 184 119
Width: 565
GlyphClass: 2
Flags: MW
LayerCount: 2
Fore
SplineSet
286 -79 m 0
 272 -79 263 -80 239 -91 c 1
 226 -74 l 1
 284 15 l 1
 347 15 l 1
 313 -40 l 1
 321 -40 l 2
 368 -40 401 -60 401 -94 c 0
 401 -98 400 -102 399 -105 c 0
 391 -150 331 -179 257 -179 c 0
 219 -179 199 -171 169 -157 c 1
 188 -130 l 1
 221 -145 246 -146 258 -146 c 0
 276 -146 309 -134 314 -110 c 0
 314 -108 314 -107 314 -106 c 0
 314 -90 296 -79 286 -79 c 0
EndSplineSet
EndChar

StartChar: uni00B9
Encoding: 185 185 120
Width: 332
GlyphClass: 2
Flags: MW
LayerCount: 2
Fore
SplineSet
226 432 m 2
 256 580 l 2
 261 608 257 613 265 618 c 1
 255 617 210 602 187 594 c 1
 183 627 l 1
 236 646 264 658 318 688 c 1
 364 688 l 1
 312 432 l 2
 311 426 310 421 310 417 c 0
 310 398 320 388 346 388 c 2
 355 388 l 2
 359 388 363 385 361 380 c 1
 358 364 l 1
 356 362 l 1
 356 362 286 364 247 364 c 0
 211 364 154 362 154 362 c 1
 153 364 l 1
 156 380 l 2
 157 385 161 388 166 388 c 2
 174 388 l 2
 208 388 220 404 226 432 c 2
EndSplineSet
EndChar

StartChar: ordmasculine
Encoding: 186 186 121
Width: 374
GlyphClass: 2
Flags: MW
LayerCount: 2
Fore
SplineSet
292.609375 603 m 0
 257.609375 603 229.609375 558 218.609375 506 c 0
 216.609375 496 215.609375 485 215.609375 474 c 0
 215.609375 436 229.609375 402 263.609375 402 c 0
 282.609375 402 318.609375 418 332.609375 486 c 0
 335.609375 504 337.609375 521 337.609375 535 c 0
 337.609375 579 319.609375 603 292.609375 603 c 0
118.609375 496 m 0
 136.609375 582 206.609375 636 305.609375 636 c 0
 400.609375 636 435.609375 589 435.609375 533 c 0
 435.609375 523 434.609375 512 432.609375 502 c 0
 417.609375 433 353.609375 368 245.609375 368 c 0
 169.609375 368 116.609375 412 116.609375 473 c 0
 116.609375 481 117.609375 488 118.609375 496 c 0
EndSplineSet
EndChar

StartChar: guillemotright
Encoding: 187 187 122
Width: 560
GlyphClass: 2
Flags: MW
LayerCount: 2
Fore
SplineSet
51 -41 m 1
 69 48 l 1
 126 113 186 169 250 214 c 1
 207 254 167 311 136 378 c 1
 155 472 l 1
 237 347 308 266 366 230 c 1
 359 197 l 1
 278 147 175 68 51 -41 c 1
230 -41 m 1
 248 48 l 1
 305 113 365 169 429 214 c 1
 386 254 346 311 315 378 c 1
 334 472 l 1
 416 347 486 266 545 230 c 1
 539 197 l 1
 457 147 354 68 230 -41 c 1
EndSplineSet
EndChar

StartChar: onequarter
Encoding: 188 188 123
Width: 684
GlyphClass: 2
Flags: MW
LayerCount: 2
Fore
SplineSet
662 601 m 1
 713 601 l 1
 121 -54 l 1
 70 -54 l 1
 662 601 l 1
651 181 m 1
 628 68 l 1
 679 68 l 1
 672 30 l 1
 620 30 l 1
 609 -27 l 2
 606 -42 606 -47 610 -47 c 2
 626 -47 l 2
 643 -47 646 -53 645 -57 c 2
 641 -79 l 1
 556 -78 l 1
 472 -79 l 1
 476 -56 l 2
 477 -53 483 -47 500 -47 c 2
 518 -47 l 2
 522 -47 524 -45 527 -28 c 2
 539 30 l 1
 399 30 l 1
 395 41 l 1
 428 73 451 110 465 139 c 0
 477 164 494 209 502 245 c 1
 570 245 l 1
 562 206 549 171 535 134 c 0
 526 112 508 85 496 68 c 1
 547 68 l 1
 564 155 l 1
 564 155 617 180 617 181 c 1
 651 181 l 1
224 383 m 2
 254 531 l 2
 260 559 256 564 263 569 c 1
 254 567 209 552 185 544 c 1
 182 578 l 1
 235 597 263 609 317 639 c 1
 363 639 l 1
 311 383 l 2
 305 354 312 339 345 339 c 2
 354 339 l 2
 358 339 361 336 360 331 c 2
 357 315 l 1
 355 313 l 1
 355 313 285 315 246 315 c 0
 210 315 153 313 153 313 c 1
 151 315 l 1
 155 331 l 2
 156 336 159 339 164 339 c 2
 172 339 l 2
 206 339 219 354 224 383 c 2
EndSplineSet
LCarets2: 2 0 0
EndChar

StartChar: onehalf
Encoding: 189 189 124
Width: 684
GlyphClass: 2
Flags: MW
LayerCount: 2
Fore
SplineSet
662 601 m 1
 713 601 l 1
 121 -54 l 1
 70 -54 l 1
 662 601 l 1
483 130 m 0
 460 130 448 149 452 165 c 1
 457 192 493 244 587 244 c 0
 646 244 707 226 694 160 c 0
 687 125 655 94 614 64 c 1
 521 2 500 -18 492 -43 c 1
 599 -43 l 1
 608 -29 614 -19 625 6 c 1
 668 -3 l 1
 637 -83 l 1
 390 -83 l 1
 400 -34 433 -10 541 69 c 0
 577 96 596 122 603 158 c 0
 612 202 587 214 576 214 c 0
 551 214 535 200 533 189 c 0
 532 184 532 181 532 178 c 0
 532 173 533 163 532 161 c 0
 529 143 500 130 483 130 c 0
227 383 m 2
 257 531 l 2
 263 559 259 564 266 569 c 1
 256 567 211 552 188 544 c 1
 184 578 l 1
 237 597 265 609 319 639 c 1
 365 639 l 1
 313 383 l 2
 307 354 315 339 347 339 c 2
 356 339 l 2
 360 339 364 336 363 331 c 2
 359 315 l 1
 357 313 l 1
 357 313 287 315 248 315 c 0
 213 315 155 313 155 313 c 1
 154 315 l 1
 157 331 l 2
 158 336 162 339 167 339 c 2
 175 339 l 2
 209 339 221 354 227 383 c 2
EndSplineSet
LCarets2: 2 0 0
EndChar

StartChar: threequarters
Encoding: 190 190 125
Width: 684
GlyphClass: 2
Flags: MW
LayerCount: 2
Fore
SplineSet
662 601 m 1
 713 601 l 1
 121 -54 l 1
 70 -54 l 1
 662 601 l 1
311 570 m 0
 317 598 304 606 294 606 c 0
 282 606 253 597 247 575 c 0
 244 562 234 538 200 538 c 0
 168 538 169 560 170 564 c 0
 174 583 209 637 312 637 c 0
 377 637 413 614 405 576 c 0
 400 551 372 527 338 509 c 1
 374 499 410 471 400 420 c 0
 386 350 300 304 210 304 c 0
 164 304 111 316 115 339 c 1
 119 355 132 371 149 371 c 0
 177 371 184 359 188 350 c 0
 193 340 209 333 227 333 c 0
 240 333 293 348 306 413 c 0
 317 466 274 478 256 478 c 0
 254 478 243 476 214 471 c 1
 217 497 l 1
 262 503 303 530 311 570 c 0
656 184 m 1
 633 71 l 1
 684 71 l 1
 676 32 l 1
 625 32 l 1
 613 -25 l 2
 610 -40 610 -45 614 -45 c 2
 630 -45 l 2
 647 -45 650 -50 650 -54 c 2
 645 -77 l 1
 560 -76 l 1
 476 -77 l 1
 481 -54 l 2
 481 -50 487 -45 504 -45 c 2
 522 -45 l 2
 527 -45 528 -42 531 -25 c 2
 543 32 l 1
 403 32 l 1
 399 43 l 1
 433 76 455 112 469 141 c 0
 481 167 499 211 506 248 c 1
 575 248 l 1
 567 208 553 173 540 137 c 0
 531 115 513 87 500 71 c 1
 551 71 l 1
 569 157 l 1
 569 157 622 183 622 184 c 1
 656 184 l 1
EndSplineSet
LCarets2: 2 0 0
EndChar

StartChar: questiondown
Encoding: 191 191 126
Width: 430
GlyphClass: 2
Flags: MW
LayerCount: 2
Fore
SplineSet
271 -141 m 0
 274 -127 271 -119 269 -114 c 0
 266 -108 266 -97 268 -87 c 0
 273 -62 305 -48 335 -48 c 0
 356 -48 382 -62 382 -92 c 0
 382 -96 382 -100 381 -104 c 0
 374 -139 349 -162 310 -190 c 0
 274 -215 226 -229 165 -229 c 0
 65 -229 8 -182 8 -109 c 0
 8 -98 9 -88 11 -76 c 0
 26 -2 99 45 157 82 c 0
 188 102 227 129 241 201 c 1
 246 224 l 2
 250 246 257 258 288 258 c 0
 311 258 317 252 317 240 c 0
 317 235 316 230 315 224 c 2
 310 199 l 2
 301 158 288 101 203 36 c 0
 162 5 139 -23 129 -73 c 0
 127 -85 125 -96 125 -107 c 0
 125 -154 146 -193 182 -193 c 0
 226 -193 266 -169 271 -141 c 0
289.3 329 m 0
 260.7 329 245 353.5 250.4 380.1 c 0
 255.3 404.1 286.6 440 324.2 440 c 0
 353 440 370 420.1 364.8 394.5 c 0
 355.5 348.6 314.4 329 289.3 329 c 0
EndSplineSet
EndChar

StartChar: Agrave
Encoding: 192 192 127
Width: 719
GlyphClass: 2
Flags: MW
LayerCount: 2
Fore
SplineSet
436 818 m 1
 544 734 l 2
 553 727 556 721 556 715 c 0
 556 710 553 698 539 698 c 0
 530 698 518 701 498 710 c 2
 353 773 l 1
 436 818 l 1
EndSplineSet
Refer: 732 913 N 1 0 0 1 0 0 2
EndChar

StartChar: Aacute
Encoding: 193 193 128
Width: 719
GlyphClass: 2
Flags: MW
LayerCount: 2
Fore
SplineSet
538 824 m 1
 596 768 l 1
 443 710 l 2
 420 701 407 698 398 698 c 0
 390 698 386 702 386 710 c 2
 386 710 386 712 386 713 c 0
 387 720 392 732 401 738 c 2
 538 824 l 1
EndSplineSet
Refer: 732 913 N 1 0 0 1 0 0 2
EndChar

StartChar: Acircumflex
Encoding: 194 194 129
Width: 719
GlyphClass: 2
Flags: MW
AnchorPoint: "above" 362 894 basechar 0
LayerCount: 2
Fore
SplineSet
518 805 m 1
 542 769 573 738 604 711 c 1
 581 690 l 1
 545 708 517 725 488 749 c 1
 448 723 416 707 376 690 c 1
 361 711 l 1
 403 739 439 771 475 805 c 1
 518 805 l 1
EndSplineSet
Refer: 732 913 N 1 0 0 1 0 0 2
EndChar

StartChar: Aring
Encoding: 197 197 132
Width: 719
GlyphClass: 2
Flags: MW
AnchorPoint: "above" 364 894 basechar 0
LayerCount: 2
Fore
SplineSet
316 288 m 2
 470 288 l 1
 454 371 446 409 429 494 c 1
 391 429 314 300 314 300 c 2
 309.8 292.9 309.8 288 316 288 c 2
633 91 m 2
 638.7 62.6 644.5 40.8 692 34 c 2
 706 32 l 2
 710 31.4 716 29 716 23 c 1
 712 0 l 1
 710 -2 l 1
 710 -2 673 0 634 0 c 0
 598 0 450 -2 450 -2 c 1
 448 0 l 1
 451 23 l 2
 451.8 29.5 453 31.3 458 32 c 2
 469 34 l 2
 493.4 38.4 515.8 47.9 511 73 c 2
 479 241 l 1
 290 241 l 2
 282 241 277.3 237.4 271 227 c 2
 178 73 l 2
 165 51 187.6 38.4 212 34 c 2
 223 32 l 2
 228 31.3 230 29 230 23 c 2
 227 0 l 1
 225 -2 l 1
 225 -2 137 0 101 0 c 0
 62 0 15 -2 15 -2 c 1
 13 0 l 1
 15 23 l 2
 15.5 29.1 21 31.4 25 32 c 2
 39 34 l 2
 86.5 40.8 108.8 69.7 123.7 94.5 c 2
 444 627 l 2
 447 632 450.3 636.2 453.8 639.8 c 1
 430.9 650.4 416 672.5 416 700 c 0
 416 705 417 711 418 716 c 0
 427 761 473 799 520 799 c 0
 560 799 591 771 591 732 c 0
 591 727 590 721 589 716 c 0
 582.3 682.4 554.8 652.7 521.4 639.8 c 1
 522.8 636.1 524 631.8 525 627 c 2
 633 91 l 2
514 768 m 0
 486 768 460 743 454 716 c 0
 454 712 453 709 453 706 c 0
 453 684 468 664 493 664 c 0
 522 664 548 690 553 716 c 0
 554 720 554 723 554 727 c 0
 554 750 538 768 514 768 c 0
EndSplineSet
EndChar

StartChar: AE
Encoding: 198 198 133
Width: 873
GlyphClass: 2
Flags: MW
AnchorPoint: "below" 549 -107 basechar 0
AnchorPoint: "cedilla" 549 4 basechar 0
AnchorPoint: "above" 500 850 basechar 0
LayerCount: 2
Fore
SplineSet
333 305 m 1
 485 305 l 1
 527 545 l 2
 527.8 549.2 528.2 552.9 528.2 556 c 0
 528.2 563.3 526.1 567.4 522.1 567.4 c 0
 517.1 567.4 509.2 560.9 499 546 c 2
 333 305 l 1
495 1 m 1
 347 -1 l 1
 346 1 l 1
 350 23 l 2
 351 29 354 33 359 33 c 2
 385 33 l 2
 424 33 440 49 445 77 c 2
 478 266 l 1
 307 266 l 1
 170 68 l 2
 165.4 61.4 163.4 55.9 163.4 51.5 c 0
 163.4 36.6 186.3 33 211 33 c 0
 215 33 216 29 216 27 c 2
 211 1 l 1
 209 -1 l 1
 209 -1 137 1 100 1 c 0
 66 1 4 -1 4 -1 c 1
 2 1 l 1
 6 25 l 2
 7 30 12 33 17 33 c 2
 39 33 l 2
 66 33 79 35 104 70 c 2
 439 562 l 2
 446.2 572.7 449.5 581.4 449.5 588.5 c 0
 449.5 605.9 429.3 613 398 613 c 0
 392 613 391 616 392 620 c 2
 396 645 l 1
 398 646 l 1
 610 646 l 1
 920 646 l 1
 914 589 912 536 912 485 c 1
 872 476 l 1
 868 527 857 601 792 601 c 2
 668 601 l 2
 659 601 653 593 649 572 c 2
 613 366 l 1
 722 366 l 2
 745 366 754 396 767 437 c 0
 768 441 775 448 785 448 c 2
 805 448 l 1
 809 438 l 1
 804 422 792 381 786 345 c 0
 779 309 777 269 776 252 c 1
 769 243 l 1
 748 243 l 2
 739 243 734 249 735 253 c 0
 735.2 262.8 735.5 271.9 735.5 280.2 c 0
 735.5 306.6 732.5 324 715 324 c 2
 605 324 l 1
 562 76 l 2
 560.5 69.2 559.8 63.8 559.8 59.7 c 0
 559.8 50 563.7 47 570 47 c 2
 717 47 l 2
 770 47 815 106 844 180 c 1
 884 170 l 1
 864 117 845 55 828 1 c 1
 495 1 l 1
EndSplineSet
EndChar

StartChar: Ccedilla
Encoding: 199 199 134
Width: 637
GlyphClass: 2
Flags: MW
AnchorPoint: "above" 371 850 basechar 0
LayerCount: 2
Fore
SplineSet
354 -10 m 0
 164.5 -10 82.1 112.7 82.1 250.1 c 0
 82.1 271.5 84.1 293.3 88 315 c 0
 122 512 295 658 472 658 c 0
 600 658 625 614 674 614 c 1
 668 556 665 500 665 445 c 1
 627 437 l 1
 614 532 588 617 465 617 c 0
 372 617 251 532 216 334 c 0
 211.2 306.5 208.6 278.4 208.6 251 c 0
 208.6 136.7 252.9 34 361 34 c 0
 438 34 514 66 603 153 c 1
 628 129 l 1
 562.9 56.7 490.8 10.8 412.5 -4.4 c 1
 382 -54 l 1
 399 -52 l 1
 444 -52 473 -71 473 -105 c 0
 473 -108 473 -113 472 -117 c 0
 463 -162 408 -187 335 -187 c 0
 297 -187 276 -179 247 -165 c 1
 265 -142 l 1
 298 -157 323 -158 335 -158 c 0
 353 -158 386 -146 391 -122 c 0
 391 -120 391 -119 391 -117 c 0
 391 -101 373 -88 363 -88 c 0
 350 -88 340 -91 316 -103 c 1
 307 -86 l 1
 355.7 -10 l 2
 355.1 -10 354.6 -10 354 -10 c 0
EndSplineSet
EndChar

StartChar: Egrave
Encoding: 200 200 135
Width: 538
GlyphClass: 2
Flags: MW
AnchorPoint: "below" 279 -107 basechar 0
AnchorPoint: "cedilla" 279 4 basechar 0
LayerCount: 2
Fore
SplineSet
411 817 m 1
 519 733 l 2
 528 726 531 720 531 714 c 0
 531 709 528 697 514 697 c 0
 505 697 493 700 473 709 c 2
 328 772 l 1
 411 817 l 1
EndSplineSet
Refer: 37 69 N 1 0 0 1 0 0 2
EndChar

StartChar: Eacute
Encoding: 201 201 136
Width: 562
GlyphClass: 2
Flags: MW
AnchorPoint: "below" 279 -107 basechar 0
AnchorPoint: "cedilla" 279 4 basechar 0
LayerCount: 2
Fore
SplineSet
516 824 m 1
 574 768 l 1
 421 710 l 2
 398 701 385 698 376 698 c 0
 368 698 364 702 364 710 c 2
 364 710 364 712 364 713 c 0
 365 720 370 732 379 738 c 2
 516 824 l 1
EndSplineSet
Refer: 37 69 N 1 0 0 1 0 0 2
EndChar

StartChar: Ecircumflex
Encoding: 202 202 137
Width: 538
GlyphClass: 2
Flags: MW
AnchorPoint: "below" 279 -107 basechar 0
AnchorPoint: "cedilla" 279 4 basechar 0
AnchorPoint: "above" 296 894 basechar 0
LayerCount: 2
Fore
SplineSet
444 805 m 1
 468 769 499 738 530 711 c 1
 507 690 l 1
 471 708 443 725 414 749 c 1
 374 723 342 707 302 690 c 1
 287 711 l 1
 329 739 365 771 401 805 c 1
 444 805 l 1
EndSplineSet
Refer: 37 69 N 1 0 0 1 0 0 2
EndChar

StartChar: Igrave
Encoding: 204 204 139
Width: 343
GlyphClass: 2
Flags: MW
LayerCount: 2
Fore
SplineSet
258 817 m 1
 366 733 l 2
 375 726 378 720 378 714 c 0
 378 709 375 697 361 697 c 0
 352 697 340 700 320 709 c 2
 175 772 l 1
 258 817 l 1
EndSplineSet
Refer: 41 73 N 1 0 0 1 0 0 2
EndChar

StartChar: Iacute
Encoding: 205 205 140
Width: 343
GlyphClass: 2
Flags: MW
LayerCount: 2
Fore
SplineSet
361 823 m 1
 419 767 l 1
 266 709 l 2
 243 700 230 697 221 697 c 0
 213 697 209 701 209 709 c 2
 209 709 209 711 209 712 c 0
 210 719 215 731 224 737 c 2
 361 823 l 1
EndSplineSet
Refer: 41 73 N 1 0 0 1 0 0 2
EndChar

StartChar: Icircumflex
Encoding: 206 206 141
Width: 343
GlyphClass: 2
Flags: MW
AnchorPoint: "above" 144 894 basechar 0
LayerCount: 2
Fore
SplineSet
346 805 m 1
 370 769 401 738 432 711 c 1
 409 690 l 1
 373 708 345 725 316 749 c 1
 276 723 244 707 204 690 c 1
 189 711 l 1
 231 739 267 771 303 805 c 1
 346 805 l 1
EndSplineSet
Refer: 41 73 N 1 0 0 1 0 0 2
EndChar

StartChar: Eth
Encoding: 208 208 143
Width: 688
GlyphClass: 2
Flags: MW
AnchorPoint: "above" 341 850 basechar 0
LayerCount: 2
Fore
SplineSet
225 75 m 2
 224.2 70.6 223.7 66.6 223.7 63.2 c 0
 223.7 44.3 238.5 40 302 40 c 0
 425 40 542 88 577 284 c 0
 581.8 311.9 584.5 340.5 584.5 368.5 c 0
 584.5 492.3 532.1 606 378 606 c 0
 344 606 318 603 312 571 c 2
 270.3 333 l 1
 355 333 l 1
 347 287 l 1
 262.2 287 l 1
 225 75 l 2
23 0 m 1
 21 2 l 1
 25 24 l 2
 26 30 30 33 34 33 c 2
 48 33 l 2
 86 33 103 45 108 77 c 2
 145.1 287 l 1
 76 287 l 1
 84 333 l 1
 153.3 333 l 1
 195 569 l 2
 195.9 573.9 196.4 578.4 196.4 582.4 c 0
 196.4 604.4 182.1 613 150 613 c 2
 136 613 l 2
 133 613 129 616 130 621 c 2
 134 644 l 1
 137 646 l 1
 421 646 l 2
 595.4 646 713 524.4 713 366.4 c 0
 713 347.7 711.4 328.5 708 309 c 0
 664 63 467 0 324 0 c 2
 23 0 l 1
EndSplineSet
EndChar

StartChar: Ograve
Encoding: 210 210 145
Width: 734
GlyphClass: 2
Flags: MW
AnchorPoint: "cedilla" 350 0 basechar 0
AnchorPoint: "below" 350 -110 basechar 0
AnchorPoint: "above" 344 894 basechar 0
AnchorPoint: "komb_OR" 620 606 basechar 0
LayerCount: 2
Fore
SplineSet
471 819 m 1
 579 735 l 2
 588 728 591 722 591 716 c 0
 591 711 588 699 574 699 c 0
 565 699 553 702 533 711 c 2
 388 774 l 1
 471 819 l 1
EndSplineSet
Refer: 47 79 N 1 0 0 1 0 0 2
EndChar

StartChar: Oacute
Encoding: 211 211 146
Width: 734
GlyphClass: 2
Flags: MW
AnchorPoint: "below" 350 -110 basechar 0
AnchorPoint: "cedilla" 350 0 basechar 0
AnchorPoint: "above" 344 894 basechar 0
AnchorPoint: "komb_OR" 620 606 basechar 0
LayerCount: 2
Fore
SplineSet
542 824 m 1
 600 768 l 1
 447 710 l 2
 424 701 411 698 402 698 c 0
 394 698 390 702 390 710 c 2
 390 710 390 712 390 713 c 0
 391 720 396 732 405 738 c 2
 542 824 l 1
EndSplineSet
Refer: 47 79 N 1 0 0 1 0 0 2
EndChar

StartChar: Ocircumflex
Encoding: 212 212 147
Width: 734
GlyphClass: 2
Flags: MW
AnchorPoint: "below" 350 -110 basechar 0
AnchorPoint: "cedilla" 350 0 basechar 0
AnchorPoint: "above" 344 894 basechar 0
AnchorPoint: "komb_OR" 620 606 basechar 0
LayerCount: 2
Fore
SplineSet
538 805 m 1
 562 769 593 738 624 711 c 1
 601 690 l 1
 565 708 537 725 508 749 c 1
 468 723 436 707 396 690 c 1
 381 711 l 1
 423 739 459 771 495 805 c 1
 538 805 l 1
EndSplineSet
Refer: 47 79 N 1 0 0 1 0 0 2
EndChar

StartChar: multiply
Encoding: 215 215 150
Width: 551
GlyphClass: 2
Flags: MW
LayerCount: 2
Fore
SplineSet
336 275 m 1
 477 392 l 1
 520 339 l 1
 379 222 l 1
 472 105 l 1
 408 52 l 1
 315 168 l 1
 174 52 l 1
 132 105 l 1
 272 222 l 1
 179 339 l 1
 243 392 l 1
 336 275 l 1
EndSplineSet
EndChar

StartChar: Oslash
Encoding: 216 216 151
Width: 734
GlyphClass: 2
Flags: MW
AnchorPoint: "below" 350 -110 basechar 0
AnchorPoint: "cedilla" 350 0 basechar 0
AnchorPoint: "above" 351 850 basechar 0
LayerCount: 2
Fore
SplineSet
97 -40 m 1
 62 -14 l 1
 154.1 79 l 1
 117.8 121.9 97 178.8 97 247 c 0
 97 442 260 658 493 658 c 0
 561.9 658 624.3 638.2 672.6 602 c 1
 740 670 l 1
 774 646 l 1
 703.5 574.6 l 1
 746.9 529.1 773 466.5 773 391 c 0
 773 193 619 -12 375 -12 c 0
 299.1 -12 233.3 9.5 184.8 48.9 c 1
 97 -40 l 1
473 617 m 0
 328 617 232 414 232 245 c 0
 232 216.2 235.1 189.9 240.9 166.5 c 1
 608.6 537.4 l 1
 578.9 590.2 530 617 473 617 c 0
626.1 496.1 m 1
 256.7 121.9 l 1
 285.7 61.6 338 29 402 29 c 0
 544 29 639 227 639 402 c 0
 639 437.8 634.4 469.1 626.1 496.1 c 1
EndSplineSet
EndChar

StartChar: Ugrave
Encoding: 217 217 152
Width: 683
GlyphClass: 2
Flags: MW
AnchorPoint: "above" 344 894 basechar 0
LayerCount: 2
Fore
SplineSet
445 818 m 1
 553 734 l 2
 562 727 565 721 565 715 c 0
 565 710 562 698 548 698 c 0
 539 698 527 701 507 710 c 2
 362 773 l 1
 445 818 l 1
EndSplineSet
Refer: 53 85 N 1 0 0 1 0 0 2
EndChar

StartChar: Uacute
Encoding: 218 218 153
Width: 683
GlyphClass: 2
Flags: MW
AnchorPoint: "above" 344 894 basechar 0
LayerCount: 2
Fore
SplineSet
564 823 m 1
 622 767 l 1
 469 709 l 2
 446 700 433 697 424 697 c 0
 416 697 412 701 412 709 c 2
 412 709 412 711 412 712 c 0
 413 719 418 731 427 737 c 2
 564 823 l 1
EndSplineSet
Refer: 53 85 N 1 0 0 1 0 0 2
EndChar

StartChar: Ucircumflex
Encoding: 219 219 154
Width: 683
GlyphClass: 2
Flags: MW
AnchorPoint: "above" 344 894 basechar 0
LayerCount: 2
Fore
SplineSet
539 805 m 1
 563 769 594 738 625 711 c 1
 602 690 l 1
 566 708 538 725 509 749 c 1
 469 723 437 707 397 690 c 1
 382 711 l 1
 424 739 460 771 496 805 c 1
 539 805 l 1
EndSplineSet
Refer: 53 85 N 1 0 0 1 0 0 2
EndChar

StartChar: Yacute
Encoding: 221 221 156
Width: 592
GlyphClass: 2
Flags: MW
AnchorPoint: "above" 344 894 basechar 0
LayerCount: 2
Fore
SplineSet
525 824 m 1
 583 768 l 1
 430 710 l 2
 407 701 394 698 385 698 c 0
 377 698 373 702 373 710 c 2
 373 710 373 712 373 713 c 0
 374 720 379 732 388 738 c 2
 525 824 l 1
EndSplineSet
Refer: 57 89 N 1 0 0 1 0 0 2
EndChar

StartChar: Thorn
Encoding: 222 222 157
Width: 561
GlyphClass: 2
Flags: MW
AnchorPoint: "above" 281 850 basechar 0
LayerCount: 2
Fore
SplineSet
296 477 m 1
 245 189 l 1
 253 187 276 185 312 185 c 0
 382 185 450 214 473 343 c 0
 476.2 361.4 477.7 377.6 477.7 391.8 c 0
 477.7 470.7 432.3 490 384 490 c 0
 365 490 318 482 296 477 c 1
153 1 m 0
 116 1 22 -1 22 -1 c 1
 21 1 l 1
 25 24 l 2
 26 30 30 33 34 33 c 2
 48 33 l 2
 86 33 103 45 108 77 c 2
 195 569 l 2
 195.9 573.9 196.4 578.4 196.4 582.4 c 0
 196.4 604.4 182.1 613 150 613 c 2
 136 613 l 2
 133 613 129 616 130 621 c 2
 134 645 l 1
 137 646 l 1
 137 646 232 645 270 645 c 0
 304 645 409 646 409 646 c 1
 411 645 l 1
 407 621 l 2
 406 616 402 613 398 613 c 2
 373 613 l 2
 333 613 317 598 312 570 c 2
 304 521 l 1
 339 523 384 523 401 523 c 0
 553.9 523 592.6 441.7 592.6 373.8 c 0
 592.6 363.1 591.6 352.7 590 343 c 0
 577 268 493 150 323 150 c 0
 288 150 254 151 239 157 c 1
 225 77 l 2
 224.3 72.6 223.9 68.6 223.9 64.9 c 0
 223.9 42.6 237.4 33 270 33 c 2
 295 33 l 2
 300 33 303 30 302 24 c 2
 298 1 l 1
 296 -1 l 1
 296 -1 191 1 153 1 c 0
EndSplineSet
EndChar

StartChar: germandbls
Encoding: 223 223 158
Width: 588
GlyphClass: 2
Flags: MW
LayerCount: 2
Fore
SplineSet
318 130 m 0
 330 130 349 124 349 100 c 0
 349 77 328 66 328 48 c 0
 328 28 346 26 366 26 c 0
 414 26 451 121 451 202 c 0
 451 276 418 343 360 396 c 1
 363 409 l 1
 389 426 491 506 491 606 c 0
 491 643 485 662 448 662 c 0
 361 662 336 561 300 408 c 0
 235 135 197 -72 125 -175 c 0
 97 -215 45 -238 -9 -238 c 0
 -78 -238 -94 -204 -94 -188 c 0
 -94 -175 -85 -150 -55 -150 c 0
 -14 -150 -23 -196 10 -196 c 0
 23 -196 35 -193 51 -178 c 0
 81 -148 122 42 140 141 c 2
 184 380 l 2
 186 391 185 399 172 399 c 2
 128 399 l 2
 125 399 123 399 123 401 c 0
 123 409 129 434 153 434 c 0
 184 434 198 450 206 477 c 0
 250 639 359 698 464 698 c 0
 555 698 606 650 606 606 c 0
 606 524 516 459 442 411 c 1
 441 409 l 1
 500 366 578 307 578 216 c 0
 578 121 480 -10 359 -10 c 0
 292 -10 265 23 265 58 c 0
 265 108 300 130 318 130 c 0
EndSplineSet
EndChar

StartChar: ae
Encoding: 230 230 165
Width: 715
GlyphClass: 2
Flags: MW
AnchorPoint: "below" 327 -109 basechar 0
AnchorPoint: "ogonek" 604 30 basechar 0
AnchorPoint: "above" 350 645 basechar 0
LayerCount: 2
Fore
SplineSet
600 403 m 0
 547 403 500 339 473 260 c 1
 581 267 632 285 645 339 c 0
 646 344 646 348 646 353 c 0
 646 378 629 403 600 403 c 0
312 103 m 0
 320 118 332 162 344 209 c 1
 246 197 190 156 180 111 c 0
 178 103 177 95 177 87 c 0
 177 58 192 38 230 38 c 0
 255 38 285 56 312 103 c 0
357 383 m 0
 346 398 333 407 321 407 c 0
 293 407 256 394 250 366 c 2
 246 348 l 1
 248 340 249 333 248 328 c 0
 244 311 218 292 179 292 c 0
 139 292 127 311 127 329 c 0
 127 333 127 336 128 340 c 0
 142 400 240 445 333 445 c 0
 356 445 427 439 460 396 c 1
 501 427 556 445 610 445 c 0
 727 445 766 389 766 352 c 0
 766 349 765 345 765 342 c 0
 746 263 682 230 461 217 c 1
 456 196 454 177 454 159 c 0
 454 89 486 44 535 44 c 0
 577 44 613 67 659 109 c 1
 694 83 l 1
 653 29 586 -12 508 -12 c 0
 426 -12 388 15 368 39 c 1
 328 8 271 -12 217 -12 c 0
 113 -12 61 26 61 83 c 0
 61 91 62 99 64 107 c 0
 84 197 184 239 354 253 c 1
 363 295 367 324 367 345 c 0
 367 363 364 375 357 383 c 0
EndSplineSet
EndChar

StartChar: ccedilla
Encoding: 231 231 166
Width: 444
GlyphClass: 2
Flags: MW
AnchorPoint: "above" 255 834 basechar 0
LayerCount: 2
Fore
SplineSet
219 -82 m 0
 206 -82 196 -85 172 -97 c 1
 163 -80 l 1
 209.6 -7.3 l 1
 125.7 8.9 72 94.3 72 152 c 0
 72 318 212 444 337 444 c 0
 447 444 483 387 483 337 c 0
 483 300 436 287 421 287 c 0
 377 287 367 306 367 323 c 0
 367 342 371 340 371 370 c 0
 371 399 348 405 340 405 c 0
 274 405 196 318 196 173 c 0
 196 59 243 41 269 41 c 0
 292 41 352 70 392 116 c 1
 432 82 l 1
 388.3 37.4 339.7 -2.2 262 -9 c 1
 238 -48 l 1
 255 -46 l 1
 300 -46 329 -65 329 -99 c 0
 329 -102 329 -107 328 -111 c 0
 319 -156 264 -181 191 -181 c 0
 153 -181 132 -173 103 -159 c 1
 121 -136 l 1
 154 -151 179 -152 191 -152 c 0
 209 -152 242 -140 247 -116 c 0
 247 -114 247 -113 247 -111 c 0
 247 -95 229 -82 219 -82 c 0
EndSplineSet
EndChar

StartChar: eth
Encoding: 240 240 175
Width: 512
GlyphClass: 2
Flags: MW
LayerCount: 2
Fore
SplineSet
267 34 m 0
 305 34 371 67 407 225 c 0
 416 265 421 305 421 341 c 0
 421 347 421 353 420 358 c 1
 424 357 l 1
 408 384 382 403 351 403 c 0
 268 403 224 300 207 227 c 0
 200 199 197 173 197 150 c 0
 197 80 224 34 267 34 c 0
83 209 m 0
 123 383 272 445 362 445 c 0
 379 445 396 443 411 440 c 1
 401 486 388 525 370 560 c 1
 329 536 277 506 243 486 c 1
 222 534 l 1
 343 604 l 1
 339 609 336 613 333 618 c 0
 313 642 295 663 276 679 c 1
 309 713 l 1
 350 688 384 665 408 642 c 1
 448 666 501 696 537 717 c 1
 559 669 l 1
 446 604 l 1
 450 599 455 594 458 589 c 0
 509 522 545 437 545 337 c 0
 545 306 542 273 534 239 c 0
 494 68 362 -12 240 -12 c 0
 126 -12 76 68 76 155 c 0
 76 173 78 191 83 209 c 0
EndSplineSet
EndChar

StartChar: ntilde
Encoding: 241 241 176
Width: 606
GlyphClass: 2
Flags: MW
AnchorPoint: "above" 255 834 basechar 0
LayerCount: 2
Fore
SplineSet
389 125 m 2
 424 275 l 2
 435.4 324 451 374 412 374 c 0
 390 374 338 335 289 262 c 0
 256.7 213.9 236.8 145.9 219.9 72 c 0
 212 37.5 215.2 -10 146 -10 c 0
 94 -10 89.1 0.5 89.1 17.2 c 0
 89.1 27 97 52 101.8 72 c 2
 158 321 l 2
 163.4 345.1 164 357.9 164 367 c 0
 164 377 161 386 149 387 c 2
 109 390 l 1
 103 399 101.3 415 108 423 c 1
 155 429 239 436 271 436 c 0
 284.2 436 291.5 428.6 291.5 414.9 c 0
 291.5 397.8 279.9 358.7 269.3 320.2 c 2
 264 301 l 1
 265 300 l 1
 357 408 411 439 510 439 c 0
 571 439 563 353.5 546 283 c 2
 510 134 l 2
 506.3 118.8 500.6 97.4 500.6 82.7 c 0
 500.6 72.8 503.3 66 511 66 c 0
 521 66 549.5 80.5 574 100 c 1
 588 100 597.5 88 600 74 c 1
 533.5 19 484.5 -10 422 -10 c 0
 388 -10 377.1 13.3 377.1 46.2 c 0
 377.1 69.3 382.5 97.1 389 125 c 2
EndSplineSet
Refer: 648 732 N 1 0 0 1 131 -47 2
EndChar

StartChar: divide
Encoding: 247 247 182
Width: 551
GlyphClass: 2
Flags: MW
LayerCount: 2
Fore
SplineSet
316 367 m 0
 321 392 346 413 372 413 c 0
 398 413 414 392 409 367 c 0
 404 341 379 320 353 320 c 0
 327 320 311 341 316 367 c 0
261 98 m 0
 266 124 291 145 317 145 c 0
 343 145 360 124 354 98 c 0
 349 73 324 51 298 51 c 0
 273 51 256 73 261 98 c 0
553 263 m 1
 542 205 l 1
 118 205 l 1
 130 263 l 1
 553 263 l 1
EndSplineSet
EndChar

StartChar: oslash
Encoding: 248 248 183
Width: 507
GlyphClass: 2
Flags: MW
AnchorPoint: "ogonek" 372 44 basechar 0
AnchorPoint: "cedilla" 241 -3 basechar 0
AnchorPoint: "below" 243 -110 basechar 0
LayerCount: 2
Fore
SplineSet
537 456 m 1
 565 429 l 1
 497.2 364.4 l 1
 511.6 337.1 517 306.5 517 279 c 0
 517 121 383 -10 246 -10 c 0
 198.9 -10 164 3.1 138.3 22.6 c 1
 83 -30 l 1
 56 0 l 1
 109.9 51.1 l 1
 80.7 89.3 72 136.5 72 165 c 0
 72 285 162 444 342 444 c 0
 405.2 444 447.2 424.5 474.2 396.4 c 1
 537 456 l 1
390.1 316.8 m 1
 383.7 362.5 365.4 402 323 402 c 0
 226 402 198 260 198 173 c 0
 198 159.5 198.6 147.3 199.7 136.2 c 1
 390.1 316.8 l 1
392.9 265.1 m 1
 208.9 89.9 l 1
 224.9 41 254.7 32 271 32 c 0
 364.7 32 391.2 196.3 392.9 265.1 c 1
EndSplineSet
EndChar

StartChar: ugrave
Encoding: 249 249 184
Width: 561
GlyphClass: 2
Flags: MW
AnchorPoint: "above" 255 834 basechar 0
LayerCount: 2
Fore
SplineSet
280 315 m 2
 238 153 l 2
 232.1 130.1 228 98 228 82 c 0
 228 63 233 49 249 49 c 0
 278 49 368.9 105 399 236 c 2
 399 236 430 372 445 436 c 1
 477.3 435 529.7 435 563 436 c 1
 486 125 l 2
 481.3 105.9 479 92 479 83 c 0
 479 71 484 67 489 67 c 0
 500 67 524 84.7 545 106 c 1
 557.9 101.8 565 93 570 82 c 1
 508 19 469 -10 417 -10 c 0
 366 -10 354 21 354 39 c 0
 354 43 356.3 70.7 369.3 92 c 0
 370.3 93.3 368.2 94.1 366.3 92 c 0
 310.1 30.9 250.3 -10 200 -10 c 0
 138.3 -10 108 24 108 64 c 0
 108 82 112.2 114.3 119 141 c 2
 162 309 l 2
 167 328 169 342 169 351 c 0
 169 362 165 367 161 367 c 0
 149 367 129 353 107 325 c 1
 94.7 331.3 86 340.3 79 352 c 1
 148.5 424.5 187 444 239 444 c 0
 291 444 294 413 294 395 c 0
 294 378 287.9 345 280 315 c 2
EndSplineSet
Refer: 657 768 N 1 0 0 1 394 -37 2
EndChar

StartChar: uacute
Encoding: 250 250 185
Width: 561
GlyphClass: 2
Flags: MW
AnchorPoint: "above" 255 834 basechar 0
LayerCount: 2
Fore
SplineSet
280 315 m 2
 238 153 l 2
 232.1 130.1 228 98 228 82 c 0
 228 63 233 49 249 49 c 0
 278 49 368.9 105 399 236 c 2
 399 236 430 372 445 436 c 1
 477.3 435 529.7 435 563 436 c 1
 486 125 l 2
 481.3 105.9 479 92 479 83 c 0
 479 71 484 67 489 67 c 0
 500 67 524 84.7 545 106 c 1
 557.9 101.8 565 93 570 82 c 1
 508 19 469 -10 417 -10 c 0
 366 -10 354 21 354 39 c 0
 354 43 356.3 70.7 369.3 92 c 0
 370.3 93.3 368.2 94.1 366.3 92 c 0
 310.1 30.9 250.3 -10 200 -10 c 0
 138.3 -10 108 24 108 64 c 0
 108 82 112.2 114.3 119 141 c 2
 162 309 l 2
 167 328 169 342 169 351 c 0
 169 362 165 367 161 367 c 0
 149 367 129 353 107 325 c 1
 94.7 331.3 86 340.3 79 352 c 1
 148.5 424.5 187 444 239 444 c 0
 291 444 294 413 294 395 c 0
 294 378 287.9 345 280 315 c 2
EndSplineSet
Refer: 658 769 N 1 0 0 1 435 -46 2
EndChar

StartChar: ucircumflex
Encoding: 251 251 186
Width: 561
GlyphClass: 2
Flags: MW
AnchorPoint: "above" 247 834 basechar 0
LayerCount: 2
Fore
SplineSet
280 315 m 2
 238 153 l 2
 232.1 130.1 228 98 228 82 c 0
 228 63 233 49 249 49 c 0
 278 49 368.9 105 399 236 c 2
 399 236 430 372 445 436 c 1
 477.3 435 529.7 435 563 436 c 1
 486 125 l 2
 481.3 105.9 479 92 479 83 c 0
 479 71 484 67 489 67 c 0
 500 67 524 84.7 545 106 c 1
 557.9 101.8 565 93 570 82 c 1
 508 19 469 -10 417 -10 c 0
 366 -10 354 21 354 39 c 0
 354 43 356.3 70.7 369.3 92 c 0
 370.3 93.3 368.2 94.1 366.3 92 c 0
 310.1 30.9 250.3 -10 200 -10 c 0
 138.3 -10 108 24 108 64 c 0
 108 82 112.2 114.3 119 141 c 2
 162 309 l 2
 167 328 169 342 169 351 c 0
 169 362 165 367 161 367 c 0
 149 367 129 353 107 325 c 1
 94.7 331.3 86 340.3 79 352 c 1
 148.5 424.5 187 444 239 444 c 0
 291 444 294 413 294 395 c 0
 294 378 287.9 345 280 315 c 2
EndSplineSet
Refer: 629 710 N 1 0 0 1 75 -22 2
EndChar

StartChar: udieresis
Encoding: 252 252 187
Width: 561
GlyphClass: 3
Flags: MW
AnchorPoint: "above" 255 834 basechar 0
LayerCount: 2
Fore
SplineSet
280 315 m 2
 238 153 l 2
 232.1 130.1 228 98 228 82 c 0
 228 63 233 49 249 49 c 0
 278 49 368.9 105 399 236 c 2
 399 236 430 372 445 436 c 1
 477.3 435 529.7 435 563 436 c 1
 486 125 l 2
 481.3 105.9 479 92 479 83 c 0
 479 71 484 67 489 67 c 0
 500 67 524 84.7 545 106 c 1
 557.9 101.8 565 93 570 82 c 1
 508 19 469 -10 417 -10 c 0
 366 -10 354 21 354 39 c 0
 354 43 356.3 70.7 369.3 92 c 0
 370.3 93.3 368.2 94.1 366.3 92 c 0
 310.1 30.9 250.3 -10 200 -10 c 0
 138.3 -10 108 24 108 64 c 0
 108 82 112.2 114.3 119 141 c 2
 162 309 l 2
 167 328 169 342 169 351 c 0
 169 362 165 367 161 367 c 0
 149 367 129 353 107 325 c 1
 94.7 331.3 86 340.3 79 352 c 1
 148.5 424.5 187 444 239 444 c 0
 291 444 294 413 294 395 c 0
 294 378 287.9 345 280 315 c 2
EndSplineSet
Refer: 665 776 N 1 0 0 1 509 -5.7998 2
EndChar

StartChar: thorn
Encoding: 254 254 189
Width: 537
GlyphClass: 2
Flags: MW
AnchorPoint: "above" 278 646 basechar 0
LayerCount: 2
Fore
SplineSet
430 274 m 0
 430 321 416 390 367 390 c 0
 342 390 312 385 289 370 c 1
 219 67 l 1
 238 43 258 32 274 32 c 0
 380 32 430 209 430 274 c 0
165 344 m 1
 215 557 l 2
 220.2 578.7 222 596 222 607 c 0
 222 629 214 635 201 635 c 2
 170 637 l 2
 166 637 165 639 165 642 c 2
 169 672 l 1
 210 675 324 688 351 698 c 1
 360 698 363 695 363 688 c 1
 363 688 352.9 647.6 338 583 c 2
 302 423 l 1
 328 433 360 444 399 444 c 0
 519 444 554 380 554 290 c 0
 554 184 424 -10 272 -10 c 0
 246 -10 223 -7 204 1 c 1
 193 -50 180 -107 168 -157 c 0
 167 -162 167 -167 167 -172 c 0
 167 -187 170 -196 180 -196 c 2
 198 -196 l 2
 218 -196 227 -201 227 -208 c 2
 227 -232 l 1
 225 -234 l 1
 225 -234 135 -232 97 -232 c 0
 62 -232 -27 -238 -27 -238 c 1
 -29 -236 l 1
 -29 -213 l 2
 -29 -204 -14 -201 2 -201 c 2
 21 -201 l 2
 38 -201 46 -182 52 -156 c 2
 148 271 l 1
 133 256 114 235 102 218 c 1
 66 249 l 1
 90 282 126 314 165 344 c 1
EndSplineSet
EndChar

StartChar: Abreve
Encoding: 258 258 193
Width: 719
GlyphClass: 2
Flags: MW
LayerCount: 2
Fore
SplineSet
649 804 m 1
 632 733 562 691 497 691 c 0
 427 691 378 730 378 793 c 0
 378 797 378 801 378 804 c 1
 409 804 l 1
 411 765 452 746 505 746 c 0
 554 746 607 765 620 804 c 1
 649 804 l 1
EndSplineSet
Refer: 732 913 N 1 0 0 1 0 0 2
EndChar

StartChar: Aogonek
Encoding: 260 260 195
Width: 719
GlyphClass: 2
Flags: MW
AnchorPoint: "above" 365 850 basechar 0
LayerCount: 2
Fore
SplineSet
575 -225 m 0
 521 -225 482 -194 482 -140 c 0
 482 -92.2 522.5 -33.6 583.3 -0.4 c 1
 526.9 -1 450 -2 450 -2 c 1
 448 0 l 1
 451 23 l 2
 451.8 29.5 453 31.3 458 32 c 2
 469 34 l 2
 493.4 38.4 515.8 47.9 511 73 c 2
 479 241 l 1
 290 241 l 2
 282 241 277.3 237.4 271 227 c 2
 178 73 l 2
 165 51 187.6 38.4 212 34 c 2
 223 32 l 2
 228 31.3 230 29 230 23 c 2
 227 0 l 1
 225 -2 l 1
 225 -2 137 0 101 0 c 0
 62 0 15 -2 15 -2 c 1
 13 0 l 1
 15 23 l 2
 15.5 29.1 21 31.4 25 32 c 2
 39 34 l 2
 86.5 40.8 108.8 69.7 123.7 94.5 c 2
 444 627 l 2
 458.2 650.6 480 658 491 658 c 0
 513.5 658 520.8 648 525 627 c 2
 633 91 l 2
 638.7 62.6 644.5 40.8 692 34 c 2
 706 32 l 2
 710 31.4 716 29 716 23 c 1
 712 0 l 1
 710 -2 l 1
 710 -2 696.2 -1.3 676.7 -0.7 c 1
 677 -1 l 1
 597 -1 542 -76 542 -127 c 0
 542 -159 564 -186 600 -186 c 0
 630 -186 650 -171 670 -150 c 1
 685 -158 l 1
 661 -205 611 -225 575 -225 c 0
316 288 m 2
 470 288 l 1
 454 371 446 409 429 494 c 1
 391 429 314 300 314 300 c 2
 309.8 292.9 309.8 288 316 288 c 2
EndSplineSet
EndChar

StartChar: aogonek
Encoding: 261 261 196
Width: 540
GlyphClass: 2
Flags: MW
AnchorPoint: "below" 146 -108 basechar 0
AnchorPoint: "cedilla" 167 -3 basechar 0
AnchorPoint: "above" 209 645 basechar 0
LayerCount: 2
Fore
SplineSet
545 -114 m 1
 507 -159 466 -181 425 -181 c 0
 377 -181 341 -159 341 -115 c 0
 341 -110 341 -104 343 -97 c 0
 349 -66.8 370.4 -37.1 398.3 -9.9 c 1
 350.5 -8.4 340 21.4 340 39 c 0
 340 43 340 52.3 341 58 c 1
 339 59 l 1
 277 0 255.5 -10 216 -10 c 0
 111.5 -10 78 76 78 132 c 0
 78 289 239 444 354 444 c 0
 406 444 428 422 438 392 c 1
 461.1 408 479.2 425.6 495 444 c 1
 550 447 l 2
 551.8 447 552 445.8 552 443.8 c 2
 552 443.8 529.7 359.9 520.3 321 c 2
 473 125 l 2
 468.4 105.9 466 92 466 83 c 0
 466 71 470 67 475 67 c 0
 486 67 503.5 79.5 532 105 c 1
 557 82 l 1
 538.2 63.4 522.1 48.3 507.7 36 c 1
 505 33 l 1
 461 -1 420 -39 410 -91 c 0
 409 -94 409 -97 409 -99 c 0
 409 -121 429 -143 456 -143 c 0
 480 -143 503 -127 529 -105 c 1
 545 -114 l 1
373 195 m 0
 393 248 404 315 404 331 c 0
 404 370 386 405 357 405 c 0
 277 405 200 254 200 151 c 0
 200 97 206 40 250 40 c 0
 278 40 340 112 373 195 c 0
EndSplineSet
EndChar

StartChar: Cacute
Encoding: 262 262 197
Width: 665
GlyphClass: 2
Flags: MW
LayerCount: 2
Fore
SplineSet
579 823 m 1
 637 767 l 1
 484 709 l 2
 461 700 448 697 439 697 c 0
 431 697 427 701 427 709 c 2
 427 709 427 711 427 712 c 0
 428 719 433 731 442 737 c 2
 579 823 l 1
EndSplineSet
Refer: 35 67 N 1 0 0 1 0 0 2
EndChar

StartChar: Ccircumflex
Encoding: 264 264 199
Width: 665
GlyphClass: 2
Flags: MW
LayerCount: 2
Fore
SplineSet
562 806 m 1
 586 770 617 739 648 712 c 1
 625 691 l 1
 589 709 561 726 532 750 c 1
 492 724 460 708 420 691 c 1
 405 712 l 1
 447 740 483 772 519 806 c 1
 562 806 l 1
EndSplineSet
Refer: 35 67 N 1 0 0 1 0 0 2
EndChar

StartChar: Ccaron
Encoding: 268 268 203
Width: 637
GlyphClass: 2
Flags: MW
LayerCount: 2
Fore
SplineSet
493 697 m 1
 469 734 439 764 408 792 c 1
 431 812 l 1
 467 795 494 778 523 753 c 1
 564 780 595 796 636 812 c 1
 651 792 l 1
 609 763 572 731 536 697 c 1
 493 697 l 1
EndSplineSet
Refer: 35 67 N 1 0 0 1 0 0 2
EndChar

StartChar: Dcaron
Encoding: 270 270 205
Width: 688
GlyphClass: 2
Flags: MW
LayerCount: 2
Fore
SplineSet
386 697 m 1
 362 734 332 764 301 792 c 1
 324 812 l 1
 360 795 387 778 416 753 c 1
 457 780 488 796 529 812 c 1
 544 792 l 1
 502 763 465 731 429 697 c 1
 386 697 l 1
EndSplineSet
Refer: 36 68 N 1 0 0 1 0 0 2
EndChar

StartChar: Dcroat
Encoding: 272 272 207
Width: 688
GlyphClass: 2
Flags: MW
LayerCount: 2
Fore
SplineSet
225 75 m 2
 224.2 70.6 223.7 66.6 223.7 63.2 c 0
 223.7 44.3 238.5 40 302 40 c 0
 425 40 542 88 577 284 c 0
 581.8 311.9 584.5 340.5 584.5 368.5 c 0
 584.5 492.3 532.1 606 378 606 c 0
 344 606 318 603 312 571 c 2
 269.7 330 l 1
 365 330 l 2
 373 330 376 325 376 319 c 0
 376 313.3 363.5 286 346 286 c 2
 262 286 l 1
 225 75 l 2
23 0 m 1
 21 2 l 1
 25 24 l 2
 26 30 30 33 34 33 c 2
 48 33 l 2
 86 33 103 45 108 77 c 2
 145 286 l 1
 46 286 l 2
 39 286 36 291 36 297 c 0
 36 304.9 49.1 330 64 330 c 2
 152.7 330 l 1
 195 569 l 2
 195.9 573.9 196.4 578.4 196.4 582.4 c 0
 196.4 604.4 182.1 613 150 613 c 2
 136 613 l 2
 133 613 129 616 130 621 c 2
 134 644 l 1
 137 646 l 1
 421 646 l 2
 595.4 646 713 524.4 713 366.4 c 0
 713 347.7 711.4 328.5 708 309 c 0
 664 63 467 0 324 0 c 2
 23 0 l 1
EndSplineSet
EndChar

StartChar: dcroat
Encoding: 273 273 208
Width: 556
GlyphClass: 2
Flags: MW
LayerCount: 2
Fore
SplineSet
402 332 m 0
 402 372 382 405 353 405 c 0
 262 405 193 271 193 154 c 0
 193 101 197 39 250 39 c 0
 273 39 336 107 367 180 c 1
 387 233 402 317 402 332 c 0
457.4 574 m 1
 459.9 587.8 461 599 461 607 c 0
 461 629 453 635 440 635 c 2
 409 637 l 2
 405 637 404 639 404 642 c 2
 408 672 l 1
 449 675 563 688 590 698 c 1
 599 698 602 695 602 688 c 1
 602 688 592.1 647.6 577 583 c 2
 574.9 574 l 1
 642 574 l 2
 650 574 653 569 653 563 c 0
 653 557.3 640.5 530 623 530 c 2
 564.6 530 l 1
 470 125 l 2
 465.5 105.9 463 92 463 83 c 0
 463 71 467 67 472 67 c 0
 483 67 501 82 523 109 c 1
 554 82 l 1
 492 19 444 -10 392 -10 c 0
 341 -10 337 21 337 39 c 0
 337 43 338 55 339 60 c 1
 337 61 l 1
 284.5 2 242.3 -10 215 -10 c 0
 80 -10 70 97 70 144 c 0
 70 316 243 444 350 444 c 0
 376 444 404 437 425 425 c 1
 432 456.8 441.9 501.6 448.1 530 c 1
 323 530 l 2
 316 530 313 535 313 541 c 0
 313 548.9 326.1 574 341 574 c 2
 457.4 574 l 1
EndSplineSet
EndChar

StartChar: Ebreve
Encoding: 276 276 211
Width: 538
GlyphClass: 2
Flags: MW
LayerCount: 2
Fore
SplineSet
539 803 m 1
 522 732 452 690 387 690 c 0
 317 690 268 729 268 792 c 0
 268 796 268 800 268 803 c 1
 299 803 l 1
 301 764 342 745 395 745 c 0
 444 745 497 764 510 803 c 1
 539 803 l 1
EndSplineSet
Refer: 37 69 N 1 0 0 1 0 0 2
EndChar

StartChar: Eogonek
Encoding: 280 280 215
Width: 538
GlyphClass: 2
Flags: MW
LayerCount: 2
Fore
SplineSet
412 -224 m 0
 358 -224 318 -193 318 -139 c 0
 318 -91.5 358 -33.4 418.2 0 c 1
 25 0 l 1
 23 2 l 1
 27 24 l 2
 28 30 32 33 36 33 c 2
 49 33 l 2
 88 33 104 45 110 77 c 2
 197 569 l 2
 197.7 573.5 198.1 577.6 198.1 581.4 c 0
 198.1 604.1 184.6 613 152 613 c 2
 138 613 l 2
 134 613 131 616 132 621 c 2
 136 644 l 1
 139 646 l 1
 587 646 l 1
 580 588 578 535 578 484 c 1
 538 475 l 1
 534 526 523 600 459 600 c 2
 334 600 l 2
 325 600 319 592 315 571 c 2
 279 365 l 1
 387 365 l 2
 411 365 421 396 434 436 c 1
 434 440 441 447 451 447 c 2
 471 447 l 1
 475 437 l 1
 470 421 458 381 452 344 c 0
 446 308 443 268 442 251 c 1
 435 242 l 1
 415 242 l 2
 405 242 400 248 401 252 c 0
 401.5 262.2 401.9 271.8 401.9 280.4 c 0
 401.9 306.1 398 323 380 323 c 2
 272 323 l 1
 228 75 l 2
 226.8 68.3 226.3 63 226.3 58.9 c 0
 226.3 49 229.6 46 236 46 c 2
 383 46 l 2
 436 46 481 105 510 179 c 1
 550 169 l 1
 532.9 121.4 514.2 66.5 499 16.7 c 1
 513 0 l 1
 433 0 378 -75 378 -126 c 0
 378 -158 400 -185 437 -185 c 0
 466 -185 487 -170 506 -149 c 1
 521 -157 l 1
 498 -204 447 -224 412 -224 c 0
EndSplineSet
EndChar

StartChar: eogonek
Encoding: 281 281 216
Width: 474
GlyphClass: 2
Flags: MW
AnchorPoint: "below" 70 -108 basechar 0
AnchorPoint: "above" 231 645 basechar 0
LayerCount: 2
Fore
SplineSet
393 -140 m 1
 356 -185 314 -208 273 -208 c 0
 226 -208 189 -185 189 -141 c 0
 189 -136 190 -130 191 -124 c 0
 200.1 -80.7 239.3 -39 284.4 -3.9 c 1
 265.2 -8 245.4 -10 225 -10 c 0
 109 -10 79 78 79 165 c 0
 79 278 175 444 358 444 c 0
 454 444 475 405 475 369 c 0
 475 332 465 224 205 186 c 1
 197 93 248 66 277 66 c 0
 313 66 368 75 428 139 c 1
 442 139 456 126 454 110 c 1
 433.3 81.4 409.6 57.7 383.3 39.2 c 1
 388 33 l 1
 334 -9 272 -51 259 -117 c 0
 258 -120 258 -123 258 -125 c 0
 258 -148 278 -169 305 -169 c 0
 329 -169 351 -153 378 -131 c 1
 393 -140 l 1
364 365 m 0
 364 390 348 400 325 400 c 0
 286 400 245 364 210 224 c 1
 284 236 364 268 364 365 c 0
EndSplineSet
EndChar

StartChar: Ecaron
Encoding: 282 282 217
Width: 538
GlyphClass: 2
Flags: MW
LayerCount: 2
Fore
SplineSet
439 697 m 1
 415 734 385 764 354 792 c 1
 377 812 l 1
 413 795 440 778 469 753 c 1
 510 780 541 796 582 812 c 1
 597 792 l 1
 555 763 518 731 482 697 c 1
 439 697 l 1
EndSplineSet
Refer: 37 69 N 1 0 0 1 0 0 2
EndChar

StartChar: Gcircumflex
Encoding: 284 284 219
Width: 696
GlyphClass: 2
Flags: MW
LayerCount: 2
Fore
SplineSet
549 805 m 1
 573 769 604 738 635 711 c 1
 612 690 l 1
 576 708 548 725 519 749 c 1
 479 723 447 707 407 690 c 1
 392 711 l 1
 434 739 470 771 506 805 c 1
 549 805 l 1
EndSplineSet
Refer: 39 71 N 1 0 0 1 0 0 2
EndChar

StartChar: Gbreve
Encoding: 286 286 221
Width: 727
GlyphClass: 2
Flags: MW
LayerCount: 2
Fore
SplineSet
674 806 m 1
 657 735 587 693 522 693 c 0
 452 693 403 732 403 795 c 0
 403 799 403 803 403 806 c 1
 434 806 l 1
 436 767 477 748 530 748 c 0
 579 748 632 767 645 806 c 1
 674 806 l 1
EndSplineSet
Refer: 39 71 N 1 0 0 1 0 0 2
EndChar

StartChar: Hcircumflex
Encoding: 292 292 227
Width: 746
GlyphClass: 2
Flags: MW
LayerCount: 2
Fore
SplineSet
556 803 m 1
 580 767 611 736 642 709 c 1
 619 688 l 1
 583 706 555 723 526 747 c 1
 486 721 454 705 414 688 c 1
 399 709 l 1
 441 737 477 769 513 803 c 1
 556 803 l 1
EndSplineSet
Refer: 40 72 N 1 0 0 1 12 0 2
EndChar

StartChar: hcircumflex
Encoding: 293 293 228
Width: 600
GlyphClass: 2
Flags: MW
LayerCount: 2
Fore
SplineSet
487 832 m 1
 511 796 542 765 573 738 c 1
 550 717 l 1
 514 735 486 752 457 776 c 1
 417 750 385 734 345 717 c 1
 330 738 l 1
 372 766 408 798 444 832 c 1
 487 832 l 1
EndSplineSet
Refer: 1542 8462 N 1 0 0 1 0 0 2
EndChar

StartChar: Hbar
Encoding: 294 294 229
Width: 746
GlyphClass: 2
Flags: MW
LayerCount: 2
Fore
SplineSet
641 569 m 2
 642 573 642 578 642 582 c 0
 642 604 628 613 594 613 c 2
 580 613 l 2
 575 613 572 616 573 621 c 2
 577 645 l 1
 579 646 l 1
 579 646 677 645 716 645 c 0
 751 645 852 646 852 646 c 1
 854 645 l 1
 850 621 l 2
 849 616 845 613 841 613 c 2
 826 613 l 2
 785 613 769 597 764 569 c 2
 760.5 549 l 1
 808 549 l 1
 801 510 l 1
 753.7 510 l 1
 678 77 l 2
 677 73 676 69 676 65 c 0
 676 44 689 33 724 33 c 2
 739 33 l 2
 743 33 746 30 745 24 c 2
 741 1 l 1
 739 -1 l 1
 739 -1 637 1 602 1 c 0
 563 1 466 -1 466 -1 c 1
 464 1 l 1
 468 24 l 2
 469 30 473 33 478 33 c 2
 492 33 l 2
 532 33 549 45 554 77 c 2
 597 321 l 1
 318 321 l 1
 275 77 l 2
 274 73 273 69 273 65 c 0
 273 44 286 33 322 33 c 2
 336 33 l 2
 341 33 343 30 342 24 c 2
 338 1 l 1
 336 -1 l 1
 336 -1 235 1 199 1 c 0
 160 1 63 -1 63 -1 c 1
 61 1 l 1
 65 24 l 2
 66 30 71 33 75 33 c 2
 89 33 l 2
 129 33 146 45 152 77 c 2
 227.7 510 l 1
 186 510 l 1
 192 549 l 1
 234.5 549 l 1
 238 569 l 2
 239 573 240 578 240 582 c 0
 240 604 225 613 191 613 c 2
 177 613 l 2
 173 613 170 615 170 621 c 1
 175 645 l 1
 177 646 l 1
 177 646 274 645 313 645 c 0
 348 645 450 646 450 646 c 1
 451 645 l 1
 447 621 l 2
 446 616 443 613 438 613 c 2
 424 613 l 2
 383 613 366 597 361 569 c 2
 357.5 549 l 1
 637.5 549 l 1
 641 569 l 2
630.8 510 m 1
 350.8 510 l 1
 326 367 l 1
 606 367 l 1
 630.8 510 l 1
EndSplineSet
EndChar

StartChar: hbar
Encoding: 295 295 230
Width: 600
GlyphClass: 2
Flags: MW
LayerCount: 2
Fore
SplineSet
329 569 m 1
 457 569 l 1
 448 530 l 1
 320 530 l 1
 269.5 312.2 l 1
 355.2 410.4 408.8 439 504 439 c 0
 565 439 557 353.5 540 283 c 2
 504 134 l 2
 500.3 118.8 494.6 97.4 494.6 82.7 c 0
 494.6 72.8 497.3 66 505 66 c 0
 515 66 543.5 80.5 568 100 c 1
 582 100 591.5 88 594 74 c 1
 527.5 19 478.5 -10 416 -10 c 0
 382 -10 371.1 13.3 371.1 46.2 c 0
 371.1 69.3 376.5 97.1 383 125 c 2
 418 275 l 2
 429.4 324 445 374 406 374 c 0
 384 374 332 335 283 262 c 0
 251.9 215.7 232.3 151 215.8 80.4 c 2
 213.9 72 l 2
 205.9 37.5 209.2 -10 140 -10 c 0
 88 -10 83.1 0.5 83.1 17.2 c 0
 83.1 27 91.2 51.9 95.8 72 c 2
 200.3 530 l 1
 133 530 l 1
 142 569 l 1
 209.2 569 l 1
 222.7 630 217.5 638 156.4 638 c 1
 153.4 647 155.3 660 161 672 c 1
 232 683.5 298.2 693.9 344.7 698 c 0
 353.7 698 359.9 694 357.9 685 c 2
 357.9 685 347.4 648.4 332.2 583 c 2
 329 569 l 1
EndSplineSet
EndChar

StartChar: itilde
Encoding: 297 297 232
Width: 321
GlyphClass: 2
Flags: MW
AnchorPoint: "below" 136 -110 basechar 0
AnchorPoint: "cedilla" 142 -2 basechar 0
AnchorPoint: "above" 139 795 basechar 0
LayerCount: 2
Fore
SplineSet
317 575 m 0
 335.9 575 349.4 584 369.2 631 c 1
 390.8 621 l 1
 369.2 556 336.8 517 295.4 517 c 0
 275.6 517 259.4 532 243.2 546 c 0
 228.8 559 214.4 571 198.2 571 c 0
 174.8 571 162.2 557 146.9 520 c 1
 125.3 528 l 1
 148.7 593 175.7 630 214.4 630 c 0
 241.4 630 258.5 614 273.8 599 c 0
 286.4 586 299.9 575 317 575 c 0
EndSplineSet
Refer: 240 305 N 1 0 0 1 -2 0 2
EndChar

StartChar: imacron
Encoding: 299 299 234
Width: 326
GlyphClass: 2
Flags: MW
LayerCount: 2
Fore
SplineSet
364.2 536 m 2
 125.7 536 l 2
 119.4 536 116.7 542 116.7 548 c 0
 116.7 550 116.7 551 117.6 553 c 0
 119.4 565 132.9 584 144.6 584 c 2
 382.2 584 l 2
 390.3 584 393 578 393 572 c 0
 393 571 393 570 392.1 568 c 0
 390.3 555 375.9 536 364.2 536 c 2
EndSplineSet
Refer: 240 305 N 1 0 0 1 -2 0 2
EndChar

StartChar: Ibreve
Encoding: 300 300 235
Width: 344
GlyphClass: 2
Flags: MW
LayerCount: 2
Fore
SplineSet
461 806 m 1
 444 735 374 693 309 693 c 0
 239 693 190 732 190 795 c 0
 190 799 190 803 190 806 c 1
 221 806 l 1
 223 767 264 748 317 748 c 0
 366 748 419 767 432 806 c 1
 461 806 l 1
EndSplineSet
Refer: 41 73 N 1 0 0 1 0 0 2
EndChar

StartChar: ibreve
Encoding: 301 301 236
Width: 321
GlyphClass: 2
Flags: MW
LayerCount: 2
Fore
SplineSet
175.5 652 m 1
 174.6 646 174.6 641 174.6 637 c 0
 174.6 593 204.3 562 252.9 562 c 0
 294.3 562 348.3 590 361.8 652 c 1
 387.9 638 l 1
 360 537 286.2 500 241.2 500 c 0
 178.2 500 143.1 550 143.1 618 c 0
 143.1 624 144 631 144.9 638 c 1
 175.5 652 l 1
EndSplineSet
Refer: 240 305 N 1 0 0 1 -2 0 2
EndChar

StartChar: Iogonek
Encoding: 302 302 237
Width: 352
GlyphClass: 2
Flags: MW
AnchorPoint: "above" 146 850 basechar 0
LayerCount: 2
Fore
SplineSet
185 -225 m 0
 131 -225 91 -194 91 -140 c 0
 91 -92 131.8 -33.2 193 -0 c 1
 191.3 0 189.7 0 188 0 c 0
 131 0 90 -1 41 -2 c 1
 36 4 35 27 42 33 c 1
 113 36 133 39 148 122 c 2
 218 523 l 2
 221.3 541.1 223 555.5 223 567 c 0
 223 608 204.9 609.7 151 612 c 1
 146 618 144 641 151 647 c 1
 201 646 242 645 301 645 c 0
 358 645 399 646 448 647 c 1
 453 641 453 618 446 612 c 1
 375 609 356 606 341 523 c 2
 271 122 l 2
 267.6 103.3 265.8 88.6 265.8 77 c 0
 265.8 37 285.5 35.3 339 33 c 1
 344 27 345 4 338 -2 c 1
 319.9 -1.6 303 -1.3 286 -1 c 1
 286 -1 l 1
 206 -1 151 -76 151 -127 c 0
 151 -159 173 -186 209 -186 c 0
 239 -186 260 -171 279 -150 c 1
 294 -158 l 1
 271 -205 220 -225 185 -225 c 0
EndSplineSet
EndChar

StartChar: iogonek
Encoding: 303 303 238
Width: 315
GlyphClass: 2
Flags: MW
AnchorPoint: "above" 132 775 basechar 0
LayerCount: 2
Fore
SplineSet
148 -225 m 0
 95 -225 56 -194 56 -140 c 0
 56 -96 89.9 -42.9 142.5 -8.8 c 1
 118.3 -3.6 110.1 17.7 110.1 46.2 c 0
 110.1 69.3 115.4 97.1 122 125 c 2
 167 316 l 2
 173.7 344 176 357.9 176 367 c 0
 176 377 170 386 158 387 c 2
 118 390 l 1
 112 399 112.3 415 119 423 c 1
 166 429 256 436 288 436 c 0
 301.2 436 308.5 428.6 308.5 414.9 c 0
 308.5 397.8 297.8 359.2 288.3 320.2 c 2
 243 134 l 2
 239.5 118.8 233.6 97.4 233.6 82.7 c 0
 233.6 72.8 236.3 66 244 66 c 0
 254 66 282.5 80.5 307 100 c 1
 321 100 330.5 88 333 74 c 1
 296 43.4 264.5 20.9 233 6.9 c 1
 174.4 -36.6 116 -86.1 116 -127 c 0
 116 -159 138 -186 174 -186 c 0
 203 -186 224 -171 243 -150 c 1
 258 -158 l 1
 234 -205 184 -225 148 -225 c 0
EndSplineSet
Refer: 664 775 N 1 0 0 1 312 -34 2
EndChar

StartChar: dotlessi
Encoding: 305 305 240
Width: 326
GlyphClass: 2
Flags: MW
AnchorPoint: "below" 139 -108 basechar 0
AnchorPoint: "above" 132 645 basechar 0
LayerCount: 2
Fore
SplineSet
290.3 320.2 m 2
 245 134 l 2
 241.5 118.8 235.6 97.4 235.6 82.7 c 0
 235.6 72.8 238.3 66 246 66 c 0
 256 66 284.5 80.5 309 100 c 1
 323 100 332.5 88 335 74 c 1
 268.5 19 219.5 -10 157 -10 c 0
 123 -10 112.1 13.3 112.1 46.2 c 0
 112.1 69.3 117.4 97.1 124 125 c 2
 169 316 l 2
 175.7 344 178 357.9 178 367 c 0
 178 377 172 386 160 387 c 2
 120 390 l 1
 114 399 114.3 415 121 423 c 1
 168 429 258 436 290 436 c 0
 303.2 436 310.5 428.6 310.5 414.9 c 0
 310.5 397.8 299.8 359.2 290.3 320.2 c 2
EndSplineSet
EndChar

StartChar: IJ
Encoding: 306 306 241
Width: 665
GlyphClass: 2
Flags: MW
LayerCount: 2
Fore
SplineSet
558 556 m 2
 558 560 559 563 559 567 c 0
 559 593 540 613 504 613 c 2
 486 613 l 2
 482 613 479 616 479 621 c 1
 484 645 l 1
 486 646 l 1
 486 646 595 645 634 645 c 0
 670 645 771 646 771 646 c 1
 773 645 l 1
 769 621 l 2
 768 616 764 613 759 613 c 2
 745 613 l 2
 704 613 688 597 683 569 c 2
 599 90 l 2
 579 -22 549 -88 477 -153 c 1
 446 -179 405 -196 366 -196 c 0
 328 -196 264 -184 264 -137 c 0
 264 -133 264 -130 264 -126 c 0
 269 -100 293 -93 312 -93 c 0
 345 -93 329 -115 329 -135 c 0
 329 -153 365 -158 373 -158 c 0
 408 -158 440 -107 472 68 c 1
 558 556 l 2
263 77 m 2
 262 73 261 69 261 65 c 0
 261 44 275 33 310 33 c 2
 324 33 l 2
 329 33 332 30 331 24 c 2
 326 1 l 1
 324 -1 l 1
 324 -1 223 1 187 1 c 0
 148 1 51 -1 51 -1 c 1
 49 1 l 1
 53 24 l 2
 54 30 59 33 63 33 c 2
 77 33 l 2
 117 33 134 45 140 77 c 2
 226 569 l 2
 227 573 228 578 228 582 c 0
 228 604 213 613 179 613 c 2
 165 613 l 2
 161 613 157 616 158 621 c 2
 163 645 l 1
 165 646 l 1
 165 646 262 645 301 645 c 0
 336 645 438 646 438 646 c 1
 440 645 l 1
 436 621 l 2
 435 616 431 613 426 613 c 2
 412 613 l 2
 371 613 354 597 350 569 c 2
 263 77 l 2
EndSplineSet
EndChar

StartChar: Jcircumflex
Encoding: 308 308 243
Width: 340
GlyphClass: 2
Flags: MW
LayerCount: 2
Fore
SplineSet
377 805 m 1
 401 769 430 738 461 711 c 1
 438 690 l 1
 401 708 375 725 346 750 c 1
 305 723 273 707 232 690 c 1
 218 711 l 1
 260 739 298 771 334 805 c 1
 377 805 l 1
244 556 m 2
 244 560 245 563 245 567 c 0
 245 593 226 613 190 613 c 2
 172 613 l 2
 168 613 165 616 166 621 c 2
 170 645 l 1
 172 646 l 1
 172 646 281 645 320 645 c 0
 356 645 457 646 457 646 c 1
 459 645 l 1
 455 621 l 2
 454 616 450 613 445 613 c 2
 431 613 l 2
 390 613 374 597 369 569 c 2
 285 90 l 2
 265 -22 235 -88 163 -153 c 1
 132 -179 91 -196 52 -196 c 0
 14 -196 -51 -184 -51 -137 c 0
 -51 -133 -50 -130 -50 -126 c 0
 -45 -100 -21 -93 -1 -93 c 0
 31 -93 39 -115 39 -135 c 0
 39 -146 51 -158 59 -158 c 0
 94 -158 126 -107 158 68 c 1
 244 556 l 2
EndSplineSet
EndChar

StartChar: kgreenlandic
Encoding: 312 312 247
Width: 572
GlyphClass: 2
Flags: MW
AnchorPoint: "below" 132 -108 basechar 0
AnchorPoint: "cedilla" 120 9 basechar 0
AnchorPoint: "above" 240 644 basechar 0
LayerCount: 2
Fore
SplineSet
324 65 m 2
 276 237 l 1
 247 215 l 1
 203 18 l 1
 93 -21 l 1
 83 5 l 1
 162 322 l 1
 168 351 171 369 171 378 c 0
 171 382 171 384 169 384 c 0
 160 383 149 381 140 381 c 1
 136 380 133 380 130 380 c 0
 110 380 110 390 110 390 c 1
 110 395 114 410 115 418 c 1
 135 418 206 425 256 445 c 1
 307 445 l 1
 264 290 l 1
 304 320 417 399 417 399 c 2
 468 436 494 445 533 445 c 0
 570 445 591 432 591 397 c 0
 591 356 557 345 537 345 c 0
 493 345 479 375 479 388 c 1
 378 311 l 1
 431 123 l 2
 436 104 440 90 445 81 c 1
 450 69 456 65 460 65 c 0
 472 65 484 80 493 107 c 1
 537 80 l 1
 504 17 470 -12 417 -12 c 0
 366 -12 342 21 334 39 c 0
 331 45 327 55 324 65 c 2
EndSplineSet
EndChar

StartChar: Lacute
Encoding: 313 313 248
Width: 555
GlyphClass: 2
Flags: MW
LayerCount: 2
Fore
SplineSet
388 823 m 1
 446 767 l 1
 293 709 l 2
 270 700 257 697 248 697 c 0
 240 697 236 701 236 709 c 2
 236 709 236 711 236 712 c 0
 237 719 242 731 251 737 c 2
 388 823 l 1
EndSplineSet
Refer: 44 76 N 1 0 0 1 12 0 2
EndChar

StartChar: lacute
Encoding: 314 314 249
Width: 326
GlyphClass: 2
Flags: MW
LayerCount: 2
Fore
SplineSet
340 851 m 1
 398 795 l 1
 245 737 l 2
 222 728 209 725 200 725 c 0
 192 725 188 729 188 737 c 2
 188 737 188 739 188 740 c 0
 189 747 194 759 203 765 c 2
 340 851 l 1
EndSplineSet
Refer: 341 406 N 1 0 0 1 0 0 2
EndChar

StartChar: Lslash
Encoding: 321 321 256
Width: 555
GlyphClass: 2
Flags: MW
LayerCount: 2
Fore
SplineSet
436 450 m 1
 453 412 l 1
 332.3 349.5 l 1
 287 92 l 2
 286 86 285 81 285 75 c 0
 285 57 292 46 304 46 c 2
 414 46 l 2
 465 46 512 102 541 175 c 1
 587 167 l 1
 537 0 l 1
 286 0 l 1
 209 1 l 2
 197 1 69 -1 69 -1 c 1
 61 8 l 1
 63 23 l 2
 65 31 79 35 95 35 c 2
 125 35 l 2
 149 35 156 43 161 75 c 2
 197 279.4 l 1
 117 238 l 1
 100 275 l 1
 205.9 330.2 l 1
 248 569 l 2
 249 573 249 578 249 582 c 0
 249 604 235 613 201 613 c 2
 187 613 l 2
 182 613 180 616 180 621 c 2
 184 645 l 1
 186 646 l 1
 186 646 283 645 323 645 c 0
 358 645 459 646 459 646 c 1
 461 645 l 1
 457 621 l 2
 456 616 452 613 448 613 c 2
 433 613 l 2
 392 613 376 597 371 569 c 2
 341.4 400.7 l 1
 436 450 l 1
EndSplineSet
EndChar

StartChar: lslash
Encoding: 322 322 257
Width: 317
GlyphClass: 2
Flags: MW
LayerCount: 2
Fore
SplineSet
360 438 m 1
 375 403 l 1
 298.2 363.2 l 1
 245 134 l 2
 241.5 118.8 235.6 97.4 235.6 82.7 c 0
 235.6 72.8 238.3 66 246 66 c 0
 256 66 284.5 80.5 309 100 c 1
 323 100 332.5 88 335 74 c 1
 268.5 19 219.5 -10 157 -10 c 0
 123 -10 112.1 13.3 112.1 46.2 c 0
 112.1 69.3 117.6 97 124 125 c 2
 162.6 292.9 l 1
 107 264 l 1
 92 299 l 1
 173.8 341.4 l 1
 224.8 563 l 2
 240.6 631.5 235.3 633 173.4 638 c 1
 170.4 647 172.3 660 178 672 c 1
 249.7 675 322 686 361.7 698 c 1
 370.7 698 376.9 694 374.9 685 c 2
 374.9 685 364.3 647.9 349.2 583 c 2
 309.5 411.8 l 1
 360 438 l 1
EndSplineSet
EndChar

StartChar: Nacute
Encoding: 323 323 258
Width: 809
GlyphClass: 2
Flags: MW
LayerCount: 2
Fore
SplineSet
559 824 m 1
 617 768 l 1
 464 710 l 2
 441 701 428 698 419 698 c 0
 411 698 407 702 407 710 c 2
 407 710 407 712 407 713 c 0
 408 720 413 732 422 738 c 2
 559 824 l 1
EndSplineSet
Refer: 744 925 N 1 0 0 1 0 0 2
EndChar

StartChar: nacute
Encoding: 324 324 259
Width: 606
GlyphClass: 2
Flags: MW
LayerCount: 2
Fore
SplineSet
389 125 m 2
 424 275 l 2
 435.4 324 451 374 412 374 c 0
 390 374 338 335 289 262 c 0
 256.7 213.9 236.8 145.9 219.9 72 c 0
 212 37.5 215.2 -10 146 -10 c 0
 94 -10 89.1 0.5 89.1 17.2 c 0
 89.1 27 97 52 101.8 72 c 2
 158 321 l 2
 163.4 345.1 164 357.9 164 367 c 0
 164 377 161 386 149 387 c 2
 109 390 l 1
 103 399 101.3 415 108 423 c 1
 155 429 239 436 271 436 c 0
 284.2 436 291.5 428.6 291.5 414.9 c 0
 291.5 397.8 279.9 358.7 269.3 320.2 c 2
 264 301 l 1
 265 300 l 1
 357 408 411 439 510 439 c 0
 571 439 563 353.5 546 283 c 2
 510 134 l 2
 506.3 118.8 500.6 97.4 500.6 82.7 c 0
 500.6 72.8 503.3 66 511 66 c 0
 521 66 549.5 80.5 574 100 c 1
 588 100 597.5 88 600 74 c 1
 533.5 19 484.5 -10 422 -10 c 0
 388 -10 377.1 13.3 377.1 46.2 c 0
 377.1 69.3 382.5 97.1 389 125 c 2
EndSplineSet
Refer: 658 769 N 1 0 0 1 479 -43 2
EndChar

StartChar: uni0146
Encoding: 326 326 261
Width: 606
GlyphClass: 2
Flags: MW
LayerCount: 2
Fore
SplineSet
389 125 m 2
 424 275 l 2
 435.4 324 451 374 412 374 c 0
 390 374 338 335 289 262 c 0
 256.7 213.9 236.8 145.9 219.9 72 c 0
 212 37.5 215.2 -10 146 -10 c 0
 94 -10 89.1 0.5 89.1 17.2 c 0
 89.1 27 97 52 101.8 72 c 2
 158 321 l 2
 163.4 345.1 164 357.9 164 367 c 0
 164 377 161 386 149 387 c 2
 109 390 l 1
 103 399 101.3 415 108 423 c 1
 155 429 239 436 271 436 c 0
 284.2 436 291.5 428.6 291.5 414.9 c 0
 291.5 397.8 279.9 358.7 269.3 320.2 c 2
 264 301 l 1
 265 300 l 1
 357 408 411 439 510 439 c 0
 571 439 563 353.5 546 283 c 2
 510 134 l 2
 506.3 118.8 500.6 97.4 500.6 82.7 c 0
 500.6 72.8 503.3 66 511 66 c 0
 521 66 549.5 80.5 574 100 c 1
 588 100 597.5 88 600 74 c 1
 533.5 19 484.5 -10 422 -10 c 0
 388 -10 377.1 13.3 377.1 46.2 c 0
 377.1 69.3 382.5 97.1 389 125 c 2
EndSplineSet
Refer: 695 806 N 1 0 0 1 523 0 2
EndChar

StartChar: Ncaron
Encoding: 327 327 262
Width: 742
GlyphClass: 2
Flags: MW
LayerCount: 2
Fore
SplineSet
485 697 m 1
 461 734 431 764 400 792 c 1
 423 812 l 1
 459 795 486 778 515 753 c 1
 556 780 587 796 628 812 c 1
 643 792 l 1
 601 763 564 731 528 697 c 1
 485 697 l 1
EndSplineSet
Refer: 744 925 N 1 0 0 1 0 0 2
EndChar

StartChar: ncaron
Encoding: 328 328 263
Width: 606
GlyphClass: 2
Flags: MW
LayerCount: 2
Fore
SplineSet
389 125 m 2
 424 275 l 2
 435.4 324 451 374 412 374 c 0
 390 374 338 335 289 262 c 0
 256.7 213.9 236.8 145.9 219.9 72 c 0
 212 37.5 215.2 -10 146 -10 c 0
 94 -10 89.1 0.5 89.1 17.2 c 0
 89.1 27 97 52 101.8 72 c 2
 158 321 l 2
 163.4 345.1 164 357.9 164 367 c 0
 164 377 161 386 149 387 c 2
 109 390 l 1
 103 399 101.3 415 108 423 c 1
 155 429 239 436 271 436 c 0
 284.2 436 291.5 428.6 291.5 414.9 c 0
 291.5 397.8 279.9 358.7 269.3 320.2 c 2
 264 301 l 1
 265 300 l 1
 357 408 411 439 510 439 c 0
 571 439 563 353.5 546 283 c 2
 510 134 l 2
 506.3 118.8 500.6 97.4 500.6 82.7 c 0
 500.6 72.8 503.3 66 511 66 c 0
 521 66 549.5 80.5 574 100 c 1
 588 100 597.5 88 600 74 c 1
 533.5 19 484.5 -10 422 -10 c 0
 388 -10 377.1 13.3 377.1 46.2 c 0
 377.1 69.3 382.5 97.1 389 125 c 2
EndSplineSet
Refer: 630 711 N 1 0 0 1 116 -15 2
EndChar

StartChar: napostrophe
Encoding: 329 329 264
Width: 618
GlyphClass: 2
Flags: MW
LayerCount: 2
Fore
SplineSet
428 125 m 2
 463 275 l 2
 474.4 324 490 374 451 374 c 0
 429 374 377 335 328 262 c 0
 295.7 213.9 275.8 145.9 258.9 72 c 0
 251 37.5 254.2 -10 185 -10 c 0
 133 -10 128.1 0.5 128.1 17.2 c 0
 128.1 27 136 52 140.8 72 c 2
 197 321 l 2
 202.4 345.1 203 357.9 203 367 c 0
 203 377 200 386 188 387 c 2
 148 390 l 1
 142 399 140.3 415 147 423 c 1
 194 429 278 436 310 436 c 0
 323.2 436 330.5 428.6 330.5 414.9 c 0
 330.5 397.8 318.9 358.7 308.3 320.2 c 2
 303 301 l 1
 304 300 l 1
 396 408 450 439 549 439 c 0
 610 439 602 353.5 585 283 c 2
 549 134 l 2
 545.3 118.8 539.6 97.4 539.6 82.7 c 0
 539.6 72.8 542.3 66 550 66 c 0
 560 66 588.5 80.5 613 100 c 1
 627 100 636.5 88 639 74 c 1
 572.5 19 523.5 -10 461 -10 c 0
 427 -10 416.1 13.3 416.1 46.2 c 0
 416.1 69.3 421.5 97.1 428 125 c 2
EndSplineSet
Refer: 695 806 N 1 0 0 1 435 729 2
EndChar

StartChar: Eng
Encoding: 330 330 265
Width: 735
GlyphClass: 2
UnlinkRmOvrlpSave: 1
Flags: MW
AnchorPoint: "below" 373 -109 basechar 0
AnchorPoint: "cedilla" 137 -3 basechar 0
AnchorPoint: "above" 359 804 basechar 0
LayerCount: 2
Fore
SplineSet
692 103 m 2
 661 -41 592 -92 541 -129 c 0
 493 -164 443 -183 388 -183 c 3
 363 -183 310 -164 310 -126 c 3
 310 -92 356 -65 375 -65 c 3
 412 -65 414 -91 423 -106 c 0
 430 -118 443 -128 460 -128 c 3
 500 -128 523 -99 562 81 c 2
 632 406 l 2
 639 438 643 471 643 503 c 3
 643 571 600 588 582 588 c 3
 476 588 329 467 304 368 c 1
 223 281 l 1
 261 500 431 656 611 656 c 3
 676 656 770 628 770 499 c 3
 770 481 769 461 764 439 c 2
 692 103 l 2
284 122 m 2
 281 103 279 89 279 77 c 3
 279 37 298 35 352 33 c 1
 354 30 356 23 356 16 c 3
 356 9 355 1 351 -2 c 1
 301 -1 260 0 201 0 c 3
 144 0 103 -1 54 -2 c 1
 52 1 50 9 50 16 c 3
 50 23 51 30 55 33 c 1
 126 36 146 39 161 122 c 2
 231 523 l 2
 234 541 236 555 236 567 c 3
 236 608 218 610 164 612 c 1
 161 615 159 623 159 631 c 3
 159 638 161 644 164 647 c 1
 214 646 255 645 314 645 c 3
 338 645 355 646 375 647 c 1
 284 122 l 2
EndSplineSet
EndChar

StartChar: eng
Encoding: 331 331 266
Width: 543
GlyphClass: 2
Flags: MW
AnchorPoint: "below" 265 -111 basechar 0
AnchorPoint: "cedilla" 128 9 basechar 0
AnchorPoint: "middle" 264 215 basechar 0
AnchorPoint: "above" 264 646 basechar 0
LayerCount: 2
Fore
SplineSet
500 88 m 2
 470 -39 432 -128 366 -177 c 0
 332 -203 296 -216 263 -216 c 3
 228 -216 163 -202 163 -170 c 3
 163 -142 193 -125 223 -125 c 3
 253 -125 272 -144 272 -168 c 3
 272 -172 272 -178 269 -179 c 1
 300 -176 341 -77 373 58 c 2
 424 275 l 2
 430 300 437 326 437 345 c 3
 437 363 431 374 412 374 c 3
 390 374 338 335 289 262 c 0
 257 214 237 146 220 72 c 0
 212 38 215 -10 146 -10 c 3
 94 -10 89 0 89 17 c 3
 89 27 97 52 102 72 c 2
 158 321 l 2
 163 345 164 358 164 367 c 3
 164 377 161 386 149 387 c 2
 109 390 l 1
 106 395 104 402 104 409 c 3
 104 414 105 419 108 423 c 1
 155 429 239 436 271 436 c 3
 284 436 292 429 292 415 c 3
 292 398 280 358 269 320 c 2
 264 301 l 1
 265 300 l 1
 357 408 411 439 510 439 c 3
 546 439 558 409 558 369 c 3
 558 342 553 311 546 283 c 2
 500 88 l 2
EndSplineSet
EndChar

StartChar: Obreve
Encoding: 334 334 269
Width: 734
GlyphClass: 2
Flags: MW
AnchorPoint: "below" 350 -110 basechar 0
AnchorPoint: "cedilla" 350 0 basechar 0
LayerCount: 2
Fore
SplineSet
666 804 m 1
 649 733 579 691 514 691 c 0
 444 691 395 730 395 793 c 0
 395 797 395 801 395 804 c 1
 426 804 l 1
 428 765 469 746 522 746 c 0
 571 746 624 765 637 804 c 1
 666 804 l 1
EndSplineSet
Refer: 47 79 N 1 0 0 1 0 0 2
EndChar

StartChar: OE
Encoding: 338 338 273
Width: 854
GlyphClass: 2
Flags: MW
AnchorPoint: "above" 480 850 basechar 0
LayerCount: 2
Fore
SplineSet
367 40 m 2
 379 40 l 2
 402 40 411 50 415 75 c 2
 502 571 l 2
 503 577 504 582 504 585 c 0
 504 601 496 604 479 604 c 2
 445 604 l 2
 360 604 275 536 239 328 c 0
 232 292 229 260 229 231 c 0
 229 98 292 40 367 40 c 2
363 0 m 2
 362 0 l 2
 188 0 97 104 97 250 c 0
 97 272 99 295 103 319 c 0
 135 499 267 646 464 646 c 1
 578 645 l 2
 603 645 628 646 654 646 c 2
 930 646 l 1
 919 502 l 1
 864 495 l 1
 864 539 848 600 811 600 c 2
 645 600 l 2
 636 600 629 592 625 571 c 2
 590 370 l 1
 672 370 l 2
 689 370 699 387 708 411 c 0
 712 420 717 430 721 440 c 1
 720 439 l 1
 722 446 734 451 751 451 c 2
 757 451 l 2
 775 451 782 447 781 442 c 0
 778 431 775 420 771 409 c 1
 766 390 760 369 756 349 c 0
 751 322 750 298 749 274 c 1
 748 274 l 1
 748 256 l 1
 740 247 l 1
 715 247 l 2
 694 247 687 252 687 257 c 1
 688 257 l 1
 687 288 l 2
 687 314 682 328 665 328 c 2
 583 328 l 1
 538 75 l 2
 537 69 537 64 537 61 c 0
 537 49 541 46 547 46 c 2
 716 46 l 2
 765 46 798 101 827 174 c 1
 878 163 l 1
 824 0 l 1
 540 0 l 1
 464 1 l 1
 433 0 393 0 363 0 c 2
EndSplineSet
EndChar

StartChar: oe
Encoding: 339 339 274
Width: 806
GlyphClass: 2
Flags: MW
AnchorPoint: "above" 415 645 basechar 0
AnchorPoint: "ogonek" 361 41 basechar 0
LayerCount: 2
Fore
SplineSet
678 403 m 0
 616 403 568 307 558 282 c 1
 722 282 l 1
 725 294 727 311 727 327 c 0
 727 365 717 403 678 403 c 0
213 243 m 0
 206 211 202 180 202 150 c 0
 202 81 225 27 279 27 c 0
 302 27 331 45 363 83 c 0
 382 106 400 146 413 202 c 0
 421 240 425 268 425 290 c 0
 425 312 421 327 417 338 c 0
 402 380 380 405 354 405 c 0
 324 405 292 387 266 357 c 1
 238 322 222 282 213 243 c 0
365 445 m 0
 457 445 498 414 518 375 c 1
 563 415 623 445 689 445 c 0
 794 445 838 389 838 306 c 0
 838 284 835 261 830 236 c 1
 544 236 l 1
 542 229 542 228 540 219 c 0
 533 193 531 171 531 151 c 0
 531 73 572 42 609 42 c 0
 639 42 702 65 748 105 c 1
 780 76 l 1
 750 46 696 -12 585 -12 c 0
 503 -12 458 21 435 56 c 1
 387 16 323 -12 255 -12 c 0
 142 -12 76 58 76 154 c 0
 76 171 78 189 82 208 c 0
 118 365 244 445 365 445 c 0
EndSplineSet
EndChar

StartChar: Racute
Encoding: 340 340 275
Width: 680
GlyphClass: 2
Flags: MW
LayerCount: 2
Fore
SplineSet
478 824 m 1
 536 768 l 1
 383 710 l 2
 360 701 347 698 338 698 c 0
 330 698 326 702 326 710 c 2
 326 710 326 712 326 713 c 0
 327 720 332 732 341 738 c 2
 478 824 l 1
EndSplineSet
Refer: 50 82 N 1 0 0 1 0 0 2
EndChar

StartChar: Rcaron
Encoding: 344 344 279
Width: 584
GlyphClass: 2
Flags: MW
LayerCount: 2
Fore
SplineSet
395 697 m 1
 371 734 341 764 310 792 c 1
 333 812 l 1
 369 795 396 778 425 753 c 1
 466 780 497 796 538 812 c 1
 553 792 l 1
 511 763 474 731 438 697 c 1
 395 697 l 1
EndSplineSet
Refer: 50 82 N 1 0 0 1 0 0 2
EndChar

StartChar: Sacute
Encoding: 346 346 281
Width: 503
GlyphClass: 2
Flags: MW
LayerCount: 2
Fore
SplineSet
448 824 m 1
 506 768 l 1
 353 710 l 2
 330 701 317 698 308 698 c 0
 300 698 296 702 296 710 c 2
 296 710 296 712 296 713 c 0
 297 720 302 732 311 738 c 2
 448 824 l 1
EndSplineSet
Refer: 51 83 N 1 0 0 1 -1 0 2
EndChar

StartChar: Scircumflex
Encoding: 348 348 283
Width: 503
GlyphClass: 2
Flags: MW
LayerCount: 2
Fore
SplineSet
410 812 m 1
 434 776 465 745 496 718 c 1
 473 697 l 1
 437 715 409 732 380 756 c 1
 340 730 308 714 268 697 c 1
 253 718 l 1
 295 746 331 778 367 812 c 1
 410 812 l 1
EndSplineSet
Refer: 51 83 N 1 0 0 1 -1 0 2
EndChar

StartChar: Scedilla
Encoding: 350 350 285
Width: 503
GlyphClass: 2
Flags: MW
LayerCount: 2
Fore
SplineSet
476 631 m 1
 471 578 470 528 470 479 c 1
 430 474 l 1
 425 540 407 619 325 619 c 0
 262 619 231 573 221 517 c 0
 210 453 277 403 314 388 c 0
 390 358 475 305 454 184 c 0
 434.8 73.1 366.2 12.2 280.7 -4.9 c 1
 251 -53 l 1
 259 -53 l 2
 306 -53 339 -73 339 -107 c 0
 339 -111 338 -115 337 -118 c 0
 329 -163 269 -192 195 -192 c 0
 157 -192 137 -184 107 -170 c 1
 126 -143 l 1
 159 -158 184 -159 196 -159 c 0
 214 -159 247 -147 252 -123 c 0
 252 -121 252 -120 252 -119 c 0
 252 -103 234 -92 224 -92 c 0
 210 -92 201 -93 177 -104 c 1
 164 -87 l 1
 214.3 -9.9 l 1
 132.3 -8.5 115.8 5 94 5 c 0
 75 5 66 0 49 0 c 1
 56 51 58 99 62 175 c 1
 101 178 l 1
 104 87 151 31 215 31 c 0
 288 31 331 71 345 145 c 0
 355 203 335 254 281 278 c 0
 216 306 104 368 124 485 c 0
 145 605 251 658 333 658 c 0
 423 658 425 639 476 631 c 1
EndSplineSet
EndChar

StartChar: scedilla
Encoding: 351 351 286
Width: 401
GlyphClass: 2
Flags: MW
LayerCount: 2
Fore
SplineSet
188 -89 m 0
 174 -89 165 -90 141 -101 c 1
 128 -84 l 1
 177.7 -7.8 l 1
 116.7 2.9 65 34.3 65 88 c 0
 65 120 92 139 108.5 139 c 0
 139 139 156.6 115.8 172 81 c 0
 187 47 217.1 28.6 248.4 28.6 c 0
 279 28.6 303.3 40.2 303.3 78 c 0
 303.3 125 277.9 158.9 236 183 c 0
 170 221 130.5 271 130.5 314 c 0
 130.5 419.6 210.3 444 307 444 c 0
 369.5 444 421 408 426.3 359 c 0
 429.8 326.5 403.5 307.9 389 304 c 0
 367 298 340.3 304.4 336 326 c 0
 328.9 361.6 313.1 405.8 270.2 405.8 c 0
 231 405.8 218 383.1 218 355 c 0
 218 304 266.3 273.6 292 260 c 0
 366 221 407.3 176 407.3 129 c 0
 407.3 60.5 356.3 -7.7 238.6 -11.8 c 1
 215 -50 l 1
 223 -50 l 2
 270 -50 303 -70 303 -104 c 0
 303 -108 302 -112 301 -115 c 0
 293 -160 233 -189 159 -189 c 0
 121 -189 101 -181 71 -167 c 1
 90 -140 l 1
 123 -155 148 -156 160 -156 c 0
 178 -156 211 -144 216 -120 c 0
 216 -118 216 -117 216 -116 c 0
 216 -100 198 -89 188 -89 c 0
EndSplineSet
EndChar

StartChar: Scaron
Encoding: 352 352 287
Width: 503
GlyphClass: 2
Flags: MW
LayerCount: 2
Fore
SplineSet
343 697 m 1
 319 734 289 764 258 792 c 1
 281 812 l 1
 317 795 344 778 373 753 c 1
 414 780 445 796 486 812 c 1
 501 792 l 1
 459 763 422 731 386 697 c 1
 343 697 l 1
EndSplineSet
Refer: 51 83 N 1 0 0 1 -1 0 2
EndChar

StartChar: uni0162
Encoding: 354 354 289
Width: 605
GlyphClass: 2
Flags: MW
LayerCount: 2
Fore
SplineSet
209 646 m 2
 615 646 l 2
 636 646 639 663 641 669 c 1
 676 673 l 1
 671 624 669 572 670 519 c 1
 630 514 l 1
 625 594 614 599 561 599 c 2
 509 599 l 2
 475 599 461 590 456 557 c 2
 371 77 l 2
 366 46 378 33 416 33 c 2
 441 33 l 2
 445 33 448 30 447 24 c 2
 443 1 l 1
 441 -1 l 1
 441 -1 400.9 -0.3 360.4 0.3 c 1
 338 -36 l 1
 346 -36 l 2
 393 -36 426 -56 426 -90 c 0
 426 -94 425 -98 424 -101 c 0
 416 -146 356 -175 282 -175 c 0
 244 -175 224 -167 194 -153 c 1
 213 -126 l 1
 246 -141 271 -142 283 -142 c 0
 301 -142 334 -130 339 -106 c 0
 339 -104 339 -103 339 -102 c 0
 339 -86 321 -75 311 -75 c 0
 297 -75 288 -76 264 -87 c 1
 251 -70 l 1
 297.3 1 l 1
 294.3 1 291.5 1 289 1 c 0
 255 1 157 -1 157 -1 c 1
 155 1 l 1
 159 24 l 2
 160 30 164 33 168 33 c 2
 193 33 l 2
 233 33 249 49 254 77 c 2
 339 560 l 2
 344 590 334 599 299 599 c 2
 248 599 l 2
 195 599 181 594 148 514 c 1
 111 519 l 1
 131 572 147 624 159 673 c 1
 193 669 l 1
 192 663 189 646 209 646 c 2
EndSplineSet
EndChar

StartChar: uni0163
Encoding: 355 355 290
Width: 338
GlyphClass: 2
Flags: MW
LayerCount: 2
Fore
SplineSet
123 118 m 2
 184 382 l 1
 109 382 l 2
 106 382 103 382 103 384 c 0
 103 386 107 406 108 409 c 0
 110 417 117 425 136 426 c 2
 194 429 l 1
 207 479 l 2
 216.9 517.2 216.2 551.9 251 561 c 0
 281.5 569 332 581 332 564 c 0
 332 552 316 491.8 312 474 c 2
 302 429 l 1
 411 429 l 1
 422 421 412 387 400 382 c 1
 292 382 l 1
 232 127 l 2
 228.8 113.2 225.3 96.6 225.3 84.2 c 0
 225.3 73.5 228 66 236 66 c 0
 246 66 280 83 306 113 c 1
 320 113 332 94 335 85 c 1
 290.3 35.8 244.4 -1.4 185.5 -8.7 c 1
 160 -50 l 1
 168 -50 l 2
 215 -50 248 -70 248 -104 c 0
 248 -108 247 -112 246 -115 c 0
 238 -160 178 -189 104 -189 c 0
 66 -189 46 -181 16 -167 c 1
 35 -140 l 1
 68 -155 93 -156 105 -156 c 0
 123 -156 156 -144 161 -120 c 0
 161 -118 161 -117 161 -116 c 0
 161 -100 143 -89 133 -89 c 0
 119 -89 110 -90 86 -101 c 1
 73 -84 l 1
 128.9 1.7 l 1
 118.1 11.7 113.3 27.5 113.3 47.1 c 0
 113.3 67.7 117.8 95.4 123 118 c 2
EndSplineSet
EndChar

StartChar: Tcaron
Encoding: 356 356 291
Width: 572
GlyphClass: 2
Flags: MW
LayerCount: 2
Fore
SplineSet
425 697 m 1
 401 734 371 764 340 792 c 1
 363 812 l 1
 399 795 426 778 455 753 c 1
 496 780 527 796 568 812 c 1
 583 792 l 1
 541 763 504 731 468 697 c 1
 425 697 l 1
EndSplineSet
Refer: 52 84 N 1 0 0 1 12 0 2
EndChar

StartChar: tcaron
Encoding: 357 357 292
Width: 374
GlyphClass: 2
Flags: MW
LayerCount: 2
Fore
SplineSet
123 118 m 2
 184 382 l 1
 109 382 l 2
 106 382 103 382 103 384 c 0
 103 386 107 406 108 409 c 0
 110 417 117 425 136 426 c 2
 194 429 l 1
 207 479 l 2
 216.9 517.2 216.2 551.9 251 561 c 0
 281.5 569 332 581 332 564 c 0
 332 552 316 491.8 312 474 c 2
 302 429 l 1
 411 429 l 1
 422 421 412 387 400 382 c 1
 292 382 l 1
 232 127 l 2
 228.8 113.2 225.3 96.6 225.3 84.2 c 0
 225.3 73.5 228 66 236 66 c 0
 246 66 280 83 306 113 c 1
 320 113 332 94 335 85 c 1
 285 30 233.5 -10 164 -10 c 0
 128.1 -10 113.3 12.7 113.3 47.1 c 0
 113.3 67.7 117.8 95.4 123 118 c 2
EndSplineSet
Refer: 678 789 N 1 0 0 1 396 59 2
EndChar

StartChar: Tbar
Encoding: 358 358 293
Width: 605
GlyphClass: 2
Flags: MW
LayerCount: 2
Fore
SplineSet
198 329 m 1
 205 368 l 1
 305.2 368 l 1
 339 560 l 2
 344 590 334 599 299 599 c 2
 248 599 l 2
 195 599 181 594 148 514 c 1
 111 519 l 1
 131 572 147 624 159 673 c 1
 193 669 l 1
 192 663 189 646 209 646 c 2
 615 646 l 2
 636 646 639 663 641 669 c 1
 676 673 l 1
 671 624 669 572 670 519 c 1
 630 514 l 1
 625 594 614 599 561 599 c 2
 509 599 l 2
 475 599 461 590 456 557 c 2
 422.5 368 l 1
 552 368 l 1
 545 329 l 1
 415.6 329 l 1
 371 77 l 2
 366 46 378 33 416 33 c 2
 441 33 l 2
 445 33 448 30 447 24 c 2
 443 1 l 1
 441 -1 l 1
 441 -1 327 1 289 1 c 0
 255 1 157 -1 157 -1 c 1
 155 1 l 1
 159 24 l 2
 160 30 164 33 168 33 c 2
 193 33 l 2
 233 33 249 49 254 77 c 2
 298.3 329 l 1
 198 329 l 1
EndSplineSet
EndChar

StartChar: tbar
Encoding: 359 359 294
Width: 338
GlyphClass: 2
Flags: MW
LayerCount: 2
Fore
SplineSet
324 284 m 1
 315 245 l 1
 259.8 245 l 1
 232 127 l 2
 228.8 113.2 225.3 96.6 225.3 84.2 c 0
 225.3 73.5 228 66 236 66 c 0
 246 66 280 83 306 113 c 1
 320 113 332 94 335 85 c 1
 285 30 233.5 -10 164 -10 c 0
 128.1 -10 113.3 12.7 113.3 47.1 c 0
 113.3 67.7 117.8 95.4 123 118 c 2
 152.3 245 l 1
 62 245 l 1
 71 284 l 1
 161.4 284 l 1
 184 382 l 1
 109 382 l 2
 106 382 103 382 103 384 c 0
 103 386 107 406 108 409 c 0
 110 417 117 425 136 426 c 2
 194 429 l 1
 207 479 l 2
 216.9 517.2 216.2 551.9 251 561 c 0
 281.5 569 332 581 332 564 c 0
 332 552 316 491.8 312 474 c 2
 302 429 l 1
 411 429 l 1
 422 421 412 387 400 382 c 1
 292 382 l 1
 268.9 284 l 1
 324 284 l 1
EndSplineSet
EndChar

StartChar: utilde
Encoding: 361 361 296
Width: 573
GlyphClass: 2
Flags: MW
LayerCount: 2
Fore
SplineSet
280 315 m 2
 238 153 l 2
 232.1 130.1 228 98 228 82 c 0
 228 63 233 49 249 49 c 0
 278 49 368.9 105 399 236 c 2
 399 236 430 372 445 436 c 1
 477.3 435 529.7 435 563 436 c 1
 486 125 l 2
 481.3 105.9 479 92 479 83 c 0
 479 71 484 67 489 67 c 0
 500 67 524 84.7 545 106 c 1
 557.9 101.8 565 93 570 82 c 1
 508 19 469 -10 417 -10 c 0
 366 -10 354 21 354 39 c 0
 354 43 356.3 70.7 369.3 92 c 0
 370.3 93.3 368.2 94.1 366.3 92 c 0
 310.1 30.9 250.3 -10 200 -10 c 0
 138.3 -10 108 24 108 64 c 0
 108 82 112.2 114.3 119 141 c 2
 162 309 l 2
 167 328 169 342 169 351 c 0
 169 362 165 367 161 367 c 0
 149 367 129 353 107 325 c 1
 94.7 331.3 86 340.3 79 352 c 1
 148.5 424.5 187 444 239 444 c 0
 291 444 294 413 294 395 c 0
 294 378 287.9 345 280 315 c 2
EndSplineSet
Refer: 648 732 N 1 0 0 1 85 -47 2
EndChar

StartChar: umacron
Encoding: 363 363 298
Width: 561
GlyphClass: 2
Flags: MW
AnchorPoint: "below" 239 -110 basechar 0
AnchorPoint: "cedilla" 213 0 basechar 0
AnchorPoint: "above" 247 795 basechar 0
LayerCount: 2
Fore
SplineSet
280 315 m 2
 238 153 l 2
 232.1 130.1 228 98 228 82 c 0
 228 63 233 49 249 49 c 0
 278 49 368.9 105 399 236 c 2
 399 236 430 372 445 436 c 1
 477.3 435 529.7 435 563 436 c 1
 486 125 l 2
 481.3 105.9 479 92 479 83 c 0
 479 71 484 67 489 67 c 0
 500 67 524 84.7 545 106 c 1
 557.9 101.8 565 93 570 82 c 1
 508 19 469 -10 417 -10 c 0
 366 -10 354 21 354 39 c 0
 354 43 356.3 70.7 369.3 92 c 0
 370.3 93.3 368.2 94.1 366.3 92 c 0
 310.1 30.9 250.3 -10 200 -10 c 0
 138.3 -10 108 24 108 64 c 0
 108 82 112.2 114.3 119 141 c 2
 162 309 l 2
 167 328 169 342 169 351 c 0
 169 362 165 367 161 367 c 0
 149 367 129 353 107 325 c 1
 94.7 331.3 86 340.3 79 352 c 1
 148.5 424.5 187 444 239 444 c 0
 291 444 294 413 294 395 c 0
 294 378 287.9 345 280 315 c 2
EndSplineSet
Refer: 632 713 N 1 0 0 1 48 32 2
EndChar

StartChar: Ubreve
Encoding: 364 364 299
Width: 683
GlyphClass: 2
Flags: MW
LayerCount: 2
Fore
SplineSet
652 804 m 1
 635 733 565 691 500 691 c 0
 430 691 381 730 381 793 c 0
 381 797 381 801 381 804 c 1
 412 804 l 1
 414 765 455 746 508 746 c 0
 557 746 610 765 623 804 c 1
 652 804 l 1
EndSplineSet
Refer: 53 85 N 1 0 0 1 0 0 2
EndChar

StartChar: ubreve
Encoding: 365 365 300
Width: 561
GlyphClass: 2
Flags: MW
LayerCount: 2
Fore
SplineSet
280 315 m 2
 238 153 l 2
 232.1 130.1 228 98 228 82 c 0
 228 63 233 49 249 49 c 0
 278 49 368.9 105 399 236 c 2
 399 236 430 372 445 436 c 1
 477.3 435 529.7 435 563 436 c 1
 486 125 l 2
 481.3 105.9 479 92 479 83 c 0
 479 71 484 67 489 67 c 0
 500 67 524 84.7 545 106 c 1
 557.9 101.8 565 93 570 82 c 1
 508 19 469 -10 417 -10 c 0
 366 -10 354 21 354 39 c 0
 354 43 356.3 70.7 369.3 92 c 0
 370.3 93.3 368.2 94.1 366.3 92 c 0
 310.1 30.9 250.3 -10 200 -10 c 0
 138.3 -10 108 24 108 64 c 0
 108 82 112.2 114.3 119 141 c 2
 162 309 l 2
 167 328 169 342 169 351 c 0
 169 362 165 367 161 367 c 0
 149 367 129 353 107 325 c 1
 94.7 331.3 86 340.3 79 352 c 1
 148.5 424.5 187 444 239 444 c 0
 291 444 294 413 294 395 c 0
 294 378 287.9 345 280 315 c 2
EndSplineSet
Refer: 644 728 N 1 0 0 1 112 -30 2
EndChar

StartChar: uring
Encoding: 367 367 302
Width: 561
GlyphClass: 2
Flags: MW
LayerCount: 2
Fore
SplineSet
280 315 m 2
 238 153 l 2
 232.1 130.1 228 98 228 82 c 0
 228 63 233 49 249 49 c 0
 278 49 368.9 105 399 236 c 2
 399 236 430 372 445 436 c 1
 477.3 435 529.7 435 563 436 c 1
 486 125 l 2
 481.3 105.9 479 92 479 83 c 0
 479 71 484 67 489 67 c 0
 500 67 524 84.7 545 106 c 1
 557.9 101.8 565 93 570 82 c 1
 508 19 469 -10 417 -10 c 0
 366 -10 354 21 354 39 c 0
 354 43 356.3 70.7 369.3 92 c 0
 370.3 93.3 368.2 94.1 366.3 92 c 0
 310.1 30.9 250.3 -10 200 -10 c 0
 138.3 -10 108 24 108 64 c 0
 108 82 112.2 114.3 119 141 c 2
 162 309 l 2
 167 328 169 342 169 351 c 0
 169 362 165 367 161 367 c 0
 149 367 129 353 107 325 c 1
 94.7 331.3 86 340.3 79 352 c 1
 148.5 424.5 187 444 239 444 c 0
 291 444 294 413 294 395 c 0
 294 378 287.9 345 280 315 c 2
EndSplineSet
Refer: 646 730 N 1 0 0 1 46 -103 2
EndChar

StartChar: uhungarumlaut
Encoding: 369 369 304
Width: 604
GlyphClass: 2
Flags: MW
LayerCount: 2
Fore
SplineSet
280 315 m 2
 238 153 l 2
 232.1 130.1 228 98 228 82 c 0
 228 63 233 49 249 49 c 0
 278 49 368.9 105 399 236 c 2
 399 236 430 372 445 436 c 1
 477.3 435 529.7 435 563 436 c 1
 486 125 l 2
 481.3 105.9 479 92 479 83 c 0
 479 71 484 67 489 67 c 0
 500 67 524 84.7 545 106 c 1
 557.9 101.8 565 93 570 82 c 1
 508 19 469 -10 417 -10 c 0
 366 -10 354 21 354 39 c 0
 354 43 356.3 70.7 369.3 92 c 0
 370.3 93.3 368.2 94.1 366.3 92 c 0
 310.1 30.9 250.3 -10 200 -10 c 0
 138.3 -10 108 24 108 64 c 0
 108 82 112.2 114.3 119 141 c 2
 162 309 l 2
 167 328 169 342 169 351 c 0
 169 362 165 367 161 367 c 0
 149 367 129 353 107 325 c 1
 94.7 331.3 86 340.3 79 352 c 1
 148.5 424.5 187 444 239 444 c 0
 291 444 294 413 294 395 c 0
 294 378 287.9 345 280 315 c 2
EndSplineSet
Refer: 649 733 N 1 0 0 1 127 -80 2
EndChar

StartChar: Uogonek
Encoding: 370 370 305
Width: 683
GlyphClass: 2
Flags: MW
LayerCount: 2
Fore
SplineSet
638 569 m 2
 639 573 640 578 640 582 c 0
 640 604 625 613 591 613 c 2
 577 613 l 2
 573 613 570 616 570 621 c 1
 575 645 l 1
 577 646 l 1
 577 646 652 645 691 645 c 0
 727 645 805 646 805 646 c 1
 807 645 l 1
 803 621 l 2
 802 616 798 613 793 613 c 2
 779 613 l 2
 738 613 722 597 717 569 c 2
 668 293 l 2
 643 149.7 595.3 39.4 462.3 1.9 c 1
 429.6 -26.6 402.2 -58.6 394 -100 c 0
 393 -103 393 -106 393 -108 c 0
 393 -131 413 -152 440 -152 c 0
 464 -152 486 -136 513 -114 c 1
 528 -123 l 1
 491 -168 449 -191 408 -191 c 0
 361 -191 324 -168 324 -124 c 0
 324 -119 325 -113 326 -107 c 0
 333.2 -73 358.9 -40 391.4 -10.4 c 1
 378.2 -11.5 364.5 -12 350 -12 c 0
 263 -12 137 21 137 175 c 0
 137 193 139 213 143 235 c 2
 201 569 l 2
 202 573 203 578 203 582 c 0
 203 604 188 613 154 613 c 2
 140 613 l 2
 136 613 133 615 133 621 c 1
 138 645 l 1
 140 646 l 1
 140 646 237 645 276 645 c 0
 312 645 413 646 413 646 c 1
 415 645 l 1
 410 621 l 2
 409 616 406 613 401 613 c 2
 387 613 l 2
 346 613 329 597 324 569 c 2
 271 268 l 2
 266 236 260 203 260 171 c 0
 260 63 344 36 379 36 c 0
 526 36 568 168 587 276 c 2
 638 569 l 2
EndSplineSet
EndChar

StartChar: uogonek
Encoding: 371 371 306
Width: 561
GlyphClass: 2
Flags: MW
LayerCount: 2
Fore
SplineSet
440 -208 m 0
 386 -208 346 -178 346 -123 c 0
 346 -85.4 370.3 -42.8 409.8 -9.8 c 1
 364.8 -7 354 21.9 354 39 c 0
 354 43 356.3 70.7 369.3 92 c 0
 370.3 93.3 368.2 94.1 366.3 92 c 0
 310.1 30.9 250.3 -10 200 -10 c 0
 138.3 -10 108 24 108 64 c 0
 108 82 112.2 114.3 119 141 c 2
 162 309 l 2
 167 328 169 342 169 351 c 0
 169 362 165 367 161 367 c 0
 149 367 129 353 107 325 c 1
 94.7 331.3 86 340.3 79 352 c 1
 148.5 424.5 187 444 239 444 c 0
 291 444 294 413 294 395 c 0
 294 378 287.9 345 280 315 c 2
 238 153 l 2
 232.1 130.1 228 98 228 82 c 0
 228 63 233 49 249 49 c 0
 278 49 368.9 105 399 236 c 2
 399 236 430 372 445 436 c 1
 477.3 435 529.7 435 563 436 c 1
 486 125 l 2
 481.3 105.9 479 92 479 83 c 0
 479 71 484 67 489 67 c 0
 500 67 524 84.7 545 106 c 1
 557.9 101.8 565 93 570 82 c 1
 545.2 56.8 524.1 36.9 504.3 22.3 c 1
 494.1 11.6 484.4 3.7 483 3 c 0
 435 -21 406 -72 406 -110 c 0
 406 -143 428 -168 464 -168 c 0
 495 -168 515 -154 534 -134 c 1
 549 -141 l 1
 526 -188 475 -208 440 -208 c 0
EndSplineSet
EndChar

StartChar: Wcircumflex
Encoding: 372 372 307
Width: 998
GlyphClass: 2
Flags: MW
LayerCount: 2
Fore
SplineSet
628 805 m 1
 652 769 683 738 714 711 c 1
 691 690 l 1
 655 708 627 725 598 749 c 1
 558 723 526 707 486 690 c 1
 471 711 l 1
 513 739 549 771 585 805 c 1
 628 805 l 1
EndSplineSet
Refer: 55 87 N 1 0 0 1 0 0 2
EndChar

StartChar: Ycircumflex
Encoding: 374 374 309
Width: 617
GlyphClass: 2
Flags: MW
LayerCount: 2
Fore
SplineSet
510 805 m 1
 534 769 565 738 596 711 c 1
 573 690 l 1
 537 708 509 725 480 749 c 1
 440 723 408 707 368 690 c 1
 353 711 l 1
 395 739 431 771 467 805 c 1
 510 805 l 1
EndSplineSet
Refer: 57 89 N 1 0 0 1 0 0 2
EndChar

StartChar: Zacute
Encoding: 377 377 312
Width: 715
GlyphClass: 2
Flags: MW
LayerCount: 2
Fore
SplineSet
514 824 m 1
 572 768 l 1
 419 710 l 2
 396 701 383 698 374 698 c 0
 366 698 362 702 362 710 c 2
 362 710 362 712 362 713 c 0
 363 720 368 732 377 738 c 2
 514 824 l 1
EndSplineSet
Refer: 58 90 N 1 0 0 1 0 0 2
EndChar

StartChar: Zcaron
Encoding: 381 381 316
Width: 598
GlyphClass: 2
Flags: MW
LayerCount: 2
Fore
SplineSet
423 698 m 1
 399 735 369 765 338 793 c 1
 361 813 l 1
 397 796 424 779 453 754 c 1
 494 781 525 797 566 813 c 1
 581 793 l 1
 539 764 502 732 466 698 c 1
 423 698 l 1
EndSplineSet
Refer: 58 90 N 1 0 0 1 0 0 2
EndChar

StartChar: longs
Encoding: 383 383 318
Width: 350
GlyphClass: 2
Flags: MW
LayerCount: 2
Fore
SplineSet
-33 -154 m 0
 -6 -154 24 -164 24 -188 c 0
 24 -193 25 -198 28 -198 c 0
 45 -198 58 -187 85 -98 c 0
 89 -85 101 -27 114 33 c 0
 123 75 131 121 139 152 c 0
 156 227 174 307 191 382 c 1
 171 381 146 381 134 381 c 1
 143 417 l 1
 180 421 197 431 204 461 c 0
 221 537 242 581 262 614 c 0
 294 668 358 711 428 711 c 0
 493 711 556 689 556 645 c 0
 556 617 530 590 489 590 c 0
 438 590 432 613 428 634 c 0
 424 650 421 667 418 667 c 0
 378 667 351 592 326 481 c 2
 256 181 l 2
 253 167 250 153 247 139 c 0
 220 24 198 -66 154 -145 c 1
 113 -214 72 -241 -3 -241 c 0
 -41 -241 -88 -216 -88 -195 c 0
 -88 -170 -59 -154 -33 -154 c 0
EndSplineSet
EndChar

StartChar: uni0180
Encoding: 384 384 319
Width: 517
GlyphClass: 2
Flags: MW
LayerCount: 2
Fore
SplineSet
414 552 m 1
 414.8 548.5 415.2 544.9 415.2 541.4 c 0
 415.2 529.3 410.7 517.1 404 505 c 1
 301.7 505 l 1
 281 417 l 1
 312 433 353 444 391 444 c 0
 490 444 542 371 542 296 c 0
 542 223 490 90 354 15 c 0
 325 -1 286 -10 242 -10 c 0
 201 -10 172 2 140 35 c 1
 127.5 16.5 106 -9 96 -17 c 1
 64 -3 l 1
 71 17 75.7 34.1 85 74 c 2
 184.9 505 l 1
 98 505 l 1
 97.1 507.8 96.5 511.6 96.5 516 c 0
 96.5 527.5 100 542.6 108 552 c 1
 195.8 552 l 1
 197 557 l 2
 202 578.8 204 596 204 607 c 0
 204 629 196 635 183 635 c 2
 152 637 l 2
 148 637 147 639 147 642 c 2
 151 672 l 1
 192 675 306 688 333 698 c 1
 342 698 345 695 345 688 c 1
 345 688 335.2 647.5 320 583 c 2
 312.7 552 l 1
 414 552 l 1
420 286 m 0
 420 343 399 393 360 393 c 0
 343 393 314 391 267 358 c 1
 196 50 l 1
 209 30 226 25 243 25 c 0
 359 25 420 197 420 286 c 0
EndSplineSet
EndChar

StartChar: uni0181
Encoding: 385 385 320
Width: 672
GlyphClass: 2
Flags: MW
AnchorPoint: "below" 328 -108 basechar 0
AnchorPoint: "cedilla" 310 0 basechar 0
AnchorPoint: "above" 327 805 basechar 0
LayerCount: 2
Fore
SplineSet
382 602 m 1
 343 376 l 1
 399 376 l 2
 507 376 537 443 544 487 c 0
 546 499 547 509 547 519 c 0
 547 587 497 604 440 604 c 0
 420 604 400 604 382 602 c 1
334 330 m 1
 283 40 l 1
 306 36 326 34 348 34 c 0
 477 34 526 118 538 185 c 0
 540 195 541 206 541 217 c 0
 541 270 518 330 428 330 c 2
 334 330 l 1
83 508 m 0
 93 565 167 646 283 646 c 2
 482 646 l 2
 629 646 666 575 666 515 c 0
 666 506 665 497 664 489 c 0
 655 438 604 389 545 359 c 1
 647 328 673 263 673 212 c 0
 673 202 672 193 670 185 c 0
 651 74 542 -2 413 -2 c 2
 79 -2 l 1
 83 21 l 2
 84 25 90 27 110 31 c 1
 144 32 l 2
 159 32 161 45 166 72 c 2
 254 571 l 2
 259 598 260 607 262 607 c 1
 232 607 204 585 198 551 c 0
 197 542 197 536 197 529 c 0
 197 521 198 513 197 507 c 0
 192 479 160 468 134 468 c 0
 103 468 83 483 83 503 c 0
 83 505 83 506 83 508 c 0
EndSplineSet
EndChar

StartChar: uni0182
Encoding: 386 386 321
Width: 561
GlyphClass: 2
Flags: MW
LayerCount: 2
Fore
SplineSet
250 343 m 1
 197 39 l 1
 218 35 239 33 258 33 c 0
 350 33 424 79 443 189 c 0
 445 202 447 215 447 228 c 0
 447 287 419 343 321 343 c 2
 250 343 l 1
172 574 m 2
 175 586 176 594 176 600 c 0
 176 610 172 612 162 612 c 2
 133 612 l 2
 114 612 106 615 107 620 c 2
 112 646 l 1
 596 646 l 1
 585 501 l 1
 516 497 l 1
 506 585 480 601 445 601 c 2
 296 601 l 1
 258 384 l 1
 292 384 l 2
 465 384 574 352 574 231 c 0
 574 218 573 204 570 188 c 0
 548 64 429 0 311 0 c 2
 -2 0 l 1
 3 26 l 2
 3 30 11 33 28 35 c 1
 61 35 l 2
 73 35 80 49 85 78 c 2
 172 574 l 2
EndSplineSet
EndChar

StartChar: uni0183
Encoding: 387 387 322
Width: 482
GlyphClass: 2
Flags: MW
AnchorPoint: "below" 234 -109 basechar 0
LayerCount: 2
Fore
SplineSet
185 57 m 1
 180 60 l 1
 194 36 208 29 228 29 c 0
 307 29 367 114 393 225 c 0
 398 250 401 273 401 294 c 0
 401 355 378 394 341 394 c 0
 333 394 293 392 247 353 c 1
 253 356 l 1
 185 57 l 1
308 683 m 2
 587 683 l 1
 568 540 l 1
 499 531 l 1
 498 578 486 638 450 638 c 2
 319 638 l 1
 268 419 l 1
 300 436 335 445 374 445 c 0
 457 445 522 384 522 290 c 0
 522 273 520 256 516 238 c 0
 479 78 335 -12 224 -12 c 0
 184 -12 154 -4 132 11 c 1
 123 3 111 -7 102 -16 c 1
 50 -3 l 1
 58 20 62 36 71 74 c 2
 186 570 l 2
 193 603 196 621 196 629 c 0
 196 634 196 636 194 637 c 1
 184 636 175 634 165 634 c 1
 160 633 155 633 152 633 c 0
 141 633 135 636 135 641 c 2
 140 668 l 1
 201 678 269 683 308 683 c 2
EndSplineSet
EndChar

StartChar: uni0184
Encoding: 388 388 323
Width: 567
GlyphClass: 2
Flags: MW
AnchorPoint: "below" 268 -108 basechar 0
AnchorPoint: "cedilla" 250 0 basechar 0
AnchorPoint: "above" 267 805 basechar 0
LayerCount: 2
Fore
SplineSet
256 343 m 1
 203 39 l 1
 224 35 245 33 264 33 c 0
 356 33 430 79 449 189 c 0
 451 202 453 215 453 228 c 0
 453 287 425 343 327 343 c 2
 256 343 l 1
158 460 m 2
 160 471 161 480 161 489 c 0
 161 533 138 553 108 560 c 1
 115 598 l 1
 169 607 220 633 255 659 c 1
 312 659 l 1
 264 384 l 1
 298 384 l 2
 471 384 580 352 580 231 c 0
 580 218 579 204 576 188 c 0
 554 64 435 0 316 0 c 2
 4 0 l 1
 9 26 l 2
 9 30 17 33 34 35 c 1
 66 35 l 2
 79 35 86 49 91 78 c 2
 158 460 l 2
EndSplineSet
EndChar

StartChar: uni0185
Encoding: 389 389 324
Width: 510
GlyphClass: 2
Flags: MW
AnchorPoint: "below" 238 -108 basechar 0
LayerCount: 2
Fore
SplineSet
199 59 m 1
 194 61 l 1
 208 38 222 31 242 31 c 0
 321 31 381 116 407 226 c 0
 413 251 415 275 415 295 c 0
 415 356 392 396 355 396 c 0
 348 396 308 394 261 354 c 1
 268 357 l 1
 199 59 l 1
183 500 m 2
 186 512 188 522 188 532 c 0
 188 571 165 588 138 601 c 1
 146 636 l 1
 183 644 232 657 290 698 c 1
 346 698 l 1
 282 421 l 1
 314 438 349 446 388 446 c 0
 471 446 536 385 536 291 c 0
 536 275 534 257 530 239 c 0
 493 79 349 -11 238 -11 c 0
 198 -11 168 -3 146 13 c 1
 137 4 125 -6 115 -14 c 1
 64 -2 l 1
 72 21 77 37 85 76 c 2
 183 500 l 2
EndSplineSet
EndChar

StartChar: uni0186
Encoding: 390 390 325
Width: 669
GlyphClass: 2
Flags: MW
LayerCount: 2
Fore
SplineSet
403 659 m 0
 602 659 688 532 688 393 c 0
 688 373 686 352 682 331 c 0
 647 134 459 -12 284 -12 c 0
 205 -12 166 4 133 16 c 0
 111 25 100 33 74 33 c 1
 81 202 l 1
 134 209 l 1
 142 110 176 32 303 32 c 0
 374 32 514 114 549 312 c 0
 554 338 556 365 556 391 c 0
 556 506 509 610 395 610 c 0
 314 610 242 574 150 490 c 1
 118 518 l 1
 202 607 297 659 403 659 c 0
EndSplineSet
EndChar

StartChar: uni0187
Encoding: 391 391 326
Width: 672
GlyphClass: 2
Flags: MW
LayerCount: 2
Fore
SplineSet
826 743 m 0
 850 743 856 727 856 713 c 0
 856 711 856 708 855 707 c 0
 850 676 823 672 800 672 c 0
 767 672 725 672 711 595 c 0
 710 588 709 581 709 574 c 1
 708.3 573.9 l 1
 706.5 530.9 704.8 488 703 445 c 1
 650 437 l 1
 642 536 608 614 481 614 c 0
 411 614 270 532 235 334 c 0
 230 308 228 281 228 255 c 0
 228 140 275 37 389 37 c 0
 470 37 542 73 634 156 c 1
 667 129 l 1
 582 39 487 -12 381 -12 c 0
 183 -12 97 114 97 253 c 0
 97 274 98 295 102 315 c 0
 137 512 325 658 500 658 c 0
 579 658 618 643 651 630 c 0
 665.8 624.6 675.6 619.2 688.3 616.3 c 1
 711 702.7 789.1 743 826 743 c 0
EndSplineSet
EndChar

StartChar: uni0188
Encoding: 392 392 327
Width: 518
GlyphClass: 2
Flags: MW
LayerCount: 2
Fore
SplineSet
567 428 m 0
 551 428 534 437 517 437 c 0
 500.6 437 486 429.4 473.8 418 c 1
 493.9 402.7 503 382.2 503 360 c 0
 503 353 503 347 501 340 c 0
 494 309 470 284 438 284 c 0
 409 284 392 301 392 325 c 0
 392 327 392 329 393 331 c 1
 393 337 394 344 394 350 c 0
 394 377 385 403 354 403 c 0
 302 403 247 335 222 231 c 0
 216 206 213 181 213 160 c 0
 213 86 246 39 295 39 c 0
 325 39 374 64 424 118 c 1
 450 97 l 1
 387 20 332 -12 261 -12 c 0
 151 -12 90 51 90 148 c 0
 90 167 92 188 97 210 c 0
 130 353 250 445 368 445 c 0
 402.1 445 429 440.1 449.5 431.7 c 1
 489.4 479.7 543 499 575 499 c 0
 603 499 610 485 610 472 c 0
 610 469 610 465 609 463 c 0
 604 442 587 428 567 428 c 0
EndSplineSet
EndChar

StartChar: uni0189
Encoding: 393 393 328
Width: 731
GlyphClass: 2
Flags: MW
LayerCount: 2
Fore
SplineSet
260 75 m 2
 259 71 259 67 259 64 c 0
 259 45 274 40 340 40 c 0
 468 40 590 88 625 284 c 0
 629 312 632 339 632 367 c 0
 632 491 577 606 416 606 c 0
 379 606 353 603 347 571 c 2
 305.3 333 l 1
 371 333 l 1
 363 287 l 1
 297.2 287 l 1
 260 75 l 2
40 22 m 2
 41 29 51 35 71 35 c 2
 100 35 l 2
 122 35 132 48 137 77 c 2
 174.1 287 l 1
 92 287 l 1
 100 333 l 1
 182.3 333 l 1
 224 569 l 2
 226 578 226 584 226 590 c 0
 226 606 219 611 202 611 c 2
 174 611 l 2
 155 611 144 616 146 624 c 2
 150 647 l 1
 297 645 l 2
 304 645 311 646 317 646 c 0
 373 646 431 647 460 647 c 0
 642 647 769 523 769 364 c 0
 769 346 767 327 763 309 c 0
 720 63 513 -1 363 -1 c 0
 300 -1 259 0 229 0 c 1
 211 1 197 1 183 1 c 0
 141 0 77 -1 35 -1 c 1
 40 22 l 2
EndSplineSet
EndChar

StartChar: uni018A
Encoding: 394 394 329
Width: 802
GlyphClass: 2
Flags: MW
AnchorPoint: "below" 369 -107 basechar 0
AnchorPoint: "cedilla" 369 4 basechar 0
AnchorPoint: "above" 306 805 basechar 0
LayerCount: 2
Fore
SplineSet
316 75 m 2
 315 71 315 67 315 64 c 0
 315 45 330 40 396 40 c 0
 524 40 646 88 681 284 c 0
 686 312 688 339 688 367 c 0
 688 491 633 606 472 606 c 0
 435 606 409 603 403 571 c 2
 316 75 l 2
199 505 m 0
 195 483 169 468 137 468 c 0
 114 468 86 476 86 503 c 0
 86 506 87 509 87 512 c 0
 95 556 154 643 283 646 c 1
 353 645 l 2
 360 645 367 646 374 646 c 0
 429 646 487 647 516 647 c 0
 698 647 825 523 825 364 c 0
 825 346 823 327 819 309 c 0
 776 63 569 -1 419 -1 c 0
 356 -1 315 0 285 0 c 1
 267 1 253 1 240 1 c 0
 198 0 134 -1 91 -1 c 1
 96 22 l 2
 97 29 107 35 127 35 c 2
 156 35 l 2
 178 35 188 48 193 77 c 2
 280 569 l 2
 282 580 283 588 283 594 c 0
 283 604 280 609 272 610 c 1
 245 607 207 592 200 554 c 0
 199 544 198 537 199 531 c 0
 200 521 201 512 199 505 c 0
EndSplineSet
EndChar

StartChar: uni018B
Encoding: 395 395 330
Width: 562
GlyphClass: 2
Flags: MW
LayerCount: 2
Fore
SplineSet
430 343 m 1
 360 343 l 2
 240 343 196 260 183 189 c 0
 181 175 180 162 180 149 c 0
 180 68 233 33 313 33 c 0
 332 33 354 35 376 39 c 1
 430 343 l 1
589 574 m 1
 502 78 l 2
 500 68 500 61 500 54 c 0
 500 41 503 35 512 35 c 2
 544 35 l 1
 560 33 567 30 566 26 c 2
 562 0 l 1
 249 0 l 2
 142 0 53 53 53 154 c 0
 53 165 54 176 56 188 c 0
 83 345 211 384 403 384 c 2
 438 384 l 1
 476 601 l 1
 327 601 l 2
 291 601 259 585 219 497 c 1
 151 501 l 1
 191 646 l 1
 675 646 l 1
 671 620 l 2
 670 615 661 612 643 612 c 2
 613 612 l 2
 599 612 596 608 589 574 c 1
EndSplineSet
EndChar

StartChar: uni018C
Encoding: 396 396 331
Width: 494
GlyphClass: 2
Flags: MW
AnchorPoint: "below" 217 -107 basechar 0
AnchorPoint: "above" 214 650 basechar 0
LayerCount: 2
Fore
SplineSet
333 92 m 1
 393 348 l 1
 396 346 l 1
 380 382 362 403 330 403 c 0
 315 403 285 399 244 354 c 0
 228 336 204 296 187 222 c 0
 180 193 177 167 177 145 c 0
 177 72 209 38 243 38 c 0
 264 38 292 57 341 95 c 1
 333 92 l 1
586 683 m 1
 458 122 l 2
 451 95 448 80 448 73 c 0
 448 64 448 60 447 60 c 1
 458 60 477 60 518 65 c 1
 514 30 l 1
 451 20 395 8 366 -12 c 1
 308 -12 l 1
 317 22 l 1
 285 3 246 -12 206 -12 c 0
 107 -12 55 50 55 141 c 0
 55 161 57 182 62 205 c 0
 79 276 115 338 172 384 c 1
 221 422 273 445 350 445 c 0
 365 445 391 441 413 435 c 1
 459 638 l 1
 328 638 l 2
 292 638 252 578 229 531 c 1
 164 540 l 1
 212 683 l 1
 586 683 l 1
EndSplineSet
EndChar

StartChar: uni018D
Encoding: 397 397 332
Width: 515
GlyphClass: 2
Flags: MW
LayerCount: 2
Fore
SplineSet
199 219 m 0
 196 207 195 193 195 180 c 0
 195 135 210 85 241 55 c 2
 259 37 l 1
 325 63 395 111 419 215 c 0
 424 237 427 262 427 286 c 0
 427 348 407 408 351 408 c 0
 309 408 235 376 199 219 c 0
291 5 m 1
 302 -6 l 2
 358 -62 388 -97 388 -136 c 0
 388 -142 387 -148 386 -154 c 0
 368 -233 284 -265 204 -265 c 0
 99 -265 42 -212 42 -177 c 0
 42 -175 42 -172 42 -170 c 0
 50 -139 88 -130 111 -130 c 0
 127 -130 159 -138 170 -175 c 0
 181 -212 198 -225 214 -225 c 0
 252 -225 279 -204 289 -164 c 0
 289 -162 290 -160 290 -158 c 0
 290 -131 254 -98 219 -65 c 0
 135 12 70 82 70 167 c 0
 70 180 71 193 75 207 c 0
 113 372 255 445 371 445 c 0
 486 445 548 376 548 285 c 0
 548 268 546 251 542 233 c 0
 513 105 390 39 291 5 c 1
EndSplineSet
EndChar

StartChar: uni018E
Encoding: 398 398 333
Width: 594
GlyphClass: 2
Flags: MW
LayerCount: 2
Fore
SplineSet
216 647 m 1
 471 646 l 1
 547 645 l 1
 590 646 656 647 698 647 c 1
 693 622 l 2
 693 618 688 611 662 611 c 2
 633 611 l 2
 611 611 601 598 596 570 c 2
 509 75 l 2
 508 69 507 63 507 59 c 0
 507 44 514 35 531 35 c 2
 561 35 l 2
 585 35 589 30 588 24 c 2
 583 -1 l 1
 434 1 l 2
 408 1 382 0 357 0 c 2
 66 0 l 1
 69 163 l 1
 119 174 l 1
 122 101 136 46 185 46 c 2
 367 46 l 2
 375 46 381 52 385 75 c 2
 429 323 l 1
 316 323 l 2
 299 323 290 309 280 283 c 2
 269 252 l 1
 270 252 l 1
 268 248 258 242 237 242 c 2
 216 242 l 1
 213 251 l 1
 218 268 230 309 236 344 c 0
 242 376 244 413 246 438 c 0
 247 442 254 446 272 446 c 2
 273 446 l 2
 291 446 301 441 301 435 c 1
 300 435 l 1
 301 425 302 416 302 406 c 0
 303 383 308 365 323 365 c 2
 437 365 l 1
 473 571 l 2
 474 577 474 582 474 585 c 0
 474 596 471 600 464 600 c 2
 313 600 l 2
 277 600 238 539 224 495 c 1
 176 502 l 1
 216 647 l 1
EndSplineSet
EndChar

StartChar: uni018F
Encoding: 399 399 334
Width: 692
GlyphClass: 2
Flags: MW
LayerCount: 2
Fore
SplineSet
561 213 m 1
 201 213 l 1
 211 90 271 29 355 29 c 0
 445 29 525 118 561 213 c 1
204 503 m 1
 171 545 l 1
 266 620 332 658 453 658 c 0
 649 658 729 529 729 392 c 0
 729 370 728 348 724 327 c 0
 689 131 545 -12 341 -12 c 0
 152 -12 84 99 84 228 c 0
 84 240 85 252 86 265 c 1
 580 265 l 1
 582 274 585 287 586 297 c 0
 592 328 595 357 595 384 c 0
 595 521 531 617 431 617 c 0
 351 617 275 561 204 503 c 1
EndSplineSet
EndChar

StartChar: uni0190
Encoding: 400 400 335
Width: 541
GlyphClass: 2
Flags: MW
LayerCount: 2
Fore
SplineSet
423 658 m 0
 471 658 494 650 515 642 c 0
 533 636 550 631 582 627 c 1
 574 483 l 1
 500 471 l 1
 497 552 487 617 407 617 c 0
 341 617 283 578 269 499 c 0
 268 490 267 480 267 471 c 0
 267 424 287 369 367 369 c 2
 434 369 l 2
 457 369 468 360 468 349 c 0
 468 347 468 346 468 345 c 0
 466 331 451 322 426 322 c 2
 330 322 l 2
 241 322 203 250 192 188 c 0
 189 169 188 153 188 138 c 0
 188 60 230 29 285 29 c 0
 343 29 423 68 467 179 c 1
 537 170 l 1
 495 25 l 1
 458 20 439 14 419 9 c 0
 382 -1 345 -12 287 -12 c 0
 185 -12 57 16 57 134 c 0
 57 145 58 156 60 167 c 0
 78 268 165 327 239 352 c 1
 208 366 152 402 152 468 c 0
 152 475 153 483 154 491 c 0
 174 604 309 658 423 658 c 0
EndSplineSet
EndChar

StartChar: uni0191
Encoding: 401 401 336
Width: 530
GlyphClass: 2
Flags: MW
LayerCount: 2
Fore
SplineSet
113 4 m 2
 213 571 l 2
 214 578 215 583 215 589 c 0
 215 603 209 611 191 611 c 2
 161 611 l 2
 136 611 133 618 134 622 c 2
 136 638 l 1
 154 647 l 1
 287 645 l 2
 311 645 335 646 360 646 c 2
 644 647 l 1
 632 502 l 1
 563 495 l 1
 563 539 546 600 510 600 c 2
 355 600 l 2
 346 600 340 592 336 571 c 2
 300 365 l 1
 417 365 l 2
 434 365 443 382 453 406 c 0
 457 416 461 425 465 435 c 1
 464 435 l 1
 466 441 478 446 495 446 c 2
 517 446 l 2
 535 446 542 442 541 438 c 0
 534 415 522 376 516 344 c 0
 510 309 508 281 507 251 c 1
 500 242 l 1
 459 242 l 2
 438 242 431 248 431 252 c 1
 432 252 l 1
 431 283 l 2
 431 309 427 323 410 323 c 2
 292 323 l 1
 236 4 l 2
 208 -155 88 -196 19 -196 c 0
 -20 -196 -95 -184 -95 -135 c 0
 -95 -132 -95 -129 -94 -126 c 0
 -89 -100 -61 -93 -35 -93 c 0
 12 -93 16 -122 17 -135 c 0
 17 -145 18 -158 25 -158 c 0
 61 -158 90 -127 113 4 c 2
EndSplineSet
EndChar

StartChar: florin
Encoding: 402 402 337
Width: 475
GlyphClass: 2
Flags: MW
LayerCount: 2
Fore
SplineSet
498 698 m 0
 583 698 609 666 609 637 c 0
 609 634 609 630 608 627 c 0
 603 605 579 586 546 586 c 0
 512 586 498 596 493 614 c 1
 494 613 l 1
 487 631 485 637 485 638 c 2
 490 627 l 1
 490 627 488 652 488 658 c 2
 488 662 l 1
 480 662 459 636 421 538 c 1
 409 503 396 468 384 433 c 1
 488 433 l 1
 471 386 l 1
 367 386 l 1
 366 382 363 377 362 373 c 0
 225 -23 173 -170 34 -170 c 0
 -30 -170 -48 -139 -48 -118 c 0
 -48 -115 -47 -113 -47 -111 c 0
 -43 -94 -19 -74 13 -74 c 0
 44 -74 57 -83 60 -97 c 0
 62 -104 63 -109 63 -110 c 0
 63 -116.6 62.1 -124.2 56.9 -124.9 c 1
 98.6 -121.1 136.3 9 177 148 c 0
 190 192 203 237 217 280 c 2
 252 386 l 1
 171 386 l 1
 188 433 l 1
 245 433 l 2
 264 433 278 455 289 482 c 1
 343 631 429 698 498 698 c 0
EndSplineSet
EndChar

StartChar: uni0193
Encoding: 403 403 338
Width: 745
GlyphClass: 2
Flags: MW
LayerCount: 2
Fore
SplineSet
825 743 m 0
 849 743 855 727 855 713 c 0
 855 711 855 708 854 707 c 0
 849 676 822 672 799 672 c 0
 792 672 784 673 779 673 c 0
 775 673 773 673 771 672 c 0
 740.5 667.1 722.9 640.4 714.3 612.7 c 1
 718.8 612.3 724 612 730 612 c 1
 723 443 l 1
 666 437 l 1
 658 536 624 614 497 614 c 0
 376 614 259 498 229 327 c 0
 226 310 224 291 224 272 c 0
 224 155 287 32 425 32 c 0
 471 32 526 48 565 80 c 1
 558 77 l 1
 584 229 l 2
 585 234 585 239 585 243 c 0
 585 260 578 268 559 268 c 2
 533 268 l 2
 517 268 503 272 505 280 c 2
 509 302 l 1
 521 312 l 1
 521 312 620 310 659 310 c 0
 694 310 765 312 765 312 c 1
 773 302 l 1
 769 280 l 2
 768 272 757 268 737 268 c 0
 719 268 712 253 708 229 c 2
 687 114 l 2
 685 99 688 92 694 85 c 1
 614 26 522 -12 396 -12 c 0
 206 -12 91 105 91 254 c 0
 91 271 93 290 96 308 c 0
 135 528 338 658 519 658 c 0
 597 658 636 642 667 630 c 1
 668 630 l 1
 676.7 626.7 682.1 623 688.3 619.9 c 1
 712.2 703.9 788.6 743 825 743 c 0
EndSplineSet
EndChar

StartChar: uni0194
Encoding: 404 404 339
Width: 586
GlyphClass: 2
Flags: MW
AnchorPoint: "above" 331 805 basechar 0
LayerCount: 2
Fore
SplineSet
262 51 m 1
 151 569 l 1
 147 591 l 1
 148 591 l 1
 146 602 144 608 143 608 c 0
 138 611 133 612 128 612 c 2
 108 613 l 2
 100 613 97 613 96 614 c 0
 86 618 79 622 79 624 c 2
 83 646 l 1
 107 646 l 2
 108 646 122 646 137 646 c 0
 165 645 202 644 208 644 c 0
 212 644 319 646 332 646 c 2
 356 646 l 1
 353 625 l 1
 351 619 342 615 325 613 c 1
 285 612 l 2
 282.4 612 281.3 612.8 281.7 613.6 c 1
 278.9 609.7 277 604.8 276 599 c 2
 275 595 l 1
 276 586 276 580 277 574 c 1
 276 574 l 1
 300 465 324 352 347 242 c 1
 351 220 l 1
 355 228 358 236 363 243 c 2
 555 574 l 2
 559 580 562 586 563 591 c 0
 564 594 564 596 565 598 c 2
 567 610 l 1
 571 609 l 1
 569 611 562 612 550 612 c 0
 541 612 526 613 516 613 c 1
 498 617 495 621 495 624 c 2
 499 646 l 1
 523 646 l 2
 524 646 538 646 554 646 c 0
 582 646 623 644 629 644 c 0
 631 644 698 646 706 646 c 2
 731 646 l 1
 730 640 l 1
 728 625 l 2
 728 624 722.4 619.8 712 615 c 0
 710 614 703 613 693 613 c 2
 677 612 l 2
 670 612 666 611 661 608 c 0
 657 606 653 600 650 592 c 0
 648 588 645 581 638 569 c 2
 348 75 l 1
 349 65 347 55 345 45 c 0
 342 28 338 10 334 -6 c 0
 331 -20 329 -31 327 -40 c 0
 322 -67 314 -97 304 -125 c 0
 284 -176 252 -210 210 -210 c 0
 170 -210 152 -187 152 -144 c 0
 152 -141 152 -138 153 -134 c 1
 153 -129 154 -125 154 -121 c 0
 162 -77 198 -21 262 51 c 1
EndSplineSet
EndChar

StartChar: uni0195
Encoding: 405 405 340
Width: 739
GlyphClass: 2
Flags: MW
AnchorPoint: "below" 259 -111 basechar 0
AnchorPoint: "above" 299 645 basechar 0
LayerCount: 2
Fore
SplineSet
419 295 m 2
 425 319 427 337 427 351 c 0
 427 381 414 391 386 391 c 0
 367 391 324 366 267 319 c 1
 273 322 l 1
 216 75 l 2
 214 66 213 59 213 53 c 0
 213 41 218 35 228 35 c 2
 247 35 l 2
 263 35 276 31 274 23 c 2
 271 8 l 1
 258 -1 l 1
 258 -1 177 1 139 1 c 0
 104 1 22 -1 22 -1 c 1
 15 8 l 1
 18 23 l 2
 20 31 32 35 50 35 c 2
 69 35 l 2
 85 35 93 49 99 75 c 2
 213 570 l 2
 221 604 224 622 224 631 c 0
 224 635 223 637 222 638 c 1
 211 637 203 636 192 635 c 0
 189 634 187 634 185 634 c 0
 173 634 164 638 164 643 c 0
 164 644 167 663 168 673 c 1
 194 673 238 678 256 681 c 0
 271 684 285 688 309 698 c 1
 360 698 l 1
 291 395 l 1
 354 435 405 445 442 445 c 0
 509 445 542 411 542 347 c 0
 542 329 539 308 534 284 c 2
 499 132 l 2
 495 116 493 101 493 89 c 0
 493 57 507 42 531 42 c 0
 593 42 659 144 681 238 c 0
 688 269 691 293 691 312 c 0
 691 347 680 361 668 364 c 1
 653 366 617 372 617 397 c 0
 617 400 617 402 618 405 c 0
 623 424 648 445 689 445 c 0
 749 445 775 408 775 342 c 0
 775 315 771 285 763 250 c 0
 721 66 608 -12 519 -12 c 0
 421 -12 377 25 377 91 c 0
 377 104 379 119 383 135 c 2
 419 295 l 2
EndSplineSet
EndChar

StartChar: uni0196
Encoding: 406 406 341
Width: 326
GlyphClass: 2
Flags: MW
LayerCount: 2
Fore
SplineSet
207.8 563 m 2
 223.6 631.5 218.3 633 156.4 638 c 1
 153.4 647 155.3 660 161 672 c 1
 232.7 675 305 686 344.7 698 c 1
 353.7 698 359.9 694 357.9 685 c 2
 357.9 685 347.3 647.9 332.2 583 c 2
 228 134 l 2
 224.5 118.8 218.6 97.4 218.6 82.7 c 0
 218.6 72.8 221.3 66 229 66 c 0
 239 66 267.5 80.5 292 100 c 1
 306 100 315.5 88 318 74 c 1
 251.5 19 202.5 -10 140 -10 c 0
 106 -10 95.1 13.3 95.1 46.2 c 0
 95.1 69.3 100.6 97 107 125 c 2
 207.8 563 l 2
EndSplineSet
EndChar

StartChar: uni0197
Encoding: 407 407 342
Width: 317
GlyphClass: 2
Flags: MW
LayerCount: 2
Fore
SplineSet
364 368 m 1
 357 329 l 1
 291 329 l 1
 247 77 l 2
 246 73 245 69 245 65 c 0
 245 44 258 33 293 33 c 2
 308 33 l 2
 312 33 315 30 314 24 c 2
 310 1 l 1
 308 -1 l 1
 308 -1 206 1 170 1 c 0
 131 1 34 -1 34 -1 c 1
 32 1 l 1
 37 24 l 2
 38 30 42 33 46 33 c 2
 61 33 l 2
 100 33 117 45 123 77 c 2
 167 329 l 1
 101 329 l 1
 108 368 l 1
 173.9 368 l 1
 209 569 l 2
 210 573 211 578 211 582 c 0
 211 604 196 613 163 613 c 2
 148 613 l 2
 144 613 141 616 142 621 c 2
 146 645 l 1
 148 646 l 1
 148 646 245 645 284 645 c 0
 320 645 421 646 421 646 c 1
 423 645 l 1
 419 621 l 2
 418 616 415 613 410 613 c 2
 396 613 l 2
 354 613 338 597 333 569 c 2
 297.9 368 l 1
 364 368 l 1
EndSplineSet
EndChar

StartChar: uni0198
Encoding: 408 408 343
Width: 661
GlyphClass: 2
Flags: MW
LayerCount: 2
Fore
SplineSet
236 75 m 2
 235 69 234 64 234 60 c 0
 234 43 242 35 261 35 c 2
 287 35 l 2
 303 35 316 31 315 23 c 2
 312 8 l 1
 301 -1 l 1
 301 -1 201 1 163 1 c 0
 127 1 21 -1 21 -1 c 1
 13 8 l 1
 15 23 l 2
 17 31 29 35 47 35 c 2
 73 35 l 2
 98 35 108 50 112 75 c 2
 200 571 l 2
 201 577 201 582 201 586 c 0
 201 603 193 611 175 611 c 2
 149 611 l 2
 133 611 119 615 121 623 c 2
 123 638 l 1
 135 647 l 1
 135 647 234 645 273 645 c 0
 308 645 415 647 415 647 c 1
 423 638 l 1
 420 623 l 2
 419 615 407 611 389 611 c 2
 363 611 l 2
 338 611 328 596 323 571 c 2
 288 368 l 1
 295 374 304 380 314 389 c 0
 356 424 396 460 450 514 c 0
 466 531 480 547 495 563 c 1
 494 563 l 1
 541 616 580 658 647 658 c 0
 716 658 763 624 763 592 c 0
 763 590 763 588 763 586 c 0
 759 564 726 546 698 546 c 0
 658 546 654 564 649 582 c 0
 644 599 640 617 632 617 c 0
 622 617 590 583 552 540 c 0
 536 522 519 503 500 484 c 0
 480 464 460 446 443 430 c 0
 410 399 386 377 383 358 c 0
 381 347 384 341 388 335 c 0
 449 251 517 162 578 78 c 0
 598 51 615 35 632 35 c 2
 639 35 l 2
 653 35 669 31 668 23 c 2
 666 8 l 1
 647 -1 l 1
 647 -1 565 1 526 1 c 0
 491 1 453 -2 453 -2 c 1
 445 8 l 1
 445 11 l 1
 447 21 449 33 449 45 c 0
 449 56 447 66 441 73 c 2
 296 270 l 2
 288 281 281 289 274 294 c 1
 236 75 l 2
EndSplineSet
EndChar

StartChar: uni0199
Encoding: 409 409 344
Width: 503
GlyphClass: 2
Flags: MW
AnchorPoint: "below" 263 -107 basechar 0
AnchorPoint: "cedilla" 125 10 basechar 0
LayerCount: 2
Fore
SplineSet
195 494 m 2
 218 597 286 697 407 697 c 0
 454 697 509 678 509 648 c 0
 509 647 509 645 508 643 c 0
 502 616 474 601 445 601 c 0
 407 601 394 625 393 647 c 0
 393 655 396 660 400 661 c 1
 371 659 339 611 319 524 c 2
 258 260 l 1
 289 279 319 305 371 349 c 0
 384 360 391 374 393 385 c 0
 395 391 395 397 389 397 c 2
 385 397 l 2
 368 397 356 404 358 410 c 2
 361 425 l 1
 380 434 l 1
 380 434 435 432 469 432 c 0
 508 432 570 434 570 434 c 1
 586 425 l 1
 583 410 l 2
 581 402 560 397 547 397 c 2
 540 397 l 2
 521 397 479 375 450 351 c 0
 419 324 387 295 355 269 c 1
 356 269 l 1
 351 264 351 256 354 249 c 2
 431 78 l 2
 442 52 461 35 477 35 c 2
 480 35 l 2
 499 35 513 31 511 23 c 2
 508 9 l 1
 500 -2 l 1
 500 -2 433 1 394 1 c 0
 359 1 319 -2 319 -2 c 1
 311 10 l 1
 313 23 l 2
 314 28 315 33 315 38 c 0
 315 48 313 59 306 73 c 0
 291 107 273 142 257 175 c 0
 252 185 249 194 244 199 c 1
 215 75 l 2
 213 66 212 59 212 53 c 0
 212 42 216 35 227 35 c 2
 229 35 l 2
 245 35 258 31 256 23 c 2
 252 8 l 1
 240 -1 l 1
 240 -1 176 1 138 1 c 0
 103 1 21 -1 21 -1 c 1
 14 8 l 1
 17 23 l 2
 19 31 31 35 49 35 c 2
 68 35 l 2
 84 35 92 49 98 75 c 2
 195 494 l 2
EndSplineSet
EndChar

StartChar: uni019A
Encoding: 410 410 345
Width: 285
GlyphClass: 2
Flags: MW
LayerCount: 2
Fore
SplineSet
364 344 m 1
 355 304 l 1
 285.3 304 l 1
 233 77 l 2
 231 70 231 64 231 60 c 0
 231 42 240 33 266 33 c 2
 274 33 l 2
 279 33 282 30 281 24 c 2
 275 1 l 1
 273 -1 l 1
 273 -1 198 1 159 1 c 0
 123 1 41 -1 41 -1 c 1
 39 1 l 1
 44 24 l 2
 45 30 49 33 54 33 c 2
 62 33 l 2
 96 33 109 48 115 77 c 2
 167.5 304 l 1
 99 304 l 1
 108 344 l 1
 176.7 344 l 1
 229 570 l 2
 236 598 239 616 239 626 c 0
 239 638 235 642 226 642 c 1
 204 639 l 1
 193 638 l 2
 190 638 188 640 189 643 c 2
 194 672 l 1
 242 676 311 685 348 698 c 1
 376 698 l 1
 294.5 344 l 1
 364 344 l 1
EndSplineSet
EndChar

StartChar: uni019B
Encoding: 411 411 346
Width: 556
GlyphClass: 2
Flags: MW
LayerCount: 2
Fore
SplineSet
515 629 m 1
 531 585 l 1
 409 522 l 1
 420 526 l 1
 438 270 l 2
 448 121 455 62 471 62 c 0
 481 62 499 75 536 132 c 1
 584 99 l 1
 550 37 500 -12 450 -12 c 0
 386 -12 363 34 356 127 c 1
 346 305 l 1
 280 208 215 110 149 13 c 1
 42 -15 l 1
 7 0 l 1
 335 428 l 1
 334 443 333 460 332 476 c 1
 332 479 l 1
 332 479 332 480 332 482 c 1
 298 465 257 444 230 430 c 1
 215 474 l 1
 336 537 l 1
 325 532 l 1
 311 612 295 630 281 630 c 0
 263 630 231 614 193 589 c 1
 178 634 l 1
 215 674 269 698 311 698 c 0
 337 698 402 681 415 578 c 1
 448 594 489 615 515 629 c 1
EndSplineSet
EndChar

StartChar: uni019C
Encoding: 412 412 347
Width: 880
GlyphClass: 2
Flags: MW
AnchorPoint: "below" 450 -108 basechar 0
AnchorPoint: "cedilla" 773 16 basechar 0
AnchorPoint: "above" 431 801 basechar 0
LayerCount: 2
Fore
SplineSet
319 571 m 2
 241 130 l 2
 239 117 238 106 238 97 c 0
 238 59 254 43 277 43 c 0
 310 43 353 62 412 114 c 1
 405 110 l 1
 405 126 408 138 410 151 c 2
 484 571 l 2
 485 578 486 584 486 590 c 0
 486 604 481 611 468 611 c 2
 447 611 l 2
 431 611 417 615 418 623 c 2
 421 638 l 1
 433 647 l 1
 433 647 519 645 561 645 c 0
 599 645 686 647 686 647 c 1
 694 638 l 1
 691 623 l 2
 690 615 677 611 659 611 c 2
 639 611 l 2
 620 611 612 597 607 571 c 2
 530 132 l 2
 528 119 527 108 527 98 c 0
 527 60 543 43 565 43 c 0
 594 43 638 67 697 115 c 1
 690 112 l 1
 771 571 l 2
 772 578 772 583 772 588 c 0
 772 603 767 611 753 611 c 2
 733 611 l 2
 717 611 703 615 705 623 c 2
 707 638 l 1
 719 647 l 1
 719 647 805 645 847 645 c 0
 885 645 972 647 972 647 c 1
 979 638 l 1
 977 623 l 2
 976 615 963 611 945 611 c 2
 924 611 l 2
 906 611 898 597 894 571 c 2
 812 111 l 2
 806 72 804 60 804 56 c 0
 804 55 804 55 805 55 c 0
 815 55 830 57 871 65 c 1
 872 27 l 1
 795 16 773 10 743 -3 c 0
 731 -8 719 -12 706 -12 c 2
 668 -12 l 1
 680 44 l 1
 631 11 578 -12 518 -12 c 0
 460 -12 422 16 409 50 c 1
 347 7 286 -12 229 -12 c 0
 143 -12 116 32 116 95 c 0
 116 113 119 132 122 152 c 2
 196 571 l 2
 197 578 198 583 198 588 c 0
 198 603 192 611 179 611 c 2
 159 611 l 2
 142 611 129 615 130 623 c 2
 133 638 l 1
 144 647 l 1
 144 647 230 645 272 645 c 0
 311 645 397 647 397 647 c 1
 405 638 l 1
 402 623 l 2
 401 615 390 611 371 611 c 2
 351 611 l 2
 332 611 323 597 319 571 c 2
EndSplineSet
EndChar

StartChar: uni019D
Encoding: 413 413 348
Width: 720
GlyphClass: 2
Flags: MW
LayerCount: 2
Fore
SplineSet
107 55 m 2
 194 547 l 1
 193 572 179 611 160 611 c 2
 154 611 l 2
 141 611 121 615 122 623 c 2
 124 634 l 1
 135 647 l 1
 289 646 l 1
 289 646 467 383 566 209 c 0
 570 201 575 193 579 186 c 1
 644 554 l 2
 645 561 646 568 646 575 c 0
 646 594 640 611 622 611 c 2
 596 611 l 2
 583 611 562 615 563 623 c 2
 566 640 l 1
 588 647 l 1
 588 647 667 645 702 645 c 0
 741 645 826 647 826 647 c 1
 834 638 l 1
 832 623 l 2
 830 615 815 611 800 611 c 2
 773 611 l 2
 750 611 736 583 731 554 c 2
 638 25 l 2
 634 3 618 -8 589 -8 c 1
 564 -7 546 0 537 15 c 0
 448 160 358 306 269 452 c 0
 267 454 266 456 265 458 c 1
 264 452 263 445 262 438 c 2
 201 92 l 2
 177 -42 150 -185 18 -185 c 0
 -39 -185 -73 -156 -73 -135 c 2
 -73 -132 l 1
 -67 -98 -26 -94 -12 -94 c 0
 14 -94 32 -115 35 -137 c 0
 35 -144 35 -147 32 -148 c 1
 69 -145 94 -17 107 55 c 2
EndSplineSet
EndChar

StartChar: uni019E
Encoding: 414 414 349
Width: 533
GlyphClass: 2
Flags: MW
AnchorPoint: "below" 265 -111 basechar 0
AnchorPoint: "cedilla" 128 10 basechar 0
AnchorPoint: "above" 264 646 basechar 0
LayerCount: 2
Fore
SplineSet
318 -151 m 2
 420 291 l 2
 426 318 430 339 430 354 c 0
 430 378 421 389 401 389 c 0
 368 389 332 373 269 315 c 1
 274 318 l 1
 218 75 l 2
 216 66 215 59 215 53 c 0
 215 42 220 35 230 35 c 2
 244 35 l 2
 260 35 273 31 271 23 c 2
 268 8 l 1
 255 -1 l 1
 255 -1 179 1 141 1 c 0
 105 1 24 -1 24 -1 c 1
 17 8 l 1
 20 23 l 2
 22 31 34 35 52 35 c 2
 71 35 l 2
 88 35 95 49 101 75 c 2
 158 321 l 2
 168 366 170 376 170 378 c 1
 170 378 157 378 107 369 c 1
 109 405 l 1
 159 414 193 419 229 436 c 0
 242 442 252 445 267 445 c 2
 304 445 l 1
 290 393 l 1
 349 436 395 445 443 445 c 0
 521 445 546 408 546 354 c 0
 546 333 542 309 536 284 c 2
 436 -151 l 2
 434 -160 433 -167 433 -173 c 0
 433 -185 437 -190 447 -190 c 2
 466 -190 l 2
 482 -190 495 -195 493 -203 c 2
 490 -218 l 1
 478 -228 l 1
 478 -228 397 -225 358 -225 c 0
 323 -225 246 -228 246 -228 c 1
 239 -218 l 1
 242 -203 l 2
 244 -195 256 -190 274 -190 c 2
 289 -190 l 2
 305 -190 312 -176 318 -151 c 2
EndSplineSet
EndChar

StartChar: uni019F
Encoding: 415 415 350
Width: 729
GlyphClass: 2
Flags: MW
LayerCount: 2
Fore
SplineSet
769 329 m 0
 733 129 578 -12 376 -12 c 0
 214 -12 98 86 98 247 c 0
 98 267 100 288 104 311 c 0
 138 507 304 658 494 658 c 0
 651 658 774 555 774 391 c 0
 774 371 772 351 769 329 c 0
637.2 353 m 1
 639.1 370.5 640 386.9 640 402 c 0
 640 544 568 617 474 617 c 0
 392.6 617 285.4 539 244.9 353 c 1
 637.2 353 l 1
630.8 309 m 1
 237.2 309 l 1
 234.3 286.4 233 265.4 233 245 c 0
 233 107 304 29 403 29 c 0
 503.8 29 599.6 135.6 630.8 309 c 1
EndSplineSet
EndChar

StartChar: Ohorn
Encoding: 416 416 351
Width: 758
GlyphClass: 3
Flags: MW
AnchorPoint: "below" 350 -110 basechar 0
AnchorPoint: "cedilla" 350 0 basechar 0
LayerCount: 2
Fore
SplineSet
474 617 m 0
 352 617 233 432 233 249 c 0
 233 109 303 29 402 29 c 0
 535 29 639 218 639 397 c 0
 639 543 567 617 474 617 c 0
377 -12 m 0
 214 -12 97 86 97 244 c 0
 97 434 255 658 493 658 c 0
 610 658 624 617 672 617 c 0
 680 617 735 624 735 654 c 0
 735 665 728 674 720 677 c 0
 687 690 665 706 665 725 c 0
 665 745 686 769 721 769 c 0
 767 769 791 735 791 694 c 0
 791 675 787 596 695 583 c 1
 746 535 774 471 774 394 c 0
 774 245 662 -12 377 -12 c 0
EndSplineSet
EndChar

StartChar: ohorn
Encoding: 417 417 352
Width: 541
GlyphClass: 3
Flags: MW
AnchorPoint: "ogonek" 372 44 basechar 0
AnchorPoint: "cedilla" 241 -3 basechar 0
AnchorPoint: "below" 243 -110 basechar 0
LayerCount: 2
Fore
SplineSet
198 173 m 0
 198 50 248 31 271 31 c 0
 375 31 403 208 403 272 c 0
 403 333 392 404 333 404 c 0
 236 404 198 260 198 173 c 0
72 165 m 0
 72 285 172 445 352 445 c 0
 429 445 435 419 479 419 c 0
 505 419 536 438 536 453 c 0
 536 465 532 471 508 475 c 0
 487 479 475 500 475 517 c 0
 475 537 496 562 535 562 c 0
 579 562 604 533 604 497 c 0
 604 471 591 395 494 384 c 1
 520 348 527 312 527 279 c 0
 527 121 383 -12 246 -12 c 0
 103 -12 72 111 72 165 c 0
EndSplineSet
EndChar

StartChar: uni01A2
Encoding: 418 418 353
Width: 882
GlyphClass: 2
Flags: MW
AnchorPoint: "below" 354 -113 basechar 0
AnchorPoint: "cedilla" 354 0 basechar 0
AnchorPoint: "above" 359 804 basechar 0
LayerCount: 2
Fore
SplineSet
444 617 m 0
 361 617 250 521 210 327 c 1
 206 302 204 275 204 250 c 0
 204 109 274 29 373 29 c 0
 405 29 439 43 474 67 c 1
 465 64 l 1
 495 232 524 400 554 567 c 1
 560 564 l 1
 527 599 487 617 444 617 c 0
582 62 m 1
 574 60 l 1
 513 14 437 -12 347 -12 c 0
 185 -12 68 85 68 244 c 0
 68 264 70 286 74 311 c 0
 109 507 274 658 463 658 c 0
 518 658 564 647 601 628 c 1
 603 630 606 633 609 635 c 0
 612 637 613 638 633 647 c 1
 665 647 l 1
 698 643 729 640 769 640 c 0
 786.2 640 805.3 640.2 828 642 c 1
 842 645 856 648 880 658 c 1
 931 658 l 1
 803 -65 l 2
 803 -69 802 -73 802 -79 c 0
 802 -96 806 -105 817 -105 c 2
 840 -105 l 2
 855 -105 868 -109 868 -116 c 0
 868 -119 867 -123 865 -132 c 1
 855 -142 l 1
 855 -142 770 -139 731 -139 c 0
 696 -139 610 -142 610 -142 c 1
 602 -133 l 1
 604 -116 l 1
 606 -109 617 -105 635 -105 c 2
 658 -105 l 2
 675 -105 683 -90 687 -65 c 2
 792 531 l 2
 794 546 795 560 795 571 c 0
 795 589 795 595 796 596 c 1
 792 596 771 595 751 595 c 0
 745 595 735 595 729 596 c 0
 700 597 677 599 677 599 c 1
 646 421 613 241 582 62 c 1
EndSplineSet
EndChar

StartChar: uni01A3
Encoding: 419 419 354
Width: 690
GlyphClass: 2
Flags: MW
AnchorPoint: "cedilla" 603 -171 basechar 0
AnchorPoint: "above" 356 646 basechar 0
LayerCount: 2
Fore
SplineSet
395 337 m 1
 377 379 357 403 330 403 c 0
 265 403 212 327 188 228 c 0
 183 204 180 181 180 160 c 0
 180 68 229 39 267 39 c 0
 282 39 310 42 339 61 c 1
 330 58 l 1
 351 151 373 244 395 337 c 1
592 -153 m 2
 591 -158 591 -164 591 -169 c 0
 591 -185 594 -192 604 -192 c 2
 623 -192 l 2
 638 -192 652 -197 650 -205 c 2
 647 -218 l 1
 636 -229 l 1
 636 -229 555 -227 517 -227 c 0
 481 -227 400 -229 400 -229 c 1
 392 -220 l 1
 395 -207 l 2
 397 -197 408 -192 426 -192 c 2
 445 -192 l 2
 462 -192 470 -178 476 -152 c 2
 587 328 l 2
 588 333 588 336 588 339 c 0
 588 365 568 367 549 367 c 0
 543 367 522 363 503 356 c 1
 516 358 l 1
 493 256 470 158 446 56 c 1
 388 21 295 -12 233 -12 c 0
 103 -12 59 70 59 151 c 0
 59 170 61 190 66 209 c 0
 98 339 210 445 341 445 c 0
 382 445 416 438 440 423 c 1
 465 409 527 407 554 407 c 0
 592.5 407 627.1 422.1 652 434 c 1
 667 440 679 445 693 445 c 2
 730 445 l 1
 592 -153 l 2
EndSplineSet
EndChar

StartChar: uni01A4
Encoding: 420 420 355
Width: 584
GlyphClass: 2
Flags: MW
AnchorPoint: "below" 363 -110 basechar 0
AnchorPoint: "cedilla" 273 -3 basechar 0
AnchorPoint: "middle" 409 464 basechar 0
AnchorPoint: "above" 400 850 basechar 0
AnchorPoint: "right" 632 732 basechar 0
LayerCount: 2
Fore
SplineSet
384 603 m 1
 334 322 l 1
 349 320 369 319 383 319 c 0
 465 319 521 366 540 467 c 0
 542 481 544 497 544 511 c 0
 544 594 495 613 446 613 c 0
 431 613 390 606 369 600 c 1
 384 603 l 1
169 75 m 2
 257 573 l 2
 258 581 259 590 259 596 c 0
 259 606 259 610 260 611 c 1
 232 610 193 594 185 555 c 0
 184 548 184 540 185 531 c 0
 186 523 186 516 184 506 c 0
 180 484 154 469 123 469 c 0
 99 469 71 476 71 502 c 0
 71 505 71 508 73 514 c 0
 81 558 139 644 266 647 c 1
 270 647 l 1
 287 648 304 649 322 650 c 0
 373 653 435 654 460 654 c 0
 635 654 673 573 673 512 c 0
 673 504 671 493 670 484 c 1
 651 400 571 279 382 279 c 0
 359 279 341 280 327 282 c 1
 315 213 303 143 291 73 c 0
 291 71 291 66 291 62 c 0
 291 43 298 35 316 35 c 2
 342 35 l 2
 357 35 370 31 370 23 c 0
 370 21 369 18 367 8 c 1
 357 -1 l 1
 357 -1 258 1 219 1 c 0
 184 1 78 -1 78 -1 c 1
 69 7 l 1
 72 23 l 2
 73 31 84 35 102 35 c 2
 128 35 l 2
 153 35 165 50 169 75 c 2
EndSplineSet
EndChar

